{"glyphs":{"0":{"ha":719,"x_min":75,"x_max":644,"o":"m 360 -12 q 148 110 222 -12 q 75 514 75 232 q 109 822 75 706 q 206 989 143 938 q 360 1040 269 1040 q 514 989 451 1040 q 610 822 576 938 q 644 514 644 706 q 571 110 644 232 q 360 -12 498 -12 m 360 33 q 486 78 435 33 q 566 227 538 122 q 594 511 594 333 q 566 799 594 692 q 486 950 538 906 q 360 994 435 994 q 233 950 285 994 q 153 800 182 906 q 125 517 125 695 q 153 229 125 336 q 233 78 182 122 q 360 33 285 33 z "},"1":{"ha":383,"x_min":14,"x_max":263,"o":"m 236 1031 l 263 1031 l 263 0 l 215 0 l 215 963 l 14 807 l 14 858 l 236 1031 z "},"2":{"ha":558,"x_min":25,"x_max":517,"o":"m 517 44 l 517 0 l 36 0 l 36 28 l 301 461 q 394 643 366 567 q 422 790 422 719 q 369 948 422 901 q 210 994 315 994 q 115 985 160 994 q 25 956 70 976 l 25 1003 q 110 1030 60 1020 q 210 1040 161 1040 q 402 981 334 1040 q 471 797 471 922 q 442 635 471 716 q 339 433 413 553 l 98 44 l 517 44 z "},"3":{"ha":596,"x_min":35,"x_max":543,"o":"m 319 535 q 486 442 428 511 q 543 265 543 372 q 507 115 543 177 q 403 20 471 52 q 243 -12 335 -12 q 35 25 131 -12 l 35 72 q 242 33 135 33 q 427 92 360 33 q 494 264 494 151 q 426 442 494 378 q 219 506 357 506 l 147 506 l 147 551 l 171 551 q 330 581 265 551 q 429 664 395 610 q 463 792 463 718 q 242 994 463 994 q 143 985 189 994 q 53 956 98 976 l 53 1003 q 139 1030 88 1020 q 240 1040 190 1040 q 442 976 372 1040 q 511 790 511 911 q 461 632 511 699 q 319 535 411 565 z "},"4":{"ha":690,"x_min":35,"x_max":661,"o":"m 661 311 l 661 267 l 522 267 l 522 0 l 475 0 l 475 267 l 35 267 l 35 294 l 399 1028 l 450 1028 l 94 311 l 475 311 l 485 681 l 522 681 l 522 311 l 661 311 z "},"5":{"ha":596,"x_min":51,"x_max":560,"o":"m 213 572 q 473 489 386 562 q 560 276 560 416 q 483 62 560 136 q 261 -12 406 -12 q 51 25 143 -12 l 51 72 q 261 33 155 33 q 448 94 384 33 q 511 275 511 156 q 478 410 511 357 q 377 492 445 464 q 201 526 309 520 l 86 533 l 118 1028 l 517 1028 l 517 983 l 163 983 l 135 577 l 213 572 z "},"6":{"ha":661,"x_min":86,"x_max":626,"o":"m 357 575 q 494 543 433 575 q 591 445 556 510 q 626 283 626 379 q 593 119 626 185 q 503 20 560 53 q 375 -12 446 -12 q 164 100 241 -12 q 86 479 86 212 q 126 805 86 681 q 244 985 167 929 q 439 1040 322 1040 q 585 1013 523 1040 l 585 965 q 436 994 520 994 q 270 945 336 994 q 169 785 203 897 q 135 489 135 674 l 135 487 q 231 552 172 528 q 357 575 290 575 m 376 33 q 479 59 433 33 q 551 140 524 85 q 578 281 578 195 q 516 468 578 408 q 354 529 454 529 q 232 505 290 529 q 135 429 174 481 q 206 122 142 210 q 376 33 269 33 z "},"7":{"ha":544,"x_min":6,"x_max":506,"o":"m 6 1028 l 506 1028 l 506 1000 l 158 0 l 110 0 l 452 983 l 6 983 l 6 1028 z "},"8":{"ha":719,"x_min":63,"x_max":657,"o":"m 451 514 q 571 447 526 483 q 636 362 616 410 q 657 249 657 314 q 622 111 657 171 q 521 20 587 52 q 368 -12 456 -12 q 203 19 272 -12 q 98 110 134 51 q 63 254 63 170 q 115 426 63 351 q 256 538 167 502 q 132 640 170 581 q 93 786 93 699 q 125 920 93 863 q 217 1009 158 978 q 357 1040 277 1040 q 500 1009 439 1040 q 593 919 560 977 q 626 783 626 861 q 581 624 626 693 q 451 514 535 556 m 143 788 q 164 680 143 724 q 236 602 185 635 q 376 540 286 569 l 400 533 q 537 635 495 578 q 579 783 579 692 q 520 940 579 885 q 357 994 462 994 q 199 939 255 994 q 143 788 143 884 m 368 33 q 496 58 442 33 q 578 131 549 83 q 607 244 607 178 q 585 357 607 313 q 513 432 563 401 q 369 493 462 464 q 304 516 336 503 q 164 417 215 485 q 113 254 113 349 q 177 90 113 147 q 368 33 241 33 z "},"9":{"ha":661,"x_min":35,"x_max":575,"o":"m 286 1040 q 498 928 420 1040 q 575 549 575 816 q 535 223 575 347 q 417 43 494 99 q 222 -12 339 -12 q 76 15 138 -12 l 76 63 q 225 33 141 33 q 391 82 325 33 q 492 242 458 131 q 526 539 526 353 l 526 541 q 430 476 489 499 q 304 453 372 453 q 167 485 228 453 q 70 583 106 517 q 35 744 35 649 q 68 909 35 842 q 158 1008 101 975 q 286 1040 215 1040 m 307 499 q 429 523 371 499 q 526 599 488 547 q 456 906 519 818 q 285 994 392 994 q 182 969 228 994 q 110 888 137 943 q 83 747 83 833 q 145 559 83 620 q 307 499 207 499 z "},"\u0000":{"ha":0,"x_min":0,"x_max":0,"o":""},"\r":{"ha":288,"x_min":0,"x_max":0,"o":""}," ":{"ha":288,"x_min":0,"x_max":0,"o":""},"A":{"ha":785,"x_min":18,"x_max":767,"o":"m 715 0 l 594 367 l 190 367 l 68 0 l 18 0 l 363 1028 l 422 1028 l 767 0 l 715 0 m 205 413 l 578 413 l 392 975 l 205 413 z "},"Á":{"ha":785,"x_min":18,"x_max":767,"o":"m 715 0 l 594 367 l 190 367 l 68 0 l 18 0 l 363 1028 l 422 1028 l 767 0 l 715 0 m 205 413 l 578 413 l 392 975 l 205 413 m 374 1122 l 463 1311 l 513 1311 l 413 1122 l 374 1122 z "},"Ă":{"ha":785,"x_min":18,"x_max":767,"o":"m 715 0 l 594 367 l 190 367 l 68 0 l 18 0 l 363 1028 l 422 1028 l 767 0 l 715 0 m 205 413 l 578 413 l 392 975 l 205 413 m 394 1131 q 274 1172 317 1131 q 225 1292 230 1213 l 264 1292 q 302 1199 272 1227 q 394 1171 332 1171 q 487 1199 457 1171 q 522 1292 517 1227 l 561 1292 q 514 1171 556 1211 q 394 1131 472 1131 z "},"Ắ":{"ha":785,"x_min":18,"x_max":767,"o":"m 715 0 l 594 367 l 190 367 l 68 0 l 18 0 l 363 1028 l 422 1028 l 767 0 l 715 0 m 205 413 l 578 413 l 392 975 l 205 413 m 374 1283 l 463 1458 l 513 1458 l 413 1283 l 374 1283 m 393 1131 q 273 1171 315 1131 q 225 1292 230 1211 l 264 1292 q 299 1199 269 1227 q 393 1171 329 1171 q 485 1199 456 1171 q 522 1292 515 1226 l 561 1292 q 513 1172 556 1213 q 393 1131 469 1131 z "},"Ặ":{"ha":785,"x_min":18,"x_max":767,"o":"m 715 0 l 594 367 l 190 367 l 68 0 l 18 0 l 363 1028 l 422 1028 l 767 0 l 715 0 m 205 413 l 578 413 l 392 975 l 205 413 m 393 -215 q 362 -203 374 -215 q 350 -172 350 -192 q 362 -140 350 -153 q 393 -128 374 -128 q 424 -140 412 -128 q 436 -172 436 -153 q 424 -203 436 -192 q 393 -215 412 -215 m 394 1131 q 274 1172 317 1131 q 225 1292 230 1213 l 264 1292 q 302 1199 272 1227 q 394 1171 332 1171 q 487 1199 457 1171 q 522 1292 517 1227 l 561 1292 q 514 1171 556 1211 q 394 1131 472 1131 z "},"Ằ":{"ha":785,"x_min":18,"x_max":767,"o":"m 715 0 l 594 367 l 190 367 l 68 0 l 18 0 l 363 1028 l 422 1028 l 767 0 l 715 0 m 205 413 l 578 413 l 392 975 l 205 413 m 374 1283 l 274 1458 l 324 1458 l 413 1283 l 374 1283 m 393 1131 q 273 1171 315 1131 q 225 1292 230 1211 l 264 1292 q 299 1199 269 1227 q 393 1171 329 1171 q 485 1199 456 1171 q 522 1292 515 1226 l 561 1292 q 513 1172 556 1213 q 393 1131 469 1131 z "},"Ẳ":{"ha":785,"x_min":18,"x_max":767,"o":"m 715 0 l 594 367 l 190 367 l 68 0 l 18 0 l 363 1028 l 422 1028 l 767 0 l 715 0 m 205 413 l 578 413 l 392 975 l 205 413 m 372 1283 q 390 1326 374 1311 q 434 1354 406 1340 q 467 1374 456 1365 q 478 1399 478 1383 q 461 1425 478 1416 q 400 1435 444 1435 q 276 1408 335 1435 l 276 1447 q 334 1466 301 1459 q 400 1472 367 1472 q 489 1452 458 1472 q 519 1400 519 1432 q 505 1359 519 1373 q 462 1331 490 1345 q 427 1309 439 1319 q 414 1283 416 1299 l 372 1283 m 392 1131 q 272 1171 315 1131 q 225 1292 230 1211 l 264 1292 q 299 1199 269 1227 q 392 1171 329 1171 q 484 1199 454 1171 q 522 1292 515 1227 l 561 1292 q 513 1172 556 1213 q 392 1131 469 1131 z "},"Ẵ":{"ha":785,"x_min":18,"x_max":767,"o":"m 715 0 l 594 367 l 190 367 l 68 0 l 18 0 l 363 1028 l 422 1028 l 767 0 l 715 0 m 205 413 l 578 413 l 392 975 l 205 413 m 472 1343 q 432 1350 451 1343 q 385 1372 413 1358 q 344 1391 360 1385 q 314 1397 329 1397 q 265 1385 287 1397 q 225 1347 244 1373 l 225 1393 q 264 1425 241 1413 q 314 1436 286 1436 q 354 1429 335 1436 q 401 1407 373 1422 q 442 1388 426 1394 q 472 1382 457 1382 q 520 1394 499 1382 q 561 1432 542 1407 l 561 1386 q 522 1355 545 1366 q 472 1343 499 1343 m 392 1131 q 272 1171 315 1131 q 225 1292 230 1211 l 264 1292 q 299 1199 269 1227 q 392 1171 329 1171 q 484 1199 454 1171 q 522 1292 515 1227 l 561 1292 q 513 1172 556 1213 q 392 1131 469 1131 z "},"Â":{"ha":785,"x_min":18,"x_max":767,"o":"m 715 0 l 594 367 l 190 367 l 68 0 l 18 0 l 363 1028 l 422 1028 l 767 0 l 715 0 m 205 413 l 578 413 l 392 975 l 205 413 m 556 1122 l 507 1122 l 393 1283 l 279 1122 l 231 1122 l 367 1311 l 419 1311 l 556 1122 z "},"Ấ":{"ha":785,"x_min":18,"x_max":767,"o":"m 715 0 l 594 367 l 190 367 l 68 0 l 18 0 l 363 1028 l 422 1028 l 767 0 l 715 0 m 205 413 l 578 413 l 392 975 l 205 413 m 606 1433 l 656 1433 l 556 1244 l 517 1244 l 606 1433 m 367 1311 l 419 1311 l 556 1122 l 507 1122 l 393 1283 l 279 1122 l 231 1122 l 367 1311 z "},"Ậ":{"ha":785,"x_min":18,"x_max":767,"o":"m 715 0 l 594 367 l 190 367 l 68 0 l 18 0 l 363 1028 l 422 1028 l 767 0 l 715 0 m 205 413 l 578 413 l 392 975 l 205 413 m 393 -215 q 362 -203 374 -215 q 350 -172 350 -192 q 362 -140 350 -153 q 393 -128 374 -128 q 424 -140 412 -128 q 436 -172 436 -153 q 424 -203 436 -192 q 393 -215 412 -215 m 556 1122 l 507 1122 l 393 1283 l 279 1122 l 231 1122 l 367 1311 l 419 1311 l 556 1122 z "},"Ầ":{"ha":785,"x_min":18,"x_max":767,"o":"m 715 0 l 594 367 l 190 367 l 68 0 l 18 0 l 363 1028 l 422 1028 l 767 0 l 715 0 m 205 413 l 578 413 l 392 975 l 205 413 m 569 1244 l 531 1244 l 431 1433 l 481 1433 l 569 1244 m 367 1311 l 419 1311 l 556 1122 l 507 1122 l 393 1283 l 279 1122 l 231 1122 l 367 1311 z "},"Ẩ":{"ha":785,"x_min":18,"x_max":767,"o":"m 715 0 l 594 367 l 190 367 l 68 0 l 18 0 l 363 1028 l 422 1028 l 767 0 l 715 0 m 205 413 l 578 413 l 392 975 l 205 413 m 543 1433 q 632 1413 601 1433 q 663 1361 663 1393 q 648 1320 663 1334 q 605 1292 633 1306 q 570 1270 582 1281 q 557 1244 559 1260 l 515 1244 q 533 1287 517 1272 q 577 1315 549 1301 q 610 1335 599 1326 q 621 1360 621 1344 q 604 1386 621 1377 q 543 1396 587 1396 q 419 1369 478 1396 l 419 1408 q 477 1427 444 1420 q 543 1433 510 1433 m 367 1311 l 419 1311 l 556 1122 l 507 1122 l 393 1283 l 279 1122 l 231 1122 l 367 1311 z "},"Ẫ":{"ha":785,"x_min":18,"x_max":767,"o":"m 715 0 l 594 367 l 190 367 l 68 0 l 18 0 l 363 1028 l 422 1028 l 767 0 l 715 0 m 205 413 l 578 413 l 392 975 l 205 413 m 469 1382 q 516 1394 495 1382 q 556 1432 536 1406 l 556 1386 q 518 1355 541 1366 q 469 1343 496 1343 q 430 1351 449 1343 q 384 1373 410 1358 q 346 1391 360 1385 q 317 1397 331 1397 q 270 1385 291 1397 q 231 1347 250 1373 l 231 1393 q 268 1425 245 1413 q 317 1436 290 1436 q 357 1428 338 1436 q 402 1406 376 1421 q 440 1388 426 1394 q 469 1382 455 1382 m 367 1311 l 419 1311 l 556 1122 l 507 1122 l 393 1283 l 279 1122 l 231 1122 l 367 1311 z "},"Ȁ":{"ha":785,"x_min":18,"x_max":767,"o":"m 715 0 l 594 367 l 190 367 l 68 0 l 18 0 l 363 1028 l 422 1028 l 767 0 l 715 0 m 205 413 l 578 413 l 392 975 l 205 413 m 286 1122 l 219 1311 l 264 1311 l 324 1122 l 286 1122 m 463 1122 l 396 1311 l 440 1311 l 500 1122 l 463 1122 z "},"Ä":{"ha":785,"x_min":18,"x_max":767,"o":"m 715 0 l 594 367 l 190 367 l 68 0 l 18 0 l 363 1028 l 422 1028 l 767 0 l 715 0 m 205 413 l 578 413 l 392 975 l 205 413 m 268 1174 q 237 1185 249 1174 q 225 1217 225 1197 q 237 1249 225 1236 q 268 1261 249 1261 q 299 1249 287 1261 q 311 1217 311 1236 q 299 1185 311 1197 q 268 1174 287 1174 m 518 1174 q 487 1185 499 1174 q 475 1217 475 1197 q 487 1249 475 1236 q 518 1261 499 1261 q 549 1249 537 1261 q 561 1217 561 1236 q 549 1185 561 1197 q 518 1174 537 1174 z "},"Ạ":{"ha":785,"x_min":18,"x_max":767,"o":"m 715 0 l 594 367 l 190 367 l 68 0 l 18 0 l 363 1028 l 422 1028 l 767 0 l 715 0 m 205 413 l 578 413 l 392 975 l 205 413 m 393 -215 q 362 -203 374 -215 q 350 -172 350 -192 q 362 -140 350 -153 q 393 -128 374 -128 q 424 -140 412 -128 q 436 -172 436 -153 q 424 -203 436 -192 q 393 -215 412 -215 z "},"À":{"ha":785,"x_min":18,"x_max":767,"o":"m 715 0 l 594 367 l 190 367 l 68 0 l 18 0 l 363 1028 l 422 1028 l 767 0 l 715 0 m 205 413 l 578 413 l 392 975 l 205 413 m 374 1122 l 274 1311 l 324 1311 l 413 1122 l 374 1122 z "},"Ả":{"ha":785,"x_min":18,"x_max":767,"o":"m 715 0 l 594 367 l 190 367 l 68 0 l 18 0 l 363 1028 l 422 1028 l 767 0 l 715 0 m 205 413 l 578 413 l 392 975 l 205 413 m 372 1122 q 390 1165 374 1150 q 434 1193 406 1179 q 467 1213 456 1203 q 478 1238 478 1222 q 461 1264 478 1255 q 400 1274 444 1274 q 276 1247 335 1274 l 276 1286 q 334 1305 301 1298 q 400 1311 367 1311 q 489 1291 458 1311 q 519 1239 519 1271 q 505 1198 519 1212 q 462 1169 490 1184 q 427 1148 439 1158 q 414 1122 416 1138 l 372 1122 z "},"Ȃ":{"ha":785,"x_min":18,"x_max":767,"o":"m 715 0 l 594 367 l 190 367 l 68 0 l 18 0 l 363 1028 l 422 1028 l 767 0 l 715 0 m 205 413 l 578 413 l 392 975 l 205 413 m 225 1142 q 272 1263 230 1222 q 392 1303 315 1303 q 513 1262 469 1303 q 561 1142 556 1221 l 522 1142 q 484 1234 515 1206 q 392 1263 454 1263 q 299 1234 329 1263 q 264 1142 269 1206 l 225 1142 z "},"Ā":{"ha":785,"x_min":18,"x_max":767,"o":"m 715 0 l 594 367 l 190 367 l 68 0 l 18 0 l 363 1028 l 422 1028 l 767 0 l 715 0 m 205 413 l 578 413 l 392 975 l 205 413 m 226 1197 l 226 1238 l 560 1238 l 560 1197 l 226 1197 z "},"Ą":{"ha":785,"x_min":18,"x_max":844,"o":"m 742 -242 q 789 -235 765 -242 q 844 -214 813 -229 l 844 -251 q 743 -278 794 -278 q 641 -248 677 -278 q 606 -161 606 -218 q 631 -72 606 -113 q 713 9 657 -31 l 594 367 l 190 367 l 68 0 l 18 0 l 363 1028 l 422 1028 l 767 0 q 673 -78 701 -41 q 644 -158 644 -115 q 742 -242 644 -242 m 205 413 l 578 413 l 392 975 l 205 413 z "},"Å":{"ha":785,"x_min":18,"x_max":767,"o":"m 594 367 l 190 367 l 68 0 l 18 0 l 353 1000 q 291 1045 315 1012 q 268 1121 268 1078 q 285 1186 268 1157 q 331 1232 301 1215 q 396 1249 360 1249 q 461 1232 432 1249 q 507 1186 490 1215 q 524 1121 524 1157 q 499 1042 524 1076 q 432 998 474 1009 l 767 0 l 715 0 l 594 367 m 306 1121 q 331 1054 306 1078 q 396 1029 356 1029 q 461 1054 436 1029 q 486 1121 486 1078 q 461 1188 486 1163 q 396 1213 436 1213 q 331 1188 356 1213 q 306 1121 306 1163 m 205 413 l 578 413 l 392 975 l 205 413 z "},"Ǻ":{"ha":785,"x_min":18,"x_max":767,"o":"m 594 367 l 190 367 l 68 0 l 18 0 l 353 1001 q 291 1046 315 1013 q 268 1122 268 1078 q 285 1188 268 1158 q 331 1233 301 1217 q 396 1250 360 1250 q 467 1230 435 1250 l 564 1325 l 619 1325 l 495 1205 q 516 1167 509 1189 q 524 1122 524 1146 q 498 1044 524 1077 q 432 999 473 1010 l 767 0 l 715 0 l 594 367 m 306 1122 q 331 1055 306 1080 q 396 1031 356 1031 q 461 1055 436 1031 q 486 1122 486 1080 q 461 1189 486 1165 q 396 1214 436 1214 q 331 1189 356 1214 q 306 1122 306 1165 m 205 413 l 578 413 l 392 975 l 205 413 z "},"Ã":{"ha":785,"x_min":18,"x_max":767,"o":"m 715 0 l 594 367 l 190 367 l 68 0 l 18 0 l 363 1028 l 422 1028 l 767 0 l 715 0 m 205 413 l 578 413 l 392 975 l 205 413 m 482 1178 q 435 1185 458 1178 q 384 1207 413 1193 q 339 1226 356 1220 q 304 1232 322 1232 q 253 1220 276 1232 q 211 1182 231 1208 l 211 1228 q 251 1259 227 1248 q 304 1271 275 1271 q 351 1263 328 1271 q 402 1242 374 1256 q 447 1223 431 1228 q 482 1217 464 1217 q 533 1229 510 1217 q 575 1267 555 1241 l 575 1221 q 535 1189 559 1201 q 482 1178 511 1178 z "},"Æ":{"ha":1074,"x_min":18,"x_max":1050,"o":"m 614 46 l 1050 46 l 1050 0 l 568 0 l 552 367 l 193 367 l 68 0 l 18 0 l 371 1028 l 1043 1028 l 1043 982 l 572 982 l 592 551 l 981 551 l 981 506 l 594 506 l 614 46 m 208 413 l 550 413 l 526 982 l 403 982 l 208 413 z "},"Ǽ":{"ha":1074,"x_min":18,"x_max":1050,"o":"m 614 46 l 1050 46 l 1050 0 l 568 0 l 552 367 l 193 367 l 68 0 l 18 0 l 371 1028 l 1043 1028 l 1043 982 l 572 982 l 592 551 l 981 551 l 981 506 l 594 506 l 614 46 m 208 413 l 550 413 l 526 982 l 403 982 l 208 413 m 529 1122 l 618 1311 l 668 1311 l 568 1122 l 529 1122 z "},"B":{"ha":757,"x_min":114,"x_max":704,"o":"m 490 532 q 651 443 598 512 q 704 271 704 375 q 610 62 704 131 q 311 -7 517 -7 q 114 3 206 -7 l 114 1018 q 331 1038 218 1038 q 527 1009 451 1038 q 639 923 603 981 q 675 774 675 865 q 632 619 675 684 q 490 532 589 554 m 328 992 q 161 979 234 992 l 161 551 l 338 551 q 509 577 446 551 q 600 651 573 603 q 626 774 626 700 q 597 900 626 853 q 502 969 567 947 q 328 992 438 992 m 313 39 q 512 63 437 39 q 622 138 588 88 q 656 268 656 188 q 585 447 656 388 q 365 506 515 506 l 161 506 l 161 46 q 313 39 222 39 z "},"C":{"ha":646,"x_min":68,"x_max":633,"o":"m 440 -12 q 239 37 321 -12 q 113 203 157 87 q 68 513 68 319 q 113 821 68 705 q 241 989 157 938 q 450 1040 325 1040 q 633 1013 542 1040 l 633 965 q 540 988 585 982 q 444 994 496 994 q 264 950 335 994 q 155 800 192 906 q 118 515 118 694 q 156 227 118 333 q 264 77 194 121 q 439 33 334 33 q 534 42 488 33 q 633 69 580 51 l 633 22 q 440 -12 537 -12 z "},"Ć":{"ha":646,"x_min":68,"x_max":633,"o":"m 440 -12 q 239 37 321 -12 q 113 203 157 87 q 68 513 68 319 q 113 821 68 705 q 241 989 157 938 q 450 1040 325 1040 q 633 1013 542 1040 l 633 965 q 540 988 585 982 q 444 994 496 994 q 264 950 335 994 q 155 800 192 906 q 118 515 118 694 q 156 227 118 333 q 264 77 194 121 q 439 33 334 33 q 534 42 488 33 q 633 69 580 51 l 633 22 q 440 -12 537 -12 m 389 1122 l 478 1311 l 528 1311 l 428 1122 l 389 1122 z "},"Č":{"ha":646,"x_min":68,"x_max":633,"o":"m 440 -12 q 239 37 321 -12 q 113 203 157 87 q 68 513 68 319 q 113 821 68 705 q 241 989 157 938 q 450 1040 325 1040 q 633 1013 542 1040 l 633 965 q 540 988 585 982 q 444 994 496 994 q 264 950 335 994 q 155 800 192 906 q 118 515 118 694 q 156 227 118 333 q 264 77 194 121 q 439 33 334 33 q 534 42 488 33 q 633 69 580 51 l 633 22 q 440 -12 537 -12 m 522 1311 l 571 1311 l 435 1122 l 382 1122 l 246 1311 l 294 1311 l 408 1151 l 522 1311 z "},"Ç":{"ha":646,"x_min":68,"x_max":633,"o":"m 444 994 q 264 950 335 994 q 155 800 192 906 q 118 515 118 694 q 156 227 118 333 q 264 77 194 121 q 439 33 334 33 q 534 42 488 33 q 633 69 580 51 l 633 22 q 440 -12 537 -12 l 435 -12 l 435 -78 q 516 -107 485 -81 q 546 -178 546 -133 q 512 -252 546 -226 q 424 -278 478 -278 q 304 -251 359 -278 l 304 -212 q 367 -235 340 -228 q 424 -242 395 -242 q 485 -226 463 -242 q 507 -178 507 -210 q 485 -130 507 -145 q 422 -114 463 -114 l 396 -114 l 396 -11 q 218 52 290 -2 q 107 218 146 106 q 68 513 68 331 q 113 821 68 705 q 241 989 157 938 q 450 1040 325 1040 q 633 1013 542 1040 l 633 965 q 540 988 585 982 q 444 994 496 994 z "},"Ḉ":{"ha":646,"x_min":68,"x_max":633,"o":"m 528 1311 l 428 1122 l 389 1122 l 478 1311 l 528 1311 m 444 994 q 264 950 335 994 q 155 800 192 906 q 118 515 118 694 q 156 227 118 333 q 264 77 194 121 q 439 33 334 33 q 534 42 488 33 q 633 69 580 51 l 633 22 q 440 -12 537 -12 l 435 -12 l 435 -78 q 516 -107 485 -81 q 546 -178 546 -133 q 512 -252 546 -226 q 424 -278 478 -278 q 304 -251 359 -278 l 304 -212 q 367 -235 340 -228 q 424 -242 395 -242 q 485 -226 463 -242 q 507 -178 507 -210 q 485 -130 507 -145 q 422 -114 463 -114 l 396 -114 l 396 -11 q 218 52 290 -2 q 107 218 146 106 q 68 513 68 331 q 113 821 68 705 q 241 989 157 938 q 450 1040 325 1040 q 633 1013 542 1040 l 633 965 q 540 988 585 982 q 444 994 496 994 z "},"Ĉ":{"ha":646,"x_min":68,"x_max":633,"o":"m 440 -12 q 239 37 321 -12 q 113 203 157 87 q 68 513 68 319 q 113 821 68 705 q 241 989 157 938 q 450 1040 325 1040 q 633 1013 542 1040 l 633 965 q 540 988 585 982 q 444 994 496 994 q 264 950 335 994 q 155 800 192 906 q 118 515 118 694 q 156 227 118 333 q 264 77 194 121 q 439 33 334 33 q 534 42 488 33 q 633 69 580 51 l 633 22 q 440 -12 537 -12 m 571 1122 l 522 1122 l 408 1283 l 294 1122 l 246 1122 l 382 1311 l 435 1311 l 571 1122 z "},"Ċ":{"ha":646,"x_min":68,"x_max":633,"o":"m 440 -12 q 239 37 321 -12 q 113 203 157 87 q 68 513 68 319 q 113 821 68 705 q 241 989 157 938 q 450 1040 325 1040 q 633 1013 542 1040 l 633 965 q 540 988 585 982 q 444 994 496 994 q 264 950 335 994 q 155 800 192 906 q 118 515 118 694 q 156 227 118 333 q 264 77 194 121 q 439 33 334 33 q 534 42 488 33 q 633 69 580 51 l 633 22 q 440 -12 537 -12 m 408 1174 q 377 1185 390 1174 q 365 1217 365 1197 q 377 1249 365 1236 q 408 1261 390 1261 q 439 1249 427 1261 q 451 1217 451 1236 q 439 1185 451 1197 q 408 1174 427 1174 z "},"D":{"ha":803,"x_min":114,"x_max":735,"o":"m 288 -7 q 114 3 215 -7 l 114 1019 q 307 1038 225 1038 q 628 909 522 1038 q 735 514 735 781 q 684 215 735 331 q 535 47 634 100 q 288 -7 436 -7 m 289 39 q 511 87 424 39 q 641 239 598 135 q 685 514 685 344 q 644 787 685 682 q 520 942 604 892 q 304 992 437 992 q 161 981 239 992 l 161 46 q 289 39 219 39 z "},"Ǳ":{"ha":1435,"x_min":114,"x_max":1396,"o":"m 288 -7 q 114 3 215 -7 l 114 1019 q 307 1038 225 1038 q 628 909 522 1038 q 735 514 735 781 q 684 215 735 331 q 535 47 634 100 q 288 -7 436 -7 m 289 39 q 511 87 424 39 q 641 239 598 135 q 685 514 685 344 q 644 787 685 682 q 520 942 604 892 q 304 992 437 992 q 161 981 239 992 l 161 46 q 289 39 219 39 m 875 44 l 1396 44 l 1396 0 l 814 0 l 814 28 l 1328 983 l 821 983 l 821 1028 l 1389 1028 l 1389 1000 l 875 44 z "},"Ǆ":{"ha":1435,"x_min":114,"x_max":1396,"o":"m 288 -7 q 114 3 215 -7 l 114 1019 q 307 1038 225 1038 q 628 909 522 1038 q 735 514 735 781 q 684 215 735 331 q 535 47 634 100 q 288 -7 436 -7 m 289 39 q 511 87 424 39 q 641 239 598 135 q 685 514 685 344 q 644 787 685 682 q 520 942 604 892 q 304 992 437 992 q 161 981 239 992 l 161 46 q 289 39 219 39 m 875 44 l 1396 44 l 1396 0 l 814 0 l 814 28 l 1328 983 l 821 983 l 821 1028 l 1389 1028 l 1389 1000 l 875 44 m 1219 1311 l 1268 1311 l 1132 1122 l 1079 1122 l 943 1311 l 992 1311 l 1106 1151 l 1219 1311 z "},"Ð":{"ha":803,"x_min":-3,"x_max":735,"o":"m 307 1038 q 628 909 522 1038 q 735 514 735 781 q 684 215 735 331 q 535 47 634 100 q 288 -7 436 -7 q 114 3 215 -7 l 114 508 l -3 508 l -3 550 l 114 550 l 114 1019 q 307 1038 225 1038 m 289 39 q 511 87 424 39 q 641 239 598 135 q 685 514 685 344 q 644 787 685 682 q 520 942 604 892 q 304 992 437 992 q 161 981 239 992 l 161 550 l 369 550 l 369 508 l 161 508 l 161 46 q 289 39 219 39 z "},"Ď":{"ha":803,"x_min":114,"x_max":735,"o":"m 288 -7 q 114 3 215 -7 l 114 1019 q 307 1038 225 1038 q 628 909 522 1038 q 735 514 735 781 q 684 215 735 331 q 535 47 634 100 q 288 -7 436 -7 m 289 39 q 511 87 424 39 q 641 239 598 135 q 685 514 685 344 q 644 787 685 682 q 520 942 604 892 q 304 992 437 992 q 161 981 239 992 l 161 46 q 289 39 219 39 m 472 1311 l 521 1311 l 385 1122 l 332 1122 l 196 1311 l 244 1311 l 358 1151 l 472 1311 z "},"Đ":{"ha":803,"x_min":-3,"x_max":735,"o":"m 307 1038 q 628 909 522 1038 q 735 514 735 781 q 684 215 735 331 q 535 47 634 100 q 288 -7 436 -7 q 114 3 215 -7 l 114 508 l -3 508 l -3 550 l 114 550 l 114 1019 q 307 1038 225 1038 m 289 39 q 511 87 424 39 q 641 239 598 135 q 685 514 685 344 q 644 787 685 682 q 520 942 604 892 q 304 992 437 992 q 161 981 239 992 l 161 550 l 369 550 l 369 508 l 161 508 l 161 46 q 289 39 219 39 z "},"Ḍ":{"ha":803,"x_min":114,"x_max":735,"o":"m 288 -7 q 114 3 215 -7 l 114 1019 q 307 1038 225 1038 q 628 909 522 1038 q 735 514 735 781 q 684 215 735 331 q 535 47 634 100 q 288 -7 436 -7 m 289 39 q 511 87 424 39 q 641 239 598 135 q 685 514 685 344 q 644 787 685 682 q 520 942 604 892 q 304 992 437 992 q 161 981 239 992 l 161 46 q 289 39 219 39 m 358 -215 q 327 -203 340 -215 q 315 -172 315 -192 q 327 -140 315 -153 q 358 -128 340 -128 q 389 -140 377 -128 q 401 -172 401 -153 q 389 -203 401 -192 q 358 -215 377 -215 z "},"Ḏ":{"ha":803,"x_min":114,"x_max":735,"o":"m 288 -7 q 114 3 215 -7 l 114 1019 q 307 1038 225 1038 q 628 909 522 1038 q 735 514 735 781 q 684 215 735 331 q 535 47 634 100 q 288 -7 436 -7 m 289 39 q 511 87 424 39 q 641 239 598 135 q 685 514 685 344 q 644 787 685 682 q 520 942 604 892 q 304 992 437 992 q 161 981 239 992 l 161 46 q 289 39 219 39 m 192 -192 l 192 -151 l 525 -151 l 525 -192 l 192 -192 z "},"ǲ":{"ha":1318,"x_min":114,"x_max":1283,"o":"m 288 -7 q 114 3 215 -7 l 114 1019 q 307 1038 225 1038 q 628 909 522 1038 q 735 514 735 781 q 684 215 735 331 q 535 47 634 100 q 288 -7 436 -7 m 289 39 q 511 87 424 39 q 641 239 598 135 q 685 514 685 344 q 644 787 685 682 q 520 942 604 892 q 304 992 437 992 q 161 981 239 992 l 161 46 q 289 39 219 39 m 900 44 l 1283 44 l 1283 0 l 840 0 l 840 28 l 1217 706 l 847 706 l 847 750 l 1276 750 l 1276 722 l 900 44 z "},"ǅ":{"ha":1318,"x_min":114,"x_max":1283,"o":"m 288 -7 q 114 3 215 -7 l 114 1019 q 307 1038 225 1038 q 628 909 522 1038 q 735 514 735 781 q 684 215 735 331 q 535 47 634 100 q 288 -7 436 -7 m 289 39 q 511 87 424 39 q 641 239 598 135 q 685 514 685 344 q 644 787 685 682 q 520 942 604 892 q 304 992 437 992 q 161 981 239 992 l 161 46 q 289 39 219 39 m 900 44 l 1283 44 l 1283 0 l 840 0 l 840 28 l 1217 706 l 847 706 l 847 750 l 1276 750 l 1276 722 l 900 44 m 1176 1089 l 1225 1089 l 1089 900 l 1036 900 l 900 1089 l 949 1089 l 1063 928 l 1176 1089 z "},"E":{"ha":657,"x_min":114,"x_max":633,"o":"m 161 46 l 633 46 l 633 0 l 114 0 l 114 1028 l 626 1028 l 626 982 l 161 982 l 161 551 l 564 551 l 564 506 l 161 506 l 161 46 z "},"É":{"ha":657,"x_min":114,"x_max":633,"o":"m 161 46 l 633 46 l 633 0 l 114 0 l 114 1028 l 626 1028 l 626 982 l 161 982 l 161 551 l 564 551 l 564 506 l 161 506 l 161 46 m 367 1122 l 456 1311 l 506 1311 l 406 1122 l 367 1122 z "},"Ĕ":{"ha":657,"x_min":114,"x_max":633,"o":"m 161 46 l 633 46 l 633 0 l 114 0 l 114 1028 l 626 1028 l 626 982 l 161 982 l 161 551 l 564 551 l 564 506 l 161 506 l 161 46 m 388 1131 q 267 1172 310 1131 q 218 1292 223 1213 l 257 1292 q 295 1199 265 1227 q 388 1171 325 1171 q 480 1199 450 1171 q 515 1292 510 1227 l 554 1292 q 507 1171 549 1211 q 388 1131 465 1131 z "},"Ě":{"ha":657,"x_min":114,"x_max":633,"o":"m 161 46 l 633 46 l 633 0 l 114 0 l 114 1028 l 626 1028 l 626 982 l 161 982 l 161 551 l 564 551 l 564 506 l 161 506 l 161 46 m 500 1311 l 549 1311 l 413 1122 l 360 1122 l 224 1311 l 272 1311 l 386 1151 l 500 1311 z "},"Ḝ":{"ha":657,"x_min":114,"x_max":633,"o":"m 388 1131 q 267 1172 310 1131 q 218 1292 223 1213 l 257 1292 q 295 1199 265 1227 q 388 1171 325 1171 q 480 1199 450 1171 q 515 1292 510 1227 l 554 1292 q 507 1171 549 1211 q 388 1131 465 1131 m 406 0 l 406 -78 q 486 -107 456 -81 q 517 -178 517 -133 q 483 -252 517 -226 q 394 -278 449 -278 q 275 -251 330 -278 l 275 -212 q 338 -235 310 -228 q 394 -242 366 -242 q 456 -226 433 -242 q 478 -178 478 -210 q 456 -130 478 -145 q 393 -114 433 -114 l 367 -114 l 367 0 l 114 0 l 114 1028 l 626 1028 l 626 982 l 161 982 l 161 551 l 564 551 l 564 506 l 161 506 l 161 46 l 633 46 l 633 0 l 406 0 z "},"Ê":{"ha":657,"x_min":114,"x_max":633,"o":"m 161 46 l 633 46 l 633 0 l 114 0 l 114 1028 l 626 1028 l 626 982 l 161 982 l 161 551 l 564 551 l 564 506 l 161 506 l 161 46 m 549 1122 l 500 1122 l 386 1283 l 272 1122 l 224 1122 l 360 1311 l 413 1311 l 549 1122 z "},"Ế":{"ha":657,"x_min":114,"x_max":649,"o":"m 161 46 l 633 46 l 633 0 l 114 0 l 114 1028 l 626 1028 l 626 982 l 161 982 l 161 551 l 564 551 l 564 506 l 161 506 l 161 46 m 599 1433 l 649 1433 l 549 1244 l 510 1244 l 599 1433 m 360 1311 l 413 1311 l 549 1122 l 500 1122 l 386 1283 l 272 1122 l 224 1122 l 360 1311 z "},"Ệ":{"ha":657,"x_min":114,"x_max":633,"o":"m 161 46 l 633 46 l 633 0 l 114 0 l 114 1028 l 626 1028 l 626 982 l 161 982 l 161 551 l 564 551 l 564 506 l 161 506 l 161 46 m 386 -215 q 355 -203 367 -215 q 343 -172 343 -192 q 355 -140 343 -153 q 386 -128 367 -128 q 417 -140 405 -128 q 429 -172 429 -153 q 417 -203 429 -192 q 386 -215 405 -215 m 549 1122 l 500 1122 l 386 1283 l 272 1122 l 224 1122 l 360 1311 l 413 1311 l 549 1122 z "},"Ề":{"ha":657,"x_min":114,"x_max":633,"o":"m 161 46 l 633 46 l 633 0 l 114 0 l 114 1028 l 626 1028 l 626 982 l 161 982 l 161 551 l 564 551 l 564 506 l 161 506 l 161 46 m 563 1244 l 524 1244 l 424 1433 l 474 1433 l 563 1244 m 360 1311 l 413 1311 l 549 1122 l 500 1122 l 386 1283 l 272 1122 l 224 1122 l 360 1311 z "},"Ể":{"ha":657,"x_min":114,"x_max":656,"o":"m 161 46 l 633 46 l 633 0 l 114 0 l 114 1028 l 626 1028 l 626 982 l 161 982 l 161 551 l 564 551 l 564 506 l 161 506 l 161 46 m 536 1433 q 625 1413 594 1433 q 656 1361 656 1393 q 641 1320 656 1334 q 598 1292 626 1306 q 564 1270 575 1281 q 550 1244 552 1260 l 508 1244 q 526 1287 510 1272 q 570 1315 542 1301 q 603 1335 592 1326 q 614 1360 614 1344 q 597 1386 614 1377 q 536 1396 580 1396 q 413 1369 472 1396 l 413 1408 q 470 1427 437 1420 q 536 1433 503 1433 m 360 1311 l 413 1311 l 549 1122 l 500 1122 l 386 1283 l 272 1122 l 224 1122 l 360 1311 z "},"Ễ":{"ha":657,"x_min":114,"x_max":633,"o":"m 161 46 l 633 46 l 633 0 l 114 0 l 114 1028 l 626 1028 l 626 982 l 161 982 l 161 551 l 564 551 l 564 506 l 161 506 l 161 46 m 463 1382 q 509 1394 488 1382 q 549 1432 529 1406 l 549 1386 q 511 1355 534 1366 q 463 1343 489 1343 q 423 1351 442 1343 q 377 1373 403 1358 q 339 1391 353 1385 q 310 1397 324 1397 q 264 1385 284 1397 q 224 1347 243 1373 l 224 1393 q 261 1425 238 1413 q 310 1436 283 1436 q 350 1428 331 1436 q 395 1406 369 1421 q 433 1388 419 1394 q 463 1382 448 1382 m 360 1311 l 413 1311 l 549 1122 l 500 1122 l 386 1283 l 272 1122 l 224 1122 l 360 1311 z "},"Ȅ":{"ha":657,"x_min":114,"x_max":633,"o":"m 161 46 l 633 46 l 633 0 l 114 0 l 114 1028 l 626 1028 l 626 982 l 161 982 l 161 551 l 564 551 l 564 506 l 161 506 l 161 46 m 279 1122 l 213 1311 l 257 1311 l 317 1122 l 279 1122 m 456 1122 l 389 1311 l 433 1311 l 493 1122 l 456 1122 z "},"Ë":{"ha":657,"x_min":114,"x_max":633,"o":"m 161 46 l 633 46 l 633 0 l 114 0 l 114 1028 l 626 1028 l 626 982 l 161 982 l 161 551 l 564 551 l 564 506 l 161 506 l 161 46 m 261 1174 q 230 1185 242 1174 q 218 1217 218 1197 q 230 1249 218 1236 q 261 1261 242 1261 q 292 1249 280 1261 q 304 1217 304 1236 q 292 1185 304 1197 q 261 1174 280 1174 m 511 1174 q 480 1185 492 1174 q 468 1217 468 1197 q 480 1249 468 1236 q 511 1261 492 1261 q 542 1249 530 1261 q 554 1217 554 1236 q 542 1185 554 1197 q 511 1174 530 1174 z "},"Ė":{"ha":657,"x_min":114,"x_max":633,"o":"m 161 46 l 633 46 l 633 0 l 114 0 l 114 1028 l 626 1028 l 626 982 l 161 982 l 161 551 l 564 551 l 564 506 l 161 506 l 161 46 m 386 1174 q 355 1185 367 1174 q 343 1217 343 1197 q 355 1249 343 1236 q 386 1261 367 1261 q 417 1249 405 1261 q 429 1217 429 1236 q 417 1185 429 1197 q 386 1174 405 1174 z "},"Ẹ":{"ha":657,"x_min":114,"x_max":633,"o":"m 161 46 l 633 46 l 633 0 l 114 0 l 114 1028 l 626 1028 l 626 982 l 161 982 l 161 551 l 564 551 l 564 506 l 161 506 l 161 46 m 386 -215 q 355 -203 367 -215 q 343 -172 343 -192 q 355 -140 343 -153 q 386 -128 367 -128 q 417 -140 405 -128 q 429 -172 429 -153 q 417 -203 429 -192 q 386 -215 405 -215 z "},"È":{"ha":657,"x_min":114,"x_max":633,"o":"m 161 46 l 633 46 l 633 0 l 114 0 l 114 1028 l 626 1028 l 626 982 l 161 982 l 161 551 l 564 551 l 564 506 l 161 506 l 161 46 m 367 1122 l 267 1311 l 317 1311 l 406 1122 l 367 1122 z "},"Ẻ":{"ha":657,"x_min":114,"x_max":633,"o":"m 161 46 l 633 46 l 633 0 l 114 0 l 114 1028 l 626 1028 l 626 982 l 161 982 l 161 551 l 564 551 l 564 506 l 161 506 l 161 46 m 365 1122 q 383 1165 367 1150 q 427 1193 399 1179 q 460 1213 449 1203 q 471 1238 471 1222 q 454 1264 471 1255 q 393 1274 437 1274 q 269 1247 328 1274 l 269 1286 q 327 1305 294 1298 q 393 1311 360 1311 q 482 1291 451 1311 q 513 1239 513 1271 q 498 1198 513 1212 q 455 1169 483 1184 q 420 1148 432 1158 q 407 1122 409 1138 l 365 1122 z "},"Ȇ":{"ha":657,"x_min":114,"x_max":633,"o":"m 161 46 l 633 46 l 633 0 l 114 0 l 114 1028 l 626 1028 l 626 982 l 161 982 l 161 551 l 564 551 l 564 506 l 161 506 l 161 46 m 218 1142 q 265 1263 223 1222 q 385 1303 308 1303 q 506 1262 462 1303 q 554 1142 549 1221 l 515 1142 q 477 1234 508 1206 q 385 1263 447 1263 q 292 1234 322 1263 q 257 1142 262 1206 l 218 1142 z "},"Ē":{"ha":657,"x_min":114,"x_max":633,"o":"m 161 46 l 633 46 l 633 0 l 114 0 l 114 1028 l 626 1028 l 626 982 l 161 982 l 161 551 l 564 551 l 564 506 l 161 506 l 161 46 m 219 1197 l 219 1238 l 553 1238 l 553 1197 l 219 1197 z "},"Ḗ":{"ha":657,"x_min":114,"x_max":633,"o":"m 161 46 l 633 46 l 633 0 l 114 0 l 114 1028 l 626 1028 l 626 982 l 161 982 l 161 551 l 564 551 l 564 506 l 161 506 l 161 46 m 367 1308 l 456 1469 l 506 1469 l 406 1308 l 367 1308 m 219 1197 l 219 1238 l 553 1238 l 553 1197 l 219 1197 z "},"Ḕ":{"ha":657,"x_min":114,"x_max":633,"o":"m 161 46 l 633 46 l 633 0 l 114 0 l 114 1028 l 626 1028 l 626 982 l 161 982 l 161 551 l 564 551 l 564 506 l 161 506 l 161 46 m 367 1308 l 267 1469 l 317 1469 l 406 1308 l 367 1308 m 219 1197 l 219 1238 l 553 1238 l 553 1197 l 219 1197 z "},"Ę":{"ha":657,"x_min":114,"x_max":656,"o":"m 553 -242 q 600 -235 576 -242 q 656 -214 624 -229 l 656 -251 q 554 -278 605 -278 q 452 -248 488 -278 q 417 -161 417 -218 q 440 -77 417 -116 q 512 0 463 -37 l 114 0 l 114 1028 l 626 1028 l 626 982 l 161 982 l 161 551 l 564 551 l 564 506 l 161 506 l 161 46 l 633 46 l 633 0 l 578 0 q 484 -78 512 -41 q 456 -158 456 -115 q 553 -242 456 -242 z "},"Ẽ":{"ha":657,"x_min":114,"x_max":633,"o":"m 161 46 l 633 46 l 633 0 l 114 0 l 114 1028 l 626 1028 l 626 982 l 161 982 l 161 551 l 564 551 l 564 506 l 161 506 l 161 46 m 475 1178 q 428 1185 451 1178 q 377 1207 406 1193 q 332 1226 349 1220 q 297 1232 315 1232 q 247 1220 269 1232 q 204 1182 224 1208 l 204 1228 q 244 1259 220 1248 q 297 1271 268 1271 q 344 1263 322 1271 q 395 1242 367 1256 q 440 1223 424 1228 q 475 1217 457 1217 q 526 1229 503 1217 q 568 1267 548 1241 l 568 1221 q 528 1189 552 1201 q 475 1178 504 1178 z "},"F":{"ha":632,"x_min":114,"x_max":619,"o":"m 619 982 l 161 982 l 161 551 l 557 551 l 557 506 l 161 506 l 161 0 l 114 0 l 114 1028 l 619 1028 l 619 982 z "},"G":{"ha":768,"x_min":68,"x_max":679,"o":"m 679 500 l 679 10 q 590 -3 629 1 q 508 -7 550 -7 q 263 43 360 -7 q 117 207 167 93 q 68 513 68 322 q 116 822 68 706 q 254 989 165 938 q 475 1040 344 1040 q 572 1033 522 1040 q 667 1013 622 1026 l 667 965 q 471 994 576 994 q 278 950 355 994 q 159 799 201 906 q 118 513 118 693 q 160 231 118 334 q 288 83 203 127 q 508 39 373 39 q 632 50 574 39 l 632 500 l 679 500 z "},"Ǵ":{"ha":768,"x_min":68,"x_max":679,"o":"m 679 500 l 679 10 q 590 -3 629 1 q 508 -7 550 -7 q 263 43 360 -7 q 117 207 167 93 q 68 513 68 322 q 116 822 68 706 q 254 989 165 938 q 475 1040 344 1040 q 572 1033 522 1040 q 667 1013 622 1026 l 667 965 q 471 994 576 994 q 278 950 355 994 q 159 799 201 906 q 118 513 118 693 q 160 231 118 334 q 288 83 203 127 q 508 39 373 39 q 632 50 574 39 l 632 500 l 679 500 m 410 1122 l 499 1311 l 549 1311 l 449 1122 l 410 1122 z "},"Ğ":{"ha":768,"x_min":68,"x_max":679,"o":"m 679 500 l 679 10 q 590 -3 629 1 q 508 -7 550 -7 q 263 43 360 -7 q 117 207 167 93 q 68 513 68 322 q 116 822 68 706 q 254 989 165 938 q 475 1040 344 1040 q 572 1033 522 1040 q 667 1013 622 1026 l 667 965 q 471 994 576 994 q 278 950 355 994 q 159 799 201 906 q 118 513 118 693 q 160 231 118 334 q 288 83 203 127 q 508 39 373 39 q 632 50 574 39 l 632 500 l 679 500 m 431 1131 q 310 1172 353 1131 q 261 1292 266 1213 l 300 1292 q 338 1199 308 1227 q 431 1171 368 1171 q 523 1199 493 1171 q 558 1292 553 1227 l 597 1292 q 550 1171 592 1211 q 431 1131 508 1131 z "},"Ǧ":{"ha":768,"x_min":68,"x_max":679,"o":"m 679 500 l 679 10 q 590 -3 629 1 q 508 -7 550 -7 q 263 43 360 -7 q 117 207 167 93 q 68 513 68 322 q 116 822 68 706 q 254 989 165 938 q 475 1040 344 1040 q 572 1033 522 1040 q 667 1013 622 1026 l 667 965 q 471 994 576 994 q 278 950 355 994 q 159 799 201 906 q 118 513 118 693 q 160 231 118 334 q 288 83 203 127 q 508 39 373 39 q 632 50 574 39 l 632 500 l 679 500 m 543 1311 l 592 1311 l 456 1122 l 403 1122 l 267 1311 l 315 1311 l 429 1151 l 543 1311 z "},"Ĝ":{"ha":768,"x_min":68,"x_max":679,"o":"m 679 500 l 679 10 q 590 -3 629 1 q 508 -7 550 -7 q 263 43 360 -7 q 117 207 167 93 q 68 513 68 322 q 116 822 68 706 q 254 989 165 938 q 475 1040 344 1040 q 572 1033 522 1040 q 667 1013 622 1026 l 667 965 q 471 994 576 994 q 278 950 355 994 q 159 799 201 906 q 118 513 118 693 q 160 231 118 334 q 288 83 203 127 q 508 39 373 39 q 632 50 574 39 l 632 500 l 679 500 m 592 1122 l 543 1122 l 429 1283 l 315 1122 l 267 1122 l 403 1311 l 456 1311 l 592 1122 z "},"Ģ":{"ha":768,"x_min":68,"x_max":679,"o":"m 679 500 l 679 10 q 590 -3 629 1 q 508 -7 550 -7 q 263 43 360 -7 q 117 207 167 93 q 68 513 68 322 q 116 822 68 706 q 254 989 165 938 q 475 1040 344 1040 q 572 1033 522 1040 q 667 1013 622 1026 l 667 965 q 471 994 576 994 q 278 950 355 994 q 159 799 201 906 q 118 513 118 693 q 160 231 118 334 q 288 83 203 127 q 508 39 373 39 q 632 50 574 39 l 632 500 l 679 500 m 426 -128 q 460 -143 448 -128 q 472 -187 472 -158 q 465 -247 472 -214 q 442 -311 457 -281 l 411 -311 q 434 -215 431 -262 l 429 -215 q 398 -203 410 -215 q 386 -171 386 -190 q 398 -140 386 -152 q 426 -128 409 -128 z "},"Ġ":{"ha":768,"x_min":68,"x_max":679,"o":"m 679 500 l 679 10 q 590 -3 629 1 q 508 -7 550 -7 q 263 43 360 -7 q 117 207 167 93 q 68 513 68 322 q 116 822 68 706 q 254 989 165 938 q 475 1040 344 1040 q 572 1033 522 1040 q 667 1013 622 1026 l 667 965 q 471 994 576 994 q 278 950 355 994 q 159 799 201 906 q 118 513 118 693 q 160 231 118 334 q 288 83 203 127 q 508 39 373 39 q 632 50 574 39 l 632 500 l 679 500 m 429 1174 q 398 1185 410 1174 q 386 1217 386 1197 q 398 1249 386 1236 q 429 1261 410 1261 q 460 1249 448 1261 q 472 1217 472 1236 q 460 1185 472 1197 q 429 1174 448 1174 z "},"Ḡ":{"ha":768,"x_min":68,"x_max":679,"o":"m 679 500 l 679 10 q 590 -3 629 1 q 508 -7 550 -7 q 263 43 360 -7 q 117 207 167 93 q 68 513 68 322 q 116 822 68 706 q 254 989 165 938 q 475 1040 344 1040 q 572 1033 522 1040 q 667 1013 622 1026 l 667 965 q 471 994 576 994 q 278 950 355 994 q 159 799 201 906 q 118 513 118 693 q 160 231 118 334 q 288 83 203 127 q 508 39 373 39 q 632 50 574 39 l 632 500 l 679 500 m 263 1197 l 263 1238 l 596 1238 l 596 1197 l 263 1197 z "},"H":{"ha":847,"x_min":114,"x_max":733,"o":"m 114 0 l 114 1028 l 161 1028 l 161 551 l 686 551 l 686 1028 l 733 1028 l 733 0 l 686 0 l 686 506 l 161 506 l 161 0 l 114 0 z "},"Ħ":{"ha":847,"x_min":-3,"x_max":850,"o":"m 850 813 l 850 771 l 733 771 l 733 0 l 686 0 l 686 506 l 161 506 l 161 0 l 114 0 l 114 771 l -3 771 l -3 813 l 114 813 l 114 1028 l 161 1028 l 161 813 l 686 813 l 686 1028 l 733 1028 l 733 813 l 850 813 m 686 551 l 686 771 l 161 771 l 161 551 l 686 551 z "},"Ḫ":{"ha":847,"x_min":114,"x_max":733,"o":"m 114 0 l 114 1028 l 161 1028 l 161 551 l 686 551 l 686 1028 l 733 1028 l 733 0 l 686 0 l 686 506 l 161 506 l 161 0 l 114 0 m 425 -278 q 301 -235 346 -278 q 256 -111 256 -192 l 294 -111 q 330 -207 297 -176 q 425 -237 363 -237 q 520 -206 488 -237 q 553 -111 552 -175 l 592 -111 q 548 -235 591 -192 q 425 -278 504 -278 z "},"Ĥ":{"ha":847,"x_min":114,"x_max":733,"o":"m 114 0 l 114 1028 l 161 1028 l 161 551 l 686 551 l 686 1028 l 733 1028 l 733 0 l 686 0 l 686 506 l 161 506 l 161 0 l 114 0 m 586 1122 l 538 1122 l 424 1283 l 310 1122 l 261 1122 l 397 1311 l 450 1311 l 586 1122 z "},"Ḥ":{"ha":847,"x_min":114,"x_max":733,"o":"m 114 0 l 114 1028 l 161 1028 l 161 551 l 686 551 l 686 1028 l 733 1028 l 733 0 l 686 0 l 686 506 l 161 506 l 161 0 l 114 0 m 424 -215 q 393 -203 405 -215 q 381 -172 381 -192 q 393 -140 381 -153 q 424 -128 405 -128 q 455 -140 442 -128 q 467 -172 467 -153 q 455 -203 467 -192 q 424 -215 442 -215 z "},"I":{"ha":275,"x_min":114,"x_max":161,"o":"m 114 0 l 114 1028 l 161 1028 l 161 0 l 114 0 z "},"Í":{"ha":275,"x_min":114,"x_max":257,"o":"m 114 0 l 114 1028 l 161 1028 l 161 0 l 114 0 m 118 1122 l 207 1311 l 257 1311 l 157 1122 l 118 1122 z "},"Ĭ":{"ha":275,"x_min":-31,"x_max":306,"o":"m 114 0 l 114 1028 l 161 1028 l 161 0 l 114 0 m 139 1131 q 18 1172 62 1131 q -31 1292 -26 1213 l 8 1292 q 46 1199 16 1227 q 139 1171 76 1171 q 232 1199 201 1171 q 267 1292 262 1227 l 306 1292 q 258 1171 301 1211 q 139 1131 216 1131 z "},"Î":{"ha":275,"x_min":-25,"x_max":300,"o":"m 114 0 l 114 1028 l 161 1028 l 161 0 l 114 0 m 300 1122 l 251 1122 l 138 1283 l 24 1122 l -25 1122 l 111 1311 l 164 1311 l 300 1122 z "},"Ȉ":{"ha":275,"x_min":-36,"x_max":244,"o":"m 114 0 l 114 1028 l 161 1028 l 161 0 l 114 0 m 31 1122 l -36 1311 l 8 1311 l 68 1122 l 31 1122 m 207 1122 l 140 1311 l 185 1311 l 244 1122 l 207 1122 z "},"Ï":{"ha":275,"x_min":-31,"x_max":306,"o":"m 114 0 l 114 1028 l 161 1028 l 161 0 l 114 0 m 13 1174 q -18 1185 -6 1174 q -31 1217 -31 1197 q -18 1249 -31 1236 q 13 1261 -6 1261 q 43 1249 31 1261 q 56 1217 56 1236 q 43 1185 56 1197 q 13 1174 31 1174 m 263 1174 q 232 1185 244 1174 q 219 1217 219 1197 q 232 1249 219 1236 q 263 1261 244 1261 q 293 1249 281 1261 q 306 1217 306 1236 q 293 1185 306 1197 q 263 1174 281 1174 z "},"Ḯ":{"ha":275,"x_min":-31,"x_max":306,"o":"m 114 0 l 114 1028 l 161 1028 l 161 0 l 114 0 m 118 1308 l 207 1469 l 257 1469 l 157 1308 l 118 1308 m 13 1174 q -18 1185 -6 1174 q -31 1217 -31 1197 q -18 1249 -31 1236 q 13 1261 -6 1261 q 43 1249 31 1261 q 56 1217 56 1236 q 43 1185 56 1197 q 13 1174 31 1174 m 263 1174 q 232 1185 244 1174 q 219 1217 219 1197 q 232 1249 219 1236 q 263 1261 244 1261 q 293 1249 281 1261 q 306 1217 306 1236 q 293 1185 306 1197 q 263 1174 281 1174 z "},"İ":{"ha":275,"x_min":94,"x_max":181,"o":"m 114 0 l 114 1028 l 161 1028 l 161 0 l 114 0 m 138 1174 q 107 1185 119 1174 q 94 1217 94 1197 q 107 1249 94 1236 q 138 1261 119 1261 q 168 1249 156 1261 q 181 1217 181 1236 q 168 1185 181 1197 q 138 1174 156 1174 z "},"Ị":{"ha":275,"x_min":94,"x_max":181,"o":"m 114 0 l 114 1028 l 161 1028 l 161 0 l 114 0 m 138 -215 q 107 -203 119 -215 q 94 -172 94 -192 q 107 -140 94 -153 q 138 -128 119 -128 q 168 -140 156 -128 q 181 -172 181 -153 q 168 -203 181 -192 q 138 -215 156 -215 z "},"Ì":{"ha":275,"x_min":18,"x_max":161,"o":"m 114 0 l 114 1028 l 161 1028 l 161 0 l 114 0 m 118 1122 l 18 1311 l 68 1311 l 157 1122 l 118 1122 z "},"Ỉ":{"ha":275,"x_min":21,"x_max":264,"o":"m 114 0 l 114 1028 l 161 1028 l 161 0 l 114 0 m 117 1122 q 134 1165 118 1150 q 178 1193 150 1179 q 211 1213 201 1203 q 222 1238 222 1222 q 205 1264 222 1255 q 144 1274 188 1274 q 21 1247 80 1274 l 21 1286 q 78 1305 45 1298 q 144 1311 111 1311 q 233 1291 203 1311 q 264 1239 264 1271 q 249 1198 264 1212 q 206 1169 235 1184 q 172 1148 183 1158 q 158 1122 160 1138 l 117 1122 z "},"Ȋ":{"ha":275,"x_min":-31,"x_max":306,"o":"m 114 0 l 114 1028 l 161 1028 l 161 0 l 114 0 m -31 1142 q 17 1263 -26 1222 q 136 1303 59 1303 q 257 1262 213 1303 q 306 1142 301 1221 l 267 1142 q 229 1234 259 1206 q 136 1263 199 1263 q 43 1234 74 1263 q 8 1142 13 1206 l -31 1142 z "},"Ī":{"ha":275,"x_min":-29,"x_max":304,"o":"m 114 0 l 114 1028 l 161 1028 l 161 0 l 114 0 m -29 1197 l -29 1238 l 304 1238 l 304 1197 l -29 1197 z "},"Į":{"ha":275,"x_min":0,"x_max":239,"o":"m 136 -242 q 183 -235 159 -242 q 239 -214 208 -229 l 239 -251 q 138 -278 188 -278 q 36 -248 72 -278 q 0 -161 0 -218 q 27 -69 0 -112 q 114 14 55 -27 l 114 1028 l 161 1028 l 161 0 q 67 -78 95 -41 q 39 -158 39 -115 q 136 -242 39 -242 z "},"Ĩ":{"ha":275,"x_min":-44,"x_max":319,"o":"m 114 0 l 114 1028 l 161 1028 l 161 0 l 114 0 m 226 1178 q 180 1185 202 1178 q 128 1207 157 1193 q 83 1226 100 1220 q 49 1232 67 1232 q -2 1220 20 1232 q -44 1182 -24 1208 l -44 1228 q -5 1259 -28 1248 q 49 1271 19 1271 q 95 1263 73 1271 q 147 1242 118 1256 q 192 1223 175 1228 q 226 1217 208 1217 q 277 1229 255 1217 q 319 1267 299 1241 l 319 1221 q 280 1189 303 1201 q 226 1178 256 1178 z "},"J":{"ha":275,"x_min":-4,"x_max":161,"o":"m -4 -212 q 64 -84 39 -144 q 102 44 90 -23 q 114 199 114 112 l 114 1028 l 161 1028 l 161 178 q 128 -37 157 56 q 31 -236 99 -130 l -4 -212 z "},"Ĵ":{"ha":275,"x_min":-25,"x_max":300,"o":"m -4 -212 q 64 -84 39 -144 q 102 44 90 -23 q 114 199 114 112 l 114 1028 l 161 1028 l 161 178 q 128 -37 157 56 q 31 -236 99 -130 l -4 -212 m 300 1122 l 251 1122 l 138 1283 l 24 1122 l -25 1122 l 111 1311 l 164 1311 l 300 1122 z "},"K":{"ha":722,"x_min":114,"x_max":749,"o":"m 692 0 l 296 506 l 161 506 l 161 0 l 114 0 l 114 1028 l 161 1028 l 161 550 l 297 550 l 664 1028 l 719 1028 l 334 529 l 749 0 l 692 0 z "},"Ķ":{"ha":722,"x_min":114,"x_max":749,"o":"m 692 0 l 296 506 l 161 506 l 161 0 l 114 0 l 114 1028 l 161 1028 l 161 550 l 297 550 l 664 1028 l 719 1028 l 334 529 l 749 0 l 692 0 m 383 -128 q 417 -143 405 -128 q 429 -187 429 -158 q 422 -247 429 -214 q 399 -311 414 -281 l 368 -311 q 391 -215 388 -262 l 386 -215 q 355 -203 367 -215 q 343 -171 343 -190 q 355 -140 343 -152 q 383 -128 366 -128 z "},"L":{"ha":618,"x_min":114,"x_max":615,"o":"m 114 0 l 114 1028 l 161 1028 l 161 46 l 615 46 l 615 0 l 114 0 z "},"Ǉ":{"ha":893,"x_min":114,"x_max":779,"o":"m 114 0 l 114 1028 l 161 1028 l 161 46 l 615 46 l 615 0 l 114 0 m 614 -212 q 682 -84 657 -144 q 720 44 708 -23 q 732 199 732 112 l 732 1028 l 779 1028 l 779 178 q 746 -37 775 56 q 649 -236 717 -130 l 614 -212 z "},"Ĺ":{"ha":618,"x_min":114,"x_max":615,"o":"m 114 0 l 114 1028 l 161 1028 l 161 46 l 615 46 l 615 0 l 114 0 m 118 1122 l 207 1311 l 257 1311 l 157 1122 l 118 1122 z "},"Ľ":{"ha":618,"x_min":114,"x_max":615,"o":"m 114 0 l 114 1028 l 161 1028 l 161 46 l 615 46 l 615 0 l 114 0 m 389 792 q 399 938 397 858 q 401 1122 401 1018 l 446 1122 q 421 792 446 919 l 389 792 z "},"Ļ":{"ha":618,"x_min":114,"x_max":615,"o":"m 114 0 l 114 1028 l 161 1028 l 161 46 l 615 46 l 615 0 l 114 0 m 363 -128 q 396 -143 384 -128 q 408 -187 408 -158 q 401 -247 408 -214 q 378 -311 393 -281 l 347 -311 q 370 -215 367 -262 l 365 -215 q 334 -203 347 -215 q 322 -171 322 -190 q 334 -140 322 -152 q 363 -128 345 -128 z "},"Ŀ":{"ha":618,"x_min":114,"x_max":615,"o":"m 114 0 l 114 1028 l 161 1028 l 161 46 l 615 46 l 615 0 l 114 0 m 444 493 q 414 505 426 493 q 401 536 401 517 q 414 568 401 556 q 444 581 426 581 q 475 568 463 581 q 488 536 488 556 q 475 505 488 517 q 444 493 463 493 z "},"Ḷ":{"ha":618,"x_min":114,"x_max":615,"o":"m 114 0 l 114 1028 l 161 1028 l 161 46 l 615 46 l 615 0 l 114 0 m 365 -215 q 334 -203 347 -215 q 322 -172 322 -192 q 334 -140 322 -153 q 365 -128 347 -128 q 396 -140 384 -128 q 408 -172 408 -153 q 396 -203 408 -192 q 365 -215 384 -215 z "},"ǈ":{"ha":865,"x_min":114,"x_max":785,"o":"m 114 0 l 114 1028 l 161 1028 l 161 46 l 615 46 l 615 0 l 114 0 m 600 -296 q 668 -167 643 -228 q 706 -39 694 -106 q 718 115 718 28 l 718 750 l 765 750 l 765 122 q 752 -44 765 28 q 710 -181 738 -117 q 635 -319 682 -245 l 600 -296 m 742 944 q 711 956 723 944 q 699 988 699 968 q 711 1019 699 1007 q 742 1032 723 1032 q 773 1019 760 1032 q 785 988 785 1007 q 773 956 785 968 q 742 944 760 944 z "},"Ḻ":{"ha":618,"x_min":114,"x_max":615,"o":"m 114 0 l 114 1028 l 161 1028 l 161 46 l 615 46 l 615 0 l 114 0 m 199 -192 l 199 -151 l 532 -151 l 532 -192 l 199 -192 z "},"Ł":{"ha":618,"x_min":-3,"x_max":615,"o":"m 161 46 l 615 46 l 615 0 l 114 0 l 114 483 l 25 394 l -3 424 l 114 540 l 114 1028 l 161 1028 l 161 587 l 325 750 l 353 721 l 161 530 l 161 46 z "},"M":{"ha":1053,"x_min":117,"x_max":936,"o":"m 883 1028 l 936 1028 l 936 0 l 890 0 l 890 931 l 553 139 l 500 139 l 163 928 l 163 0 l 117 0 l 117 1028 l 169 1028 l 528 188 l 883 1028 z "},"Ṃ":{"ha":1053,"x_min":117,"x_max":936,"o":"m 883 1028 l 936 1028 l 936 0 l 890 0 l 890 931 l 553 139 l 500 139 l 163 928 l 163 0 l 117 0 l 117 1028 l 169 1028 l 528 188 l 883 1028 m 526 -215 q 495 -203 508 -215 q 483 -172 483 -192 q 495 -140 483 -153 q 526 -128 508 -128 q 557 -140 545 -128 q 569 -172 569 -153 q 557 -203 569 -192 q 526 -215 545 -215 z "},"N":{"ha":867,"x_min":114,"x_max":753,"o":"m 707 1028 l 753 1028 l 753 0 l 700 0 l 160 947 l 160 0 l 114 0 l 114 1028 l 167 1028 l 707 81 l 707 1028 z "},"Ǌ":{"ha":1142,"x_min":114,"x_max":1028,"o":"m 707 1028 l 753 1028 l 753 0 l 700 0 l 160 947 l 160 0 l 114 0 l 114 1028 l 167 1028 l 707 81 l 707 1028 m 863 -212 q 931 -84 906 -144 q 968 44 956 -23 q 981 199 981 112 l 981 1028 l 1028 1028 l 1028 178 q 994 -37 1024 56 q 897 -236 965 -130 l 863 -212 z "},"Ń":{"ha":867,"x_min":114,"x_max":753,"o":"m 707 1028 l 753 1028 l 753 0 l 700 0 l 160 947 l 160 0 l 114 0 l 114 1028 l 167 1028 l 707 81 l 707 1028 m 414 1122 l 503 1311 l 553 1311 l 453 1122 l 414 1122 z "},"Ň":{"ha":867,"x_min":114,"x_max":753,"o":"m 707 1028 l 753 1028 l 753 0 l 700 0 l 160 947 l 160 0 l 114 0 l 114 1028 l 167 1028 l 707 81 l 707 1028 m 547 1311 l 596 1311 l 460 1122 l 407 1122 l 271 1311 l 319 1311 l 433 1151 l 547 1311 z "},"Ņ":{"ha":867,"x_min":114,"x_max":753,"o":"m 707 1028 l 753 1028 l 753 0 l 700 0 l 160 947 l 160 0 l 114 0 l 114 1028 l 167 1028 l 707 81 l 707 1028 m 431 -128 q 464 -143 452 -128 q 476 -187 476 -158 q 469 -247 476 -214 q 446 -311 461 -281 l 415 -311 q 438 -215 435 -262 l 433 -215 q 402 -203 415 -215 q 390 -171 390 -190 q 402 -140 390 -152 q 431 -128 413 -128 z "},"Ṅ":{"ha":867,"x_min":114,"x_max":753,"o":"m 707 1028 l 753 1028 l 753 0 l 700 0 l 160 947 l 160 0 l 114 0 l 114 1028 l 167 1028 l 707 81 l 707 1028 m 433 1174 q 402 1185 415 1174 q 390 1217 390 1197 q 402 1249 390 1236 q 433 1261 415 1261 q 464 1249 452 1261 q 476 1217 476 1236 q 464 1185 476 1197 q 433 1174 452 1174 z "},"Ṇ":{"ha":867,"x_min":114,"x_max":753,"o":"m 707 1028 l 753 1028 l 753 0 l 700 0 l 160 947 l 160 0 l 114 0 l 114 1028 l 167 1028 l 707 81 l 707 1028 m 433 -215 q 402 -203 415 -215 q 390 -172 390 -192 q 402 -140 390 -153 q 433 -128 415 -128 q 464 -140 452 -128 q 476 -172 476 -153 q 464 -203 476 -192 q 433 -215 452 -215 z "},"Ŋ":{"ha":867,"x_min":114,"x_max":753,"o":"m 753 1028 l 753 122 q 739 -44 753 28 q 698 -181 726 -117 q 622 -319 669 -245 l 588 -296 q 664 -149 637 -218 q 700 -1 690 -81 l 160 947 l 160 0 l 114 0 l 114 1028 l 167 1028 l 706 81 q 707 115 707 92 l 707 1028 l 753 1028 z "},"ǋ":{"ha":1114,"x_min":114,"x_max":1033,"o":"m 707 1028 l 753 1028 l 753 0 l 700 0 l 160 947 l 160 0 l 114 0 l 114 1028 l 167 1028 l 707 81 l 707 1028 m 849 -296 q 917 -167 892 -228 q 955 -39 942 -106 q 967 115 967 28 l 967 750 l 1014 750 l 1014 122 q 1000 -44 1014 28 q 959 -181 987 -117 q 883 -319 931 -245 l 849 -296 m 990 944 q 959 956 972 944 q 947 988 947 968 q 959 1019 947 1007 q 990 1032 972 1032 q 1021 1019 1009 1032 q 1033 988 1033 1007 q 1021 956 1033 968 q 990 944 1009 944 z "},"Ṉ":{"ha":867,"x_min":114,"x_max":753,"o":"m 707 1028 l 753 1028 l 753 0 l 700 0 l 160 947 l 160 0 l 114 0 l 114 1028 l 167 1028 l 707 81 l 707 1028 m 267 -192 l 267 -151 l 600 -151 l 600 -192 l 267 -192 z "},"Ñ":{"ha":867,"x_min":114,"x_max":753,"o":"m 707 1028 l 753 1028 l 753 0 l 700 0 l 160 947 l 160 0 l 114 0 l 114 1028 l 167 1028 l 707 81 l 707 1028 m 522 1178 q 475 1185 498 1178 q 424 1207 453 1193 q 379 1226 396 1220 q 344 1232 363 1232 q 294 1220 316 1232 q 251 1182 272 1208 l 251 1228 q 291 1259 267 1248 q 344 1271 315 1271 q 391 1263 369 1271 q 442 1242 414 1256 q 488 1223 471 1228 q 522 1217 504 1217 q 573 1229 551 1217 q 615 1267 595 1241 l 615 1221 q 575 1189 599 1201 q 522 1178 551 1178 z "},"O":{"ha":808,"x_min":68,"x_max":740,"o":"m 404 -12 q 155 111 242 -12 q 68 514 68 235 q 155 916 68 792 q 404 1040 242 1040 q 653 916 567 1040 q 740 514 740 792 q 653 111 740 235 q 404 -12 567 -12 m 404 33 q 558 78 495 33 q 656 227 621 122 q 690 511 690 333 q 656 799 690 692 q 558 950 621 906 q 404 994 495 994 q 250 950 313 994 q 153 800 188 906 q 118 517 118 695 q 153 229 118 336 q 250 78 188 122 q 404 33 313 33 z "},"Ó":{"ha":808,"x_min":68,"x_max":740,"o":"m 404 -12 q 155 111 242 -12 q 68 514 68 235 q 155 916 68 792 q 404 1040 242 1040 q 653 916 567 1040 q 740 514 740 792 q 653 111 740 235 q 404 -12 567 -12 m 404 33 q 558 78 495 33 q 656 227 621 122 q 690 511 690 333 q 656 799 690 692 q 558 950 621 906 q 404 994 495 994 q 250 950 313 994 q 153 800 188 906 q 118 517 118 695 q 153 229 118 336 q 250 78 188 122 q 404 33 313 33 m 385 1122 l 474 1311 l 524 1311 l 424 1122 l 385 1122 z "},"Ŏ":{"ha":808,"x_min":68,"x_max":740,"o":"m 404 -12 q 155 111 242 -12 q 68 514 68 235 q 155 916 68 792 q 404 1040 242 1040 q 653 916 567 1040 q 740 514 740 792 q 653 111 740 235 q 404 -12 567 -12 m 404 33 q 558 78 495 33 q 656 227 621 122 q 690 511 690 333 q 656 799 690 692 q 558 950 621 906 q 404 994 495 994 q 250 950 313 994 q 153 800 188 906 q 118 517 118 695 q 153 229 118 336 q 250 78 188 122 q 404 33 313 33 m 406 1131 q 285 1172 328 1131 q 236 1292 241 1213 l 275 1292 q 313 1199 283 1227 q 406 1171 343 1171 q 498 1199 468 1171 q 533 1292 528 1227 l 572 1292 q 525 1171 567 1211 q 406 1131 483 1131 z "},"Ô":{"ha":808,"x_min":68,"x_max":740,"o":"m 404 -12 q 155 111 242 -12 q 68 514 68 235 q 155 916 68 792 q 404 1040 242 1040 q 653 916 567 1040 q 740 514 740 792 q 653 111 740 235 q 404 -12 567 -12 m 404 33 q 558 78 495 33 q 656 227 621 122 q 690 511 690 333 q 656 799 690 692 q 558 950 621 906 q 404 994 495 994 q 250 950 313 994 q 153 800 188 906 q 118 517 118 695 q 153 229 118 336 q 250 78 188 122 q 404 33 313 33 m 567 1122 l 518 1122 l 404 1283 l 290 1122 l 242 1122 l 378 1311 l 431 1311 l 567 1122 z "},"Ố":{"ha":808,"x_min":68,"x_max":740,"o":"m 404 -12 q 155 111 242 -12 q 68 514 68 235 q 155 916 68 792 q 404 1040 242 1040 q 653 916 567 1040 q 740 514 740 792 q 653 111 740 235 q 404 -12 567 -12 m 404 33 q 558 78 495 33 q 656 227 621 122 q 690 511 690 333 q 656 799 690 692 q 558 950 621 906 q 404 994 495 994 q 250 950 313 994 q 153 800 188 906 q 118 517 118 695 q 153 229 118 336 q 250 78 188 122 q 404 33 313 33 m 617 1433 l 667 1433 l 567 1244 l 528 1244 l 617 1433 m 378 1311 l 431 1311 l 567 1122 l 518 1122 l 404 1283 l 290 1122 l 242 1122 l 378 1311 z "},"Ộ":{"ha":808,"x_min":68,"x_max":740,"o":"m 404 -12 q 155 111 242 -12 q 68 514 68 235 q 155 916 68 792 q 404 1040 242 1040 q 653 916 567 1040 q 740 514 740 792 q 653 111 740 235 q 404 -12 567 -12 m 404 33 q 558 78 495 33 q 656 227 621 122 q 690 511 690 333 q 656 799 690 692 q 558 950 621 906 q 404 994 495 994 q 250 950 313 994 q 153 800 188 906 q 118 517 118 695 q 153 229 118 336 q 250 78 188 122 q 404 33 313 33 m 404 -215 q 373 -203 385 -215 q 361 -172 361 -192 q 373 -140 361 -153 q 404 -128 385 -128 q 435 -140 423 -128 q 447 -172 447 -153 q 435 -203 447 -192 q 404 -215 423 -215 m 567 1122 l 518 1122 l 404 1283 l 290 1122 l 242 1122 l 378 1311 l 431 1311 l 567 1122 z "},"Ồ":{"ha":808,"x_min":68,"x_max":740,"o":"m 404 -12 q 155 111 242 -12 q 68 514 68 235 q 155 916 68 792 q 404 1040 242 1040 q 653 916 567 1040 q 740 514 740 792 q 653 111 740 235 q 404 -12 567 -12 m 404 33 q 558 78 495 33 q 656 227 621 122 q 690 511 690 333 q 656 799 690 692 q 558 950 621 906 q 404 994 495 994 q 250 950 313 994 q 153 800 188 906 q 118 517 118 695 q 153 229 118 336 q 250 78 188 122 q 404 33 313 33 m 581 1244 l 542 1244 l 442 1433 l 492 1433 l 581 1244 m 378 1311 l 431 1311 l 567 1122 l 518 1122 l 404 1283 l 290 1122 l 242 1122 l 378 1311 z "},"Ổ":{"ha":808,"x_min":68,"x_max":740,"o":"m 404 -12 q 155 111 242 -12 q 68 514 68 235 q 155 916 68 792 q 404 1040 242 1040 q 653 916 567 1040 q 740 514 740 792 q 653 111 740 235 q 404 -12 567 -12 m 404 33 q 558 78 495 33 q 656 227 621 122 q 690 511 690 333 q 656 799 690 692 q 558 950 621 906 q 404 994 495 994 q 250 950 313 994 q 153 800 188 906 q 118 517 118 695 q 153 229 118 336 q 250 78 188 122 q 404 33 313 33 m 554 1433 q 643 1413 613 1433 q 674 1361 674 1393 q 659 1320 674 1334 q 616 1292 644 1306 q 582 1270 593 1281 q 568 1244 570 1260 l 526 1244 q 544 1287 528 1272 q 588 1315 560 1301 q 621 1335 610 1326 q 632 1360 632 1344 q 615 1386 632 1377 q 554 1396 598 1396 q 431 1369 490 1396 l 431 1408 q 488 1427 455 1420 q 554 1433 521 1433 m 378 1311 l 431 1311 l 567 1122 l 518 1122 l 404 1283 l 290 1122 l 242 1122 l 378 1311 z "},"Ỗ":{"ha":808,"x_min":68,"x_max":740,"o":"m 404 -12 q 155 111 242 -12 q 68 514 68 235 q 155 916 68 792 q 404 1040 242 1040 q 653 916 567 1040 q 740 514 740 792 q 653 111 740 235 q 404 -12 567 -12 m 404 33 q 558 78 495 33 q 656 227 621 122 q 690 511 690 333 q 656 799 690 692 q 558 950 621 906 q 404 994 495 994 q 250 950 313 994 q 153 800 188 906 q 118 517 118 695 q 153 229 118 336 q 250 78 188 122 q 404 33 313 33 m 481 1382 q 527 1394 506 1382 q 567 1432 547 1406 l 567 1386 q 530 1355 552 1366 q 481 1343 507 1343 q 441 1351 460 1343 q 395 1373 422 1358 q 357 1391 372 1385 q 328 1397 342 1397 q 282 1385 302 1397 q 242 1347 261 1373 l 242 1393 q 279 1425 256 1413 q 328 1436 301 1436 q 368 1428 349 1436 q 413 1406 387 1421 q 451 1388 437 1394 q 481 1382 466 1382 m 378 1311 l 431 1311 l 567 1122 l 518 1122 l 404 1283 l 290 1122 l 242 1122 l 378 1311 z "},"Ȍ":{"ha":808,"x_min":68,"x_max":740,"o":"m 404 -12 q 155 111 242 -12 q 68 514 68 235 q 155 916 68 792 q 404 1040 242 1040 q 653 916 567 1040 q 740 514 740 792 q 653 111 740 235 q 404 -12 567 -12 m 404 33 q 558 78 495 33 q 656 227 621 122 q 690 511 690 333 q 656 799 690 692 q 558 950 621 906 q 404 994 495 994 q 250 950 313 994 q 153 800 188 906 q 118 517 118 695 q 153 229 118 336 q 250 78 188 122 q 404 33 313 33 m 297 1122 l 231 1311 l 275 1311 l 335 1122 l 297 1122 m 474 1122 l 407 1311 l 451 1311 l 511 1122 l 474 1122 z "},"Ö":{"ha":808,"x_min":68,"x_max":740,"o":"m 404 -12 q 155 111 242 -12 q 68 514 68 235 q 155 916 68 792 q 404 1040 242 1040 q 653 916 567 1040 q 740 514 740 792 q 653 111 740 235 q 404 -12 567 -12 m 404 33 q 558 78 495 33 q 656 227 621 122 q 690 511 690 333 q 656 799 690 692 q 558 950 621 906 q 404 994 495 994 q 250 950 313 994 q 153 800 188 906 q 118 517 118 695 q 153 229 118 336 q 250 78 188 122 q 404 33 313 33 m 279 1174 q 248 1185 260 1174 q 236 1217 236 1197 q 248 1249 236 1236 q 279 1261 260 1261 q 310 1249 298 1261 q 322 1217 322 1236 q 310 1185 322 1197 q 279 1174 298 1174 m 529 1174 q 498 1185 510 1174 q 486 1217 486 1197 q 498 1249 486 1236 q 529 1261 510 1261 q 560 1249 548 1261 q 572 1217 572 1236 q 560 1185 572 1197 q 529 1174 548 1174 z "},"Ȫ":{"ha":808,"x_min":68,"x_max":740,"o":"m 404 -12 q 155 111 242 -12 q 68 514 68 235 q 155 916 68 792 q 404 1040 242 1040 q 653 916 567 1040 q 740 514 740 792 q 653 111 740 235 q 404 -12 567 -12 m 404 33 q 558 78 495 33 q 656 227 621 122 q 690 511 690 333 q 656 799 690 692 q 558 950 621 906 q 404 994 495 994 q 250 950 313 994 q 153 800 188 906 q 118 517 118 695 q 153 229 118 336 q 250 78 188 122 q 404 33 313 33 m 279 1174 q 248 1185 260 1174 q 236 1217 236 1197 q 248 1249 236 1236 q 279 1261 260 1261 q 310 1249 298 1261 q 322 1217 322 1236 q 310 1185 322 1197 q 279 1174 298 1174 m 529 1174 q 498 1185 510 1174 q 486 1217 486 1197 q 498 1249 486 1236 q 529 1261 510 1261 q 560 1249 548 1261 q 572 1217 572 1236 q 560 1185 572 1197 q 529 1174 548 1174 m 238 1356 l 238 1396 l 571 1396 l 571 1356 l 238 1356 z "},"Ȱ":{"ha":808,"x_min":68,"x_max":740,"o":"m 404 -12 q 155 111 242 -12 q 68 514 68 235 q 155 916 68 792 q 404 1040 242 1040 q 653 916 567 1040 q 740 514 740 792 q 653 111 740 235 q 404 -12 567 -12 m 404 33 q 558 78 495 33 q 656 227 621 122 q 690 511 690 333 q 656 799 690 692 q 558 950 621 906 q 404 994 495 994 q 250 950 313 994 q 153 800 188 906 q 118 517 118 695 q 153 229 118 336 q 250 78 188 122 q 404 33 313 33 m 404 1174 q 373 1185 385 1174 q 361 1217 361 1197 q 373 1249 361 1236 q 404 1261 385 1261 q 435 1249 423 1261 q 447 1217 447 1236 q 435 1185 447 1197 q 404 1174 423 1174 m 238 1356 l 238 1396 l 571 1396 l 571 1356 l 238 1356 z "},"Ọ":{"ha":808,"x_min":68,"x_max":740,"o":"m 404 -12 q 155 111 242 -12 q 68 514 68 235 q 155 916 68 792 q 404 1040 242 1040 q 653 916 567 1040 q 740 514 740 792 q 653 111 740 235 q 404 -12 567 -12 m 404 33 q 558 78 495 33 q 656 227 621 122 q 690 511 690 333 q 656 799 690 692 q 558 950 621 906 q 404 994 495 994 q 250 950 313 994 q 153 800 188 906 q 118 517 118 695 q 153 229 118 336 q 250 78 188 122 q 404 33 313 33 m 404 -215 q 373 -203 385 -215 q 361 -172 361 -192 q 373 -140 361 -153 q 404 -128 385 -128 q 435 -140 423 -128 q 447 -172 447 -153 q 435 -203 447 -192 q 404 -215 423 -215 z "},"Ò":{"ha":808,"x_min":68,"x_max":740,"o":"m 404 -12 q 155 111 242 -12 q 68 514 68 235 q 155 916 68 792 q 404 1040 242 1040 q 653 916 567 1040 q 740 514 740 792 q 653 111 740 235 q 404 -12 567 -12 m 404 33 q 558 78 495 33 q 656 227 621 122 q 690 511 690 333 q 656 799 690 692 q 558 950 621 906 q 404 994 495 994 q 250 950 313 994 q 153 800 188 906 q 118 517 118 695 q 153 229 118 336 q 250 78 188 122 q 404 33 313 33 m 385 1122 l 285 1311 l 335 1311 l 424 1122 l 385 1122 z "},"Ỏ":{"ha":808,"x_min":68,"x_max":740,"o":"m 404 -12 q 155 111 242 -12 q 68 514 68 235 q 155 916 68 792 q 404 1040 242 1040 q 653 916 567 1040 q 740 514 740 792 q 653 111 740 235 q 404 -12 567 -12 m 404 33 q 558 78 495 33 q 656 227 621 122 q 690 511 690 333 q 656 799 690 692 q 558 950 621 906 q 404 994 495 994 q 250 950 313 994 q 153 800 188 906 q 118 517 118 695 q 153 229 118 336 q 250 78 188 122 q 404 33 313 33 m 383 1122 q 401 1165 385 1150 q 445 1193 417 1179 q 478 1213 467 1203 q 489 1238 489 1222 q 472 1264 489 1255 q 411 1274 455 1274 q 288 1247 347 1274 l 288 1286 q 345 1305 312 1298 q 411 1311 378 1311 q 500 1291 469 1311 q 531 1239 531 1271 q 516 1198 531 1212 q 473 1169 501 1184 q 439 1148 450 1158 q 425 1122 427 1138 l 383 1122 z "},"Ơ":{"ha":808,"x_min":68,"x_max":740,"o":"m 595 980 q 740 514 740 867 q 653 112 740 236 q 404 -12 565 -12 q 156 112 243 -12 q 68 514 68 236 q 155 916 68 792 q 404 1040 242 1040 q 501 1032 447 1040 q 571 1025 547 1025 q 660 1052 626 1025 q 694 1135 694 1080 q 690 1184 694 1162 q 678 1233 686 1206 l 724 1233 q 736 1186 733 1208 q 740 1133 740 1163 q 700 1025 740 1066 q 595 980 660 985 m 404 33 q 558 78 495 33 q 656 227 621 122 q 690 511 690 333 q 656 799 690 692 q 558 950 621 906 q 404 994 495 994 q 250 950 313 994 q 153 800 188 906 q 118 517 118 695 q 153 229 118 336 q 250 78 188 122 q 404 33 313 33 z "},"Ớ":{"ha":808,"x_min":68,"x_max":740,"o":"m 595 980 q 740 514 740 867 q 653 112 740 236 q 404 -12 565 -12 q 156 112 243 -12 q 68 514 68 236 q 155 916 68 792 q 404 1040 242 1040 q 501 1032 447 1040 q 571 1025 547 1025 q 660 1052 626 1025 q 694 1135 694 1080 q 690 1184 694 1162 q 678 1233 686 1206 l 724 1233 q 736 1186 733 1208 q 740 1133 740 1163 q 700 1025 740 1066 q 595 980 660 985 m 404 33 q 558 78 495 33 q 656 227 621 122 q 690 511 690 333 q 656 799 690 692 q 558 950 621 906 q 404 994 495 994 q 250 950 313 994 q 153 800 188 906 q 118 517 118 695 q 153 229 118 336 q 250 78 188 122 q 404 33 313 33 m 385 1122 l 474 1311 l 524 1311 l 424 1122 l 385 1122 z "},"Ợ":{"ha":808,"x_min":68,"x_max":740,"o":"m 595 980 q 740 514 740 867 q 653 112 740 236 q 404 -12 565 -12 q 156 112 243 -12 q 68 514 68 236 q 155 916 68 792 q 404 1040 242 1040 q 501 1032 447 1040 q 571 1025 547 1025 q 660 1052 626 1025 q 694 1135 694 1080 q 690 1184 694 1162 q 678 1233 686 1206 l 724 1233 q 736 1186 733 1208 q 740 1133 740 1163 q 700 1025 740 1066 q 595 980 660 985 m 404 33 q 558 78 495 33 q 656 227 621 122 q 690 511 690 333 q 656 799 690 692 q 558 950 621 906 q 404 994 495 994 q 250 950 313 994 q 153 800 188 906 q 118 517 118 695 q 153 229 118 336 q 250 78 188 122 q 404 33 313 33 m 404 -215 q 373 -203 385 -215 q 361 -172 361 -192 q 373 -140 361 -153 q 404 -128 385 -128 q 435 -140 423 -128 q 447 -172 447 -153 q 435 -203 447 -192 q 404 -215 423 -215 z "},"Ờ":{"ha":808,"x_min":68,"x_max":740,"o":"m 595 980 q 740 514 740 867 q 653 112 740 236 q 404 -12 565 -12 q 156 112 243 -12 q 68 514 68 236 q 155 916 68 792 q 404 1040 242 1040 q 501 1032 447 1040 q 571 1025 547 1025 q 660 1052 626 1025 q 694 1135 694 1080 q 690 1184 694 1162 q 678 1233 686 1206 l 724 1233 q 736 1186 733 1208 q 740 1133 740 1163 q 700 1025 740 1066 q 595 980 660 985 m 404 33 q 558 78 495 33 q 656 227 621 122 q 690 511 690 333 q 656 799 690 692 q 558 950 621 906 q 404 994 495 994 q 250 950 313 994 q 153 800 188 906 q 118 517 118 695 q 153 229 118 336 q 250 78 188 122 q 404 33 313 33 m 385 1122 l 285 1311 l 335 1311 l 424 1122 l 385 1122 z "},"Ở":{"ha":808,"x_min":68,"x_max":740,"o":"m 595 980 q 740 514 740 867 q 653 112 740 236 q 404 -12 565 -12 q 156 112 243 -12 q 68 514 68 236 q 155 916 68 792 q 404 1040 242 1040 q 501 1032 447 1040 q 571 1025 547 1025 q 660 1052 626 1025 q 694 1135 694 1080 q 690 1184 694 1162 q 678 1233 686 1206 l 724 1233 q 736 1186 733 1208 q 740 1133 740 1163 q 700 1025 740 1066 q 595 980 660 985 m 404 33 q 558 78 495 33 q 656 227 621 122 q 690 511 690 333 q 656 799 690 692 q 558 950 621 906 q 404 994 495 994 q 250 950 313 994 q 153 800 188 906 q 118 517 118 695 q 153 229 118 336 q 250 78 188 122 q 404 33 313 33 m 383 1122 q 401 1165 385 1150 q 445 1193 417 1179 q 478 1213 467 1203 q 489 1238 489 1222 q 472 1264 489 1255 q 411 1274 455 1274 q 288 1247 347 1274 l 288 1286 q 345 1305 312 1298 q 411 1311 378 1311 q 500 1291 469 1311 q 531 1239 531 1271 q 516 1198 531 1212 q 473 1169 501 1184 q 439 1148 450 1158 q 425 1122 427 1138 l 383 1122 z "},"Ỡ":{"ha":808,"x_min":68,"x_max":740,"o":"m 315 1232 q 265 1220 287 1232 q 222 1182 242 1208 l 222 1228 q 262 1259 238 1248 q 315 1271 286 1271 q 362 1263 340 1271 q 413 1242 385 1256 q 458 1223 442 1228 q 493 1217 475 1217 q 544 1229 522 1217 q 586 1267 566 1241 l 586 1221 q 546 1189 570 1201 q 493 1178 522 1178 q 446 1185 469 1178 q 395 1207 424 1193 q 350 1226 367 1220 q 315 1232 333 1232 m 595 980 q 740 514 740 867 q 653 112 740 236 q 404 -12 565 -12 q 156 112 243 -12 q 68 514 68 236 q 155 916 68 792 q 404 1040 242 1040 q 501 1032 447 1040 q 571 1025 547 1025 q 660 1052 626 1025 q 694 1135 694 1080 q 690 1184 694 1162 q 678 1233 686 1206 l 724 1233 q 736 1186 733 1208 q 740 1133 740 1163 q 700 1025 740 1066 q 595 980 660 985 m 404 33 q 558 78 495 33 q 656 227 621 122 q 690 511 690 333 q 656 799 690 692 q 558 950 621 906 q 404 994 495 994 q 250 950 313 994 q 153 800 188 906 q 118 517 118 695 q 153 229 118 336 q 250 78 188 122 q 404 33 313 33 z "},"Ő":{"ha":808,"x_min":68,"x_max":740,"o":"m 404 -12 q 155 111 242 -12 q 68 514 68 235 q 155 916 68 792 q 404 1040 242 1040 q 653 916 567 1040 q 740 514 740 792 q 653 111 740 235 q 404 -12 567 -12 m 404 33 q 558 78 495 33 q 656 227 621 122 q 690 511 690 333 q 656 799 690 692 q 558 950 621 906 q 404 994 495 994 q 250 950 313 994 q 153 800 188 906 q 118 517 118 695 q 153 229 118 336 q 250 78 188 122 q 404 33 313 33 m 297 1122 l 357 1311 l 401 1311 l 335 1122 l 297 1122 m 474 1122 l 533 1311 l 578 1311 l 511 1122 l 474 1122 z "},"Ȏ":{"ha":808,"x_min":68,"x_max":740,"o":"m 404 -12 q 155 111 242 -12 q 68 514 68 235 q 155 916 68 792 q 404 1040 242 1040 q 653 916 567 1040 q 740 514 740 792 q 653 111 740 235 q 404 -12 567 -12 m 404 33 q 558 78 495 33 q 656 227 621 122 q 690 511 690 333 q 656 799 690 692 q 558 950 621 906 q 404 994 495 994 q 250 950 313 994 q 153 800 188 906 q 118 517 118 695 q 153 229 118 336 q 250 78 188 122 q 404 33 313 33 m 236 1142 q 283 1263 241 1222 q 403 1303 326 1303 q 524 1262 480 1303 q 572 1142 567 1221 l 533 1142 q 495 1234 526 1206 q 403 1263 465 1263 q 310 1234 340 1263 q 275 1142 280 1206 l 236 1142 z "},"Ō":{"ha":808,"x_min":68,"x_max":740,"o":"m 404 -12 q 155 111 242 -12 q 68 514 68 235 q 155 916 68 792 q 404 1040 242 1040 q 653 916 567 1040 q 740 514 740 792 q 653 111 740 235 q 404 -12 567 -12 m 404 33 q 558 78 495 33 q 656 227 621 122 q 690 511 690 333 q 656 799 690 692 q 558 950 621 906 q 404 994 495 994 q 250 950 313 994 q 153 800 188 906 q 118 517 118 695 q 153 229 118 336 q 250 78 188 122 q 404 33 313 33 m 238 1197 l 238 1238 l 571 1238 l 571 1197 l 238 1197 z "},"Ṓ":{"ha":808,"x_min":68,"x_max":740,"o":"m 404 -12 q 155 111 242 -12 q 68 514 68 235 q 155 916 68 792 q 404 1040 242 1040 q 653 916 567 1040 q 740 514 740 792 q 653 111 740 235 q 404 -12 567 -12 m 404 33 q 558 78 495 33 q 656 227 621 122 q 690 511 690 333 q 656 799 690 692 q 558 950 621 906 q 404 994 495 994 q 250 950 313 994 q 153 800 188 906 q 118 517 118 695 q 153 229 118 336 q 250 78 188 122 q 404 33 313 33 m 385 1308 l 474 1469 l 524 1469 l 424 1308 l 385 1308 m 238 1197 l 238 1238 l 571 1238 l 571 1197 l 238 1197 z "},"Ṑ":{"ha":808,"x_min":68,"x_max":740,"o":"m 404 -12 q 155 111 242 -12 q 68 514 68 235 q 155 916 68 792 q 404 1040 242 1040 q 653 916 567 1040 q 740 514 740 792 q 653 111 740 235 q 404 -12 567 -12 m 404 33 q 558 78 495 33 q 656 227 621 122 q 690 511 690 333 q 656 799 690 692 q 558 950 621 906 q 404 994 495 994 q 250 950 313 994 q 153 800 188 906 q 118 517 118 695 q 153 229 118 336 q 250 78 188 122 q 404 33 313 33 m 385 1308 l 285 1469 l 335 1469 l 424 1308 l 385 1308 m 238 1197 l 238 1238 l 571 1238 l 571 1197 l 238 1197 z "},"Ǫ":{"ha":808,"x_min":68,"x_max":740,"o":"m 525 7 q 415 -68 451 -25 q 379 -158 379 -110 q 476 -242 379 -242 q 524 -235 499 -242 q 579 -214 548 -229 l 579 -251 q 478 -278 528 -278 q 375 -248 412 -278 q 339 -161 339 -218 q 424 -12 339 -73 l 404 -12 q 156 112 243 -12 q 68 514 68 236 q 155 916 68 792 q 404 1040 242 1040 q 653 916 567 1040 q 740 514 740 792 q 685 173 740 293 q 525 7 631 53 m 118 517 q 153 229 118 336 q 250 78 188 122 q 404 33 313 33 q 558 78 495 33 q 656 227 621 122 q 690 511 690 333 q 656 799 690 692 q 558 950 621 906 q 404 994 495 994 q 250 950 313 994 q 153 800 188 906 q 118 517 118 695 z "},"Ø":{"ha":808,"x_min":68,"x_max":740,"o":"m 663 901 q 740 514 740 769 q 653 111 740 235 q 404 -12 567 -12 q 172 88 254 -12 l 113 -11 l 75 11 l 145 127 q 68 514 68 258 q 155 916 68 792 q 404 1040 242 1040 q 636 940 554 1040 l 696 1039 l 733 1017 l 663 901 m 118 517 q 174 175 118 292 l 610 896 q 522 971 574 948 q 404 994 471 994 q 250 950 313 994 q 153 800 188 906 q 118 517 118 695 m 404 33 q 558 78 495 33 q 656 227 621 122 q 690 511 690 333 q 635 853 690 735 l 199 132 q 286 57 235 80 q 404 33 338 33 z "},"Ǿ":{"ha":808,"x_min":68,"x_max":740,"o":"m 663 901 q 740 514 740 769 q 653 111 740 235 q 404 -12 567 -12 q 172 88 254 -12 l 113 -11 l 75 11 l 145 127 q 68 514 68 258 q 155 916 68 792 q 404 1040 242 1040 q 636 940 554 1040 l 696 1039 l 733 1017 l 663 901 m 118 517 q 174 175 118 292 l 610 896 q 522 971 574 948 q 404 994 471 994 q 250 950 313 994 q 153 800 188 906 q 118 517 118 695 m 404 33 q 558 78 495 33 q 656 227 621 122 q 690 511 690 333 q 635 853 690 735 l 199 132 q 286 57 235 80 q 404 33 338 33 m 386 1122 l 475 1311 l 525 1311 l 425 1122 l 386 1122 z "},"Õ":{"ha":808,"x_min":68,"x_max":740,"o":"m 404 -12 q 155 111 242 -12 q 68 514 68 235 q 155 916 68 792 q 404 1040 242 1040 q 653 916 567 1040 q 740 514 740 792 q 653 111 740 235 q 404 -12 567 -12 m 404 33 q 558 78 495 33 q 656 227 621 122 q 690 511 690 333 q 656 799 690 692 q 558 950 621 906 q 404 994 495 994 q 250 950 313 994 q 153 800 188 906 q 118 517 118 695 q 153 229 118 336 q 250 78 188 122 q 404 33 313 33 m 493 1178 q 446 1185 469 1178 q 395 1207 424 1193 q 350 1226 367 1220 q 315 1232 333 1232 q 265 1220 287 1232 q 222 1182 242 1208 l 222 1228 q 262 1259 238 1248 q 315 1271 286 1271 q 362 1263 340 1271 q 413 1242 385 1256 q 458 1223 442 1228 q 493 1217 475 1217 q 544 1229 522 1217 q 586 1267 566 1241 l 586 1221 q 546 1189 570 1201 q 493 1178 522 1178 z "},"Ṍ":{"ha":808,"x_min":68,"x_max":740,"o":"m 404 -12 q 155 111 242 -12 q 68 514 68 235 q 155 916 68 792 q 404 1040 242 1040 q 653 916 567 1040 q 740 514 740 792 q 653 111 740 235 q 404 -12 567 -12 m 404 33 q 558 78 495 33 q 656 227 621 122 q 690 511 690 333 q 656 799 690 692 q 558 950 621 906 q 404 994 495 994 q 250 950 313 994 q 153 800 188 906 q 118 517 118 695 q 153 229 118 336 q 250 78 188 122 q 404 33 313 33 m 385 1308 l 474 1469 l 524 1469 l 424 1308 l 385 1308 m 493 1178 q 446 1185 469 1178 q 395 1207 424 1193 q 350 1226 367 1220 q 315 1232 333 1232 q 265 1220 287 1232 q 222 1182 242 1208 l 222 1228 q 262 1259 238 1248 q 315 1271 286 1271 q 362 1263 340 1271 q 413 1242 385 1256 q 458 1223 442 1228 q 493 1217 475 1217 q 544 1229 522 1217 q 586 1267 566 1241 l 586 1221 q 546 1189 570 1201 q 493 1178 522 1178 z "},"Ṏ":{"ha":808,"x_min":68,"x_max":740,"o":"m 404 -12 q 155 111 242 -12 q 68 514 68 235 q 155 916 68 792 q 404 1040 242 1040 q 653 916 567 1040 q 740 514 740 792 q 653 111 740 235 q 404 -12 567 -12 m 404 33 q 558 78 495 33 q 656 227 621 122 q 690 511 690 333 q 656 799 690 692 q 558 950 621 906 q 404 994 495 994 q 250 950 313 994 q 153 800 188 906 q 118 517 118 695 q 153 229 118 336 q 250 78 188 122 q 404 33 313 33 m 493 1178 q 446 1185 469 1178 q 395 1207 424 1193 q 350 1226 367 1220 q 315 1232 333 1232 q 265 1220 287 1232 q 222 1182 242 1208 l 222 1228 q 262 1259 238 1248 q 315 1271 286 1271 q 362 1263 340 1271 q 413 1242 385 1256 q 458 1223 442 1228 q 493 1217 475 1217 q 544 1229 522 1217 q 586 1267 566 1241 l 586 1221 q 546 1189 570 1201 q 493 1178 522 1178 m 279 1332 q 248 1344 260 1332 q 236 1375 236 1356 q 248 1407 236 1394 q 279 1419 260 1419 q 310 1407 298 1419 q 322 1375 322 1394 q 310 1344 322 1356 q 279 1332 298 1332 m 529 1332 q 498 1344 510 1332 q 486 1375 486 1356 q 498 1407 486 1394 q 529 1419 510 1419 q 560 1407 548 1419 q 572 1375 572 1394 q 560 1344 572 1356 q 529 1332 548 1332 z "},"Ȭ":{"ha":808,"x_min":68,"x_max":740,"o":"m 404 -12 q 155 111 242 -12 q 68 514 68 235 q 155 916 68 792 q 404 1040 242 1040 q 653 916 567 1040 q 740 514 740 792 q 653 111 740 235 q 404 -12 567 -12 m 404 33 q 558 78 495 33 q 656 227 621 122 q 690 511 690 333 q 656 799 690 692 q 558 950 621 906 q 404 994 495 994 q 250 950 313 994 q 153 800 188 906 q 118 517 118 695 q 153 229 118 336 q 250 78 188 122 q 404 33 313 33 m 493 1178 q 446 1185 469 1178 q 395 1207 424 1193 q 350 1226 367 1220 q 315 1232 333 1232 q 265 1220 287 1232 q 222 1182 242 1208 l 222 1228 q 262 1259 238 1248 q 315 1271 286 1271 q 362 1263 340 1271 q 413 1242 385 1256 q 458 1223 442 1228 q 493 1217 475 1217 q 544 1229 522 1217 q 586 1267 566 1241 l 586 1221 q 546 1189 570 1201 q 493 1178 522 1178 m 238 1356 l 238 1396 l 571 1396 l 571 1356 l 238 1356 z "},"Œ":{"ha":1151,"x_min":68,"x_max":1128,"o":"m 1128 46 l 1128 0 l 657 0 q 602 -3 641 0 q 506 -7 551 -7 q 178 118 288 -7 q 68 514 68 242 q 173 909 68 781 q 486 1038 278 1038 q 596 1031 528 1038 q 653 1028 632 1028 l 1121 1028 l 1121 982 l 672 982 l 672 551 l 1058 551 l 1058 506 l 672 506 l 672 46 l 1128 46 m 625 982 q 489 992 561 992 q 280 942 361 992 q 158 787 198 892 q 118 514 118 682 q 161 239 118 344 q 289 87 203 135 q 504 39 374 39 q 625 46 576 39 l 625 982 z "},"P":{"ha":732,"x_min":114,"x_max":668,"o":"m 114 1019 q 313 1038 225 1038 q 580 954 491 1038 q 668 697 668 871 q 574 444 668 529 q 283 360 480 360 q 161 365 215 360 l 161 0 l 114 0 l 114 1019 m 288 406 q 538 476 457 406 q 618 694 618 547 q 544 920 618 849 q 313 992 470 992 q 161 981 239 992 l 161 413 q 288 406 213 406 z "},"Þ":{"ha":739,"x_min":114,"x_max":668,"o":"m 114 1028 l 161 1028 l 161 856 q 313 867 233 867 q 580 783 491 867 q 668 526 668 700 q 574 274 668 358 q 283 189 480 189 q 161 194 215 189 l 161 0 l 114 0 l 114 1028 m 288 235 q 538 306 457 235 q 618 524 618 376 q 544 750 618 678 q 313 821 470 821 q 161 810 239 821 l 161 242 q 288 235 213 235 z "},"Q":{"ha":808,"x_min":68,"x_max":740,"o":"m 740 514 q 659 123 740 256 q 417 -10 578 -10 q 397 -10 403 -10 q 725 -79 525 -60 l 717 -125 q 323 -27 460 -93 q 126 165 185 39 q 68 514 68 291 q 155 916 68 792 q 404 1040 242 1040 q 653 916 567 1040 q 740 514 740 792 m 118 517 q 153 229 118 336 q 250 78 188 122 q 404 33 313 33 q 558 78 495 33 q 656 227 621 122 q 690 511 690 333 q 656 799 690 692 q 558 950 621 906 q 404 994 495 994 q 250 950 313 994 q 153 800 188 906 q 118 517 118 695 z "},"R":{"ha":779,"x_min":114,"x_max":750,"o":"m 694 0 l 367 457 q 282 453 327 453 q 161 457 211 453 l 161 0 l 114 0 l 114 1019 q 219 1033 169 1028 q 325 1038 268 1038 q 582 966 497 1038 q 667 750 667 894 q 605 559 668 631 q 416 464 542 488 l 750 0 l 694 0 m 278 497 q 473 524 398 497 q 584 607 549 551 q 619 749 619 663 q 589 885 619 832 q 493 965 558 939 q 321 992 427 992 q 161 979 240 992 l 161 501 q 278 497 232 497 z "},"Ŕ":{"ha":779,"x_min":114,"x_max":750,"o":"m 694 0 l 367 457 q 282 453 327 453 q 161 457 211 453 l 161 0 l 114 0 l 114 1019 q 219 1033 169 1028 q 325 1038 268 1038 q 582 966 497 1038 q 667 750 667 894 q 605 559 668 631 q 416 464 542 488 l 750 0 l 694 0 m 278 497 q 473 524 398 497 q 584 607 549 551 q 619 749 619 663 q 589 885 619 832 q 493 965 558 939 q 321 992 427 992 q 161 979 240 992 l 161 501 q 278 497 232 497 m 346 1122 l 435 1311 l 485 1311 l 385 1122 l 346 1122 z "},"Ř":{"ha":779,"x_min":114,"x_max":750,"o":"m 694 0 l 367 457 q 282 453 327 453 q 161 457 211 453 l 161 0 l 114 0 l 114 1019 q 219 1033 169 1028 q 325 1038 268 1038 q 582 966 497 1038 q 667 750 667 894 q 605 559 668 631 q 416 464 542 488 l 750 0 l 694 0 m 278 497 q 473 524 398 497 q 584 607 549 551 q 619 749 619 663 q 589 885 619 832 q 493 965 558 939 q 321 992 427 992 q 161 979 240 992 l 161 501 q 278 497 232 497 m 479 1311 l 528 1311 l 392 1122 l 339 1122 l 203 1311 l 251 1311 l 365 1151 l 479 1311 z "},"Ŗ":{"ha":779,"x_min":114,"x_max":750,"o":"m 694 0 l 367 457 q 282 453 327 453 q 161 457 211 453 l 161 0 l 114 0 l 114 1019 q 219 1033 169 1028 q 325 1038 268 1038 q 582 966 497 1038 q 667 750 667 894 q 605 559 668 631 q 416 464 542 488 l 750 0 l 694 0 m 278 497 q 473 524 398 497 q 584 607 549 551 q 619 749 619 663 q 589 885 619 832 q 493 965 558 939 q 321 992 427 992 q 161 979 240 992 l 161 501 q 278 497 232 497 m 411 -128 q 445 -143 433 -128 q 457 -187 457 -158 q 449 -247 457 -214 q 426 -311 442 -281 l 396 -311 q 419 -215 415 -262 l 414 -215 q 383 -203 395 -215 q 371 -171 371 -190 q 382 -140 371 -152 q 411 -128 394 -128 z "},"Ȑ":{"ha":779,"x_min":114,"x_max":750,"o":"m 694 0 l 367 457 q 282 453 327 453 q 161 457 211 453 l 161 0 l 114 0 l 114 1019 q 219 1033 169 1028 q 325 1038 268 1038 q 582 966 497 1038 q 667 750 667 894 q 605 559 668 631 q 416 464 542 488 l 750 0 l 694 0 m 278 497 q 473 524 398 497 q 584 607 549 551 q 619 749 619 663 q 589 885 619 832 q 493 965 558 939 q 321 992 427 992 q 161 979 240 992 l 161 501 q 278 497 232 497 m 258 1122 l 192 1311 l 236 1311 l 296 1122 l 258 1122 m 435 1122 l 368 1311 l 413 1311 l 472 1122 l 435 1122 z "},"Ṛ":{"ha":779,"x_min":114,"x_max":750,"o":"m 694 0 l 367 457 q 282 453 327 453 q 161 457 211 453 l 161 0 l 114 0 l 114 1019 q 219 1033 169 1028 q 325 1038 268 1038 q 582 966 497 1038 q 667 750 667 894 q 605 559 668 631 q 416 464 542 488 l 750 0 l 694 0 m 278 497 q 473 524 398 497 q 584 607 549 551 q 619 749 619 663 q 589 885 619 832 q 493 965 558 939 q 321 992 427 992 q 161 979 240 992 l 161 501 q 278 497 232 497 m 414 -215 q 383 -203 395 -215 q 371 -172 371 -192 q 383 -140 371 -153 q 414 -128 395 -128 q 445 -140 433 -128 q 457 -172 457 -153 q 445 -203 457 -192 q 414 -215 433 -215 z "},"Ȓ":{"ha":779,"x_min":114,"x_max":750,"o":"m 694 0 l 367 457 q 282 453 327 453 q 161 457 211 453 l 161 0 l 114 0 l 114 1019 q 219 1033 169 1028 q 325 1038 268 1038 q 582 966 497 1038 q 667 750 667 894 q 605 559 668 631 q 416 464 542 488 l 750 0 l 694 0 m 278 497 q 473 524 398 497 q 584 607 549 551 q 619 749 619 663 q 589 885 619 832 q 493 965 558 939 q 321 992 427 992 q 161 979 240 992 l 161 501 q 278 497 232 497 m 197 1142 q 244 1263 202 1222 q 364 1303 287 1303 q 485 1262 441 1303 q 533 1142 528 1221 l 494 1142 q 457 1234 487 1206 q 364 1263 426 1263 q 271 1234 301 1263 q 236 1142 241 1206 l 197 1142 z "},"Ṟ":{"ha":779,"x_min":114,"x_max":750,"o":"m 694 0 l 367 457 q 282 453 327 453 q 161 457 211 453 l 161 0 l 114 0 l 114 1019 q 219 1033 169 1028 q 325 1038 268 1038 q 582 966 497 1038 q 667 750 667 894 q 605 559 668 631 q 416 464 542 488 l 750 0 l 694 0 m 278 497 q 473 524 398 497 q 584 607 549 551 q 619 749 619 663 q 589 885 619 832 q 493 965 558 939 q 321 992 427 992 q 161 979 240 992 l 161 501 q 278 497 232 497 m 247 -192 l 247 -151 l 581 -151 l 581 -192 l 247 -192 z "},"S":{"ha":601,"x_min":47,"x_max":554,"o":"m 253 -12 q 156 -4 207 -12 q 57 22 104 5 l 57 69 q 257 33 161 33 q 441 90 378 33 q 504 258 504 147 q 484 365 504 322 q 420 439 463 408 q 303 494 376 469 l 267 507 q 102 610 156 546 q 47 778 47 675 q 124 971 47 902 q 346 1040 201 1040 q 436 1034 389 1040 q 517 1015 483 1027 l 517 968 q 343 994 435 994 q 159 940 220 994 q 97 781 97 885 q 117 677 97 719 q 178 606 136 635 q 292 551 220 576 l 328 539 q 498 433 442 499 q 554 261 554 366 q 476 58 554 129 q 253 -12 398 -12 z "},"Ś":{"ha":601,"x_min":47,"x_max":554,"o":"m 253 -12 q 156 -4 207 -12 q 57 22 104 5 l 57 69 q 257 33 161 33 q 441 90 378 33 q 504 258 504 147 q 484 365 504 322 q 420 439 463 408 q 303 494 376 469 l 267 507 q 102 610 156 546 q 47 778 47 675 q 124 971 47 902 q 346 1040 201 1040 q 436 1034 389 1040 q 517 1015 483 1027 l 517 968 q 343 994 435 994 q 159 940 220 994 q 97 781 97 885 q 117 677 97 719 q 178 606 136 635 q 292 551 220 576 l 328 539 q 498 433 442 499 q 554 261 554 366 q 476 58 554 129 q 253 -12 398 -12 m 286 1122 l 375 1311 l 425 1311 l 325 1122 l 286 1122 z "},"Ṥ":{"ha":601,"x_min":47,"x_max":554,"o":"m 253 -12 q 156 -4 207 -12 q 57 22 104 5 l 57 69 q 257 33 161 33 q 441 90 378 33 q 504 258 504 147 q 484 365 504 322 q 420 439 463 408 q 303 494 376 469 l 267 507 q 102 610 156 546 q 47 778 47 675 q 124 971 47 902 q 346 1040 201 1040 q 436 1034 389 1040 q 517 1015 483 1027 l 517 968 q 343 994 435 994 q 159 940 220 994 q 97 781 97 885 q 117 677 97 719 q 178 606 136 635 q 292 551 220 576 l 328 539 q 498 433 442 499 q 554 261 554 366 q 476 58 554 129 q 253 -12 398 -12 m 278 1283 q 247 1295 259 1283 q 235 1326 235 1307 q 247 1358 235 1346 q 278 1371 259 1371 q 309 1358 297 1371 q 321 1326 321 1346 q 309 1295 321 1307 q 278 1283 297 1283 m 286 1122 l 375 1311 l 425 1311 l 325 1122 l 286 1122 z "},"Š":{"ha":601,"x_min":47,"x_max":554,"o":"m 253 -12 q 156 -4 207 -12 q 57 22 104 5 l 57 69 q 257 33 161 33 q 441 90 378 33 q 504 258 504 147 q 484 365 504 322 q 420 439 463 408 q 303 494 376 469 l 267 507 q 102 610 156 546 q 47 778 47 675 q 124 971 47 902 q 346 1040 201 1040 q 436 1034 389 1040 q 517 1015 483 1027 l 517 968 q 343 994 435 994 q 159 940 220 994 q 97 781 97 885 q 117 677 97 719 q 178 606 136 635 q 292 551 220 576 l 328 539 q 498 433 442 499 q 554 261 554 366 q 476 58 554 129 q 253 -12 398 -12 m 419 1311 l 468 1311 l 332 1122 l 279 1122 l 143 1311 l 192 1311 l 306 1151 l 419 1311 z "},"Ṧ":{"ha":601,"x_min":47,"x_max":554,"o":"m 253 -12 q 156 -4 207 -12 q 57 22 104 5 l 57 69 q 257 33 161 33 q 441 90 378 33 q 504 258 504 147 q 484 365 504 322 q 420 439 463 408 q 303 494 376 469 l 267 507 q 102 610 156 546 q 47 778 47 675 q 124 971 47 902 q 346 1040 201 1040 q 436 1034 389 1040 q 517 1015 483 1027 l 517 968 q 343 994 435 994 q 159 940 220 994 q 97 781 97 885 q 117 677 97 719 q 178 606 136 635 q 292 551 220 576 l 328 539 q 498 433 442 499 q 554 261 554 366 q 476 58 554 129 q 253 -12 398 -12 m 306 1311 q 275 1323 287 1311 q 263 1354 263 1335 q 275 1386 263 1374 q 306 1399 287 1399 q 336 1386 324 1399 q 349 1354 349 1374 q 336 1323 349 1335 q 306 1311 324 1311 m 419 1311 l 468 1311 l 332 1122 l 279 1122 l 143 1311 l 192 1311 l 306 1151 l 419 1311 z "},"Ş":{"ha":601,"x_min":47,"x_max":554,"o":"m 554 261 q 495 78 554 147 q 325 -8 436 9 l 325 -78 q 406 -107 376 -81 q 436 -178 436 -133 q 402 -252 436 -226 q 314 -278 369 -278 q 194 -251 249 -278 l 194 -212 q 258 -235 230 -228 q 314 -242 285 -242 q 375 -226 353 -242 q 397 -178 397 -210 q 375 -130 397 -145 q 313 -114 353 -114 l 286 -114 l 286 -12 q 253 -12 275 -12 q 156 -4 207 -12 q 57 22 104 5 l 57 69 q 257 33 161 33 q 441 90 378 33 q 504 258 504 147 q 484 365 504 322 q 420 439 463 408 q 303 494 376 469 l 267 507 q 102 610 156 546 q 47 778 47 675 q 124 971 47 902 q 346 1040 201 1040 q 436 1034 389 1040 q 517 1015 483 1027 l 517 968 q 343 994 435 994 q 159 940 220 994 q 97 781 97 885 q 117 677 97 719 q 178 606 136 635 q 292 551 220 576 l 328 539 q 498 433 442 499 q 554 261 554 366 z "},"Ŝ":{"ha":601,"x_min":47,"x_max":554,"o":"m 253 -12 q 156 -4 207 -12 q 57 22 104 5 l 57 69 q 257 33 161 33 q 441 90 378 33 q 504 258 504 147 q 484 365 504 322 q 420 439 463 408 q 303 494 376 469 l 267 507 q 102 610 156 546 q 47 778 47 675 q 124 971 47 902 q 346 1040 201 1040 q 436 1034 389 1040 q 517 1015 483 1027 l 517 968 q 343 994 435 994 q 159 940 220 994 q 97 781 97 885 q 117 677 97 719 q 178 606 136 635 q 292 551 220 576 l 328 539 q 498 433 442 499 q 554 261 554 366 q 476 58 554 129 q 253 -12 398 -12 m 468 1122 l 419 1122 l 306 1283 l 192 1122 l 143 1122 l 279 1311 l 332 1311 l 468 1122 z "},"Ș":{"ha":601,"x_min":47,"x_max":554,"o":"m 253 -12 q 156 -4 207 -12 q 57 22 104 5 l 57 69 q 257 33 161 33 q 441 90 378 33 q 504 258 504 147 q 484 365 504 322 q 420 439 463 408 q 303 494 376 469 l 267 507 q 102 610 156 546 q 47 778 47 675 q 124 971 47 902 q 346 1040 201 1040 q 436 1034 389 1040 q 517 1015 483 1027 l 517 968 q 343 994 435 994 q 159 940 220 994 q 97 781 97 885 q 117 677 97 719 q 178 606 136 635 q 292 551 220 576 l 328 539 q 498 433 442 499 q 554 261 554 366 q 476 58 554 129 q 253 -12 398 -12 m 303 -128 q 336 -143 324 -128 q 349 -187 349 -158 q 341 -247 349 -214 q 318 -311 333 -281 l 288 -311 q 310 -215 307 -262 l 306 -215 q 275 -203 287 -215 q 263 -171 263 -190 q 274 -140 263 -152 q 303 -128 285 -128 z "},"Ṡ":{"ha":601,"x_min":47,"x_max":554,"o":"m 253 -12 q 156 -4 207 -12 q 57 22 104 5 l 57 69 q 257 33 161 33 q 441 90 378 33 q 504 258 504 147 q 484 365 504 322 q 420 439 463 408 q 303 494 376 469 l 267 507 q 102 610 156 546 q 47 778 47 675 q 124 971 47 902 q 346 1040 201 1040 q 436 1034 389 1040 q 517 1015 483 1027 l 517 968 q 343 994 435 994 q 159 940 220 994 q 97 781 97 885 q 117 677 97 719 q 178 606 136 635 q 292 551 220 576 l 328 539 q 498 433 442 499 q 554 261 554 366 q 476 58 554 129 q 253 -12 398 -12 m 306 1174 q 275 1185 287 1174 q 263 1217 263 1197 q 275 1249 263 1236 q 306 1261 287 1261 q 336 1249 324 1261 q 349 1217 349 1236 q 336 1185 349 1197 q 306 1174 324 1174 z "},"Ṣ":{"ha":601,"x_min":47,"x_max":554,"o":"m 253 -12 q 156 -4 207 -12 q 57 22 104 5 l 57 69 q 257 33 161 33 q 441 90 378 33 q 504 258 504 147 q 484 365 504 322 q 420 439 463 408 q 303 494 376 469 l 267 507 q 102 610 156 546 q 47 778 47 675 q 124 971 47 902 q 346 1040 201 1040 q 436 1034 389 1040 q 517 1015 483 1027 l 517 968 q 343 994 435 994 q 159 940 220 994 q 97 781 97 885 q 117 677 97 719 q 178 606 136 635 q 292 551 220 576 l 328 539 q 498 433 442 499 q 554 261 554 366 q 476 58 554 129 q 253 -12 398 -12 m 306 -215 q 275 -203 287 -215 q 263 -172 263 -192 q 275 -140 263 -153 q 306 -128 287 -128 q 336 -140 324 -128 q 349 -172 349 -153 q 336 -203 349 -192 q 306 -215 324 -215 z "},"Ṩ":{"ha":601,"x_min":47,"x_max":554,"o":"m 253 -12 q 156 -4 207 -12 q 57 22 104 5 l 57 69 q 257 33 161 33 q 441 90 378 33 q 504 258 504 147 q 484 365 504 322 q 420 439 463 408 q 303 494 376 469 l 267 507 q 102 610 156 546 q 47 778 47 675 q 124 971 47 902 q 346 1040 201 1040 q 436 1034 389 1040 q 517 1015 483 1027 l 517 968 q 343 994 435 994 q 159 940 220 994 q 97 781 97 885 q 117 677 97 719 q 178 606 136 635 q 292 551 220 576 l 328 539 q 498 433 442 499 q 554 261 554 366 q 476 58 554 129 q 253 -12 398 -12 m 306 -215 q 275 -203 287 -215 q 263 -172 263 -192 q 275 -140 263 -153 q 306 -128 287 -128 q 336 -140 324 -128 q 349 -172 349 -153 q 336 -203 349 -192 q 306 -215 324 -215 m 306 1174 q 275 1185 287 1174 q 263 1217 263 1197 q 275 1249 263 1236 q 306 1261 287 1261 q 336 1249 324 1261 q 349 1217 349 1236 q 336 1185 349 1197 q 306 1174 324 1174 z "},"ẞ":{"ha":971,"x_min":114,"x_max":924,"o":"m 697 539 q 867 433 811 499 q 924 261 924 366 q 845 58 924 129 q 622 -12 767 -12 q 525 -4 576 -12 q 426 22 474 5 l 426 69 q 626 33 531 33 q 811 90 748 33 q 874 258 874 147 q 853 365 874 322 q 789 439 833 408 q 672 494 746 469 l 636 507 q 471 610 526 546 q 417 778 417 675 q 441 898 417 846 q 511 985 465 951 q 422 994 469 994 q 223 921 284 994 q 161 693 161 848 l 161 0 l 114 0 l 114 686 q 188 954 114 868 q 422 1040 261 1040 q 567 1015 503 1040 q 715 1040 628 1040 q 805 1034 758 1040 q 886 1015 852 1027 l 886 968 q 713 994 805 994 q 528 940 590 994 q 467 781 467 885 q 486 677 467 719 q 548 606 506 635 q 661 551 590 576 l 697 539 z "},"Ə":{"ha":810,"x_min":61,"x_max":742,"o":"m 336 1040 q 560 989 471 1040 q 695 822 649 938 q 742 514 742 706 q 653 111 742 235 q 397 -12 564 -12 q 147 111 232 -12 q 61 514 61 235 l 61 542 l 692 542 q 650 814 689 715 q 533 953 610 913 q 332 994 456 994 q 108 965 207 994 l 108 1013 q 336 1040 217 1040 m 397 33 q 555 76 491 33 q 655 221 619 119 q 692 496 690 323 l 111 496 q 146 220 113 322 q 242 76 180 119 q 397 33 304 33 z "},"T":{"ha":681,"x_min":6,"x_max":675,"o":"m 317 0 l 317 982 l 6 982 l 6 1028 l 675 1028 l 675 982 l 364 982 l 364 0 l 317 0 z "},"Ŧ":{"ha":681,"x_min":6,"x_max":675,"o":"m 675 982 l 364 982 l 364 576 l 571 576 l 571 535 l 364 535 l 364 0 l 317 0 l 317 535 l 110 535 l 110 576 l 317 576 l 317 982 l 6 982 l 6 1028 l 675 1028 l 675 982 z "},"Ť":{"ha":681,"x_min":6,"x_max":675,"o":"m 317 0 l 317 982 l 6 982 l 6 1028 l 675 1028 l 675 982 l 364 982 l 364 0 l 317 0 m 454 1311 l 503 1311 l 367 1122 l 314 1122 l 178 1311 l 226 1311 l 340 1151 l 454 1311 z "},"Ţ":{"ha":681,"x_min":6,"x_max":675,"o":"m 360 0 l 360 -78 q 441 -107 410 -81 q 471 -178 471 -133 q 437 -252 471 -226 q 349 -278 403 -278 q 229 -251 284 -278 l 229 -212 q 292 -235 265 -228 q 349 -242 320 -242 q 410 -226 388 -242 q 432 -178 432 -210 q 410 -130 432 -145 q 347 -114 388 -114 l 321 -114 l 321 0 l 317 0 l 317 982 l 6 982 l 6 1028 l 675 1028 l 675 982 l 364 982 l 364 0 l 360 0 z "},"Ț":{"ha":681,"x_min":6,"x_max":675,"o":"m 317 0 l 317 982 l 6 982 l 6 1028 l 675 1028 l 675 982 l 364 982 l 364 0 l 317 0 m 338 -128 q 371 -143 359 -128 q 383 -187 383 -158 q 376 -247 383 -214 q 353 -311 368 -281 l 322 -311 q 345 -215 342 -262 l 340 -215 q 309 -203 322 -215 q 297 -171 297 -190 q 309 -140 297 -152 q 338 -128 320 -128 z "},"Ṭ":{"ha":681,"x_min":6,"x_max":675,"o":"m 317 0 l 317 982 l 6 982 l 6 1028 l 675 1028 l 675 982 l 364 982 l 364 0 l 317 0 m 340 -215 q 309 -203 322 -215 q 297 -172 297 -192 q 309 -140 297 -153 q 340 -128 322 -128 q 371 -140 359 -128 q 383 -172 383 -153 q 371 -203 383 -192 q 340 -215 359 -215 z "},"Ṯ":{"ha":681,"x_min":6,"x_max":675,"o":"m 317 0 l 317 982 l 6 982 l 6 1028 l 675 1028 l 675 982 l 364 982 l 364 0 l 317 0 m 174 -192 l 174 -151 l 507 -151 l 507 -192 l 174 -192 z "},"U":{"ha":832,"x_min":108,"x_max":724,"o":"m 417 -12 q 182 74 256 -12 q 108 342 108 160 l 108 1028 l 156 1028 l 156 335 q 217 107 156 180 q 417 33 278 33 q 616 107 555 33 q 678 335 678 180 l 678 1028 l 724 1028 l 724 342 q 692 142 724 220 q 592 26 660 64 q 417 -12 525 -12 z "},"Ú":{"ha":832,"x_min":108,"x_max":724,"o":"m 417 -12 q 182 74 256 -12 q 108 342 108 160 l 108 1028 l 156 1028 l 156 335 q 217 107 156 180 q 417 33 278 33 q 616 107 555 33 q 678 335 678 180 l 678 1028 l 724 1028 l 724 342 q 692 142 724 220 q 592 26 660 64 q 417 -12 525 -12 m 397 1122 l 486 1311 l 536 1311 l 436 1122 l 397 1122 z "},"Ŭ":{"ha":832,"x_min":108,"x_max":724,"o":"m 417 -12 q 182 74 256 -12 q 108 342 108 160 l 108 1028 l 156 1028 l 156 335 q 217 107 156 180 q 417 33 278 33 q 616 107 555 33 q 678 335 678 180 l 678 1028 l 724 1028 l 724 342 q 692 142 724 220 q 592 26 660 64 q 417 -12 525 -12 m 418 1131 q 297 1172 341 1131 q 249 1292 253 1213 l 288 1292 q 325 1199 295 1227 q 418 1171 356 1171 q 511 1199 481 1171 q 546 1292 541 1227 l 585 1292 q 538 1171 580 1211 q 418 1131 495 1131 z "},"Û":{"ha":832,"x_min":108,"x_max":724,"o":"m 417 -12 q 182 74 256 -12 q 108 342 108 160 l 108 1028 l 156 1028 l 156 335 q 217 107 156 180 q 417 33 278 33 q 616 107 555 33 q 678 335 678 180 l 678 1028 l 724 1028 l 724 342 q 692 142 724 220 q 592 26 660 64 q 417 -12 525 -12 m 579 1122 l 531 1122 l 417 1283 l 303 1122 l 254 1122 l 390 1311 l 443 1311 l 579 1122 z "},"Ȕ":{"ha":832,"x_min":108,"x_max":724,"o":"m 417 -12 q 182 74 256 -12 q 108 342 108 160 l 108 1028 l 156 1028 l 156 335 q 217 107 156 180 q 417 33 278 33 q 616 107 555 33 q 678 335 678 180 l 678 1028 l 724 1028 l 724 342 q 692 142 724 220 q 592 26 660 64 q 417 -12 525 -12 m 310 1122 l 243 1311 l 288 1311 l 347 1122 l 310 1122 m 486 1122 l 419 1311 l 464 1311 l 524 1122 l 486 1122 z "},"Ü":{"ha":832,"x_min":108,"x_max":724,"o":"m 417 -12 q 182 74 256 -12 q 108 342 108 160 l 108 1028 l 156 1028 l 156 335 q 217 107 156 180 q 417 33 278 33 q 616 107 555 33 q 678 335 678 180 l 678 1028 l 724 1028 l 724 342 q 692 142 724 220 q 592 26 660 64 q 417 -12 525 -12 m 292 1174 q 261 1185 273 1174 q 249 1217 249 1197 q 261 1249 249 1236 q 292 1261 273 1261 q 323 1249 310 1261 q 335 1217 335 1236 q 323 1185 335 1197 q 292 1174 310 1174 m 542 1174 q 511 1185 523 1174 q 499 1217 499 1197 q 511 1249 499 1236 q 542 1261 523 1261 q 573 1249 560 1261 q 585 1217 585 1236 q 573 1185 585 1197 q 542 1174 560 1174 z "},"Ụ":{"ha":832,"x_min":108,"x_max":724,"o":"m 417 -12 q 182 74 256 -12 q 108 342 108 160 l 108 1028 l 156 1028 l 156 335 q 217 107 156 180 q 417 33 278 33 q 616 107 555 33 q 678 335 678 180 l 678 1028 l 724 1028 l 724 342 q 692 142 724 220 q 592 26 660 64 q 417 -12 525 -12 m 417 -215 q 386 -203 398 -215 q 374 -172 374 -192 q 386 -140 374 -153 q 417 -128 398 -128 q 448 -140 435 -128 q 460 -172 460 -153 q 448 -203 460 -192 q 417 -215 435 -215 z "},"Ù":{"ha":832,"x_min":108,"x_max":724,"o":"m 417 -12 q 182 74 256 -12 q 108 342 108 160 l 108 1028 l 156 1028 l 156 335 q 217 107 156 180 q 417 33 278 33 q 616 107 555 33 q 678 335 678 180 l 678 1028 l 724 1028 l 724 342 q 692 142 724 220 q 592 26 660 64 q 417 -12 525 -12 m 397 1122 l 297 1311 l 347 1311 l 436 1122 l 397 1122 z "},"Ủ":{"ha":832,"x_min":108,"x_max":724,"o":"m 417 -12 q 182 74 256 -12 q 108 342 108 160 l 108 1028 l 156 1028 l 156 335 q 217 107 156 180 q 417 33 278 33 q 616 107 555 33 q 678 335 678 180 l 678 1028 l 724 1028 l 724 342 q 692 142 724 220 q 592 26 660 64 q 417 -12 525 -12 m 396 1122 q 413 1165 397 1150 q 458 1193 429 1179 q 491 1213 480 1203 q 501 1238 501 1222 q 484 1264 501 1255 q 424 1274 467 1274 q 300 1247 359 1274 l 300 1286 q 357 1305 324 1298 q 424 1311 390 1311 q 513 1291 482 1311 q 543 1239 543 1271 q 528 1198 543 1212 q 485 1169 514 1184 q 451 1148 463 1158 q 438 1122 440 1138 l 396 1122 z "},"Ư":{"ha":832,"x_min":108,"x_max":869,"o":"m 417 -12 q 182 74 256 -12 q 108 342 108 160 l 108 1028 l 156 1028 l 156 335 q 217 107 156 180 q 417 33 278 33 q 616 107 555 33 q 678 335 678 180 l 678 1028 l 700 1028 q 790 1054 756 1028 q 824 1135 824 1081 q 819 1184 824 1162 q 807 1233 815 1206 l 853 1233 q 866 1186 862 1208 q 869 1133 869 1163 q 829 1026 869 1065 q 724 985 789 988 l 724 342 q 692 142 724 220 q 592 26 660 64 q 417 -12 525 -12 z "},"Ứ":{"ha":832,"x_min":108,"x_max":869,"o":"m 417 -12 q 182 74 256 -12 q 108 342 108 160 l 108 1028 l 156 1028 l 156 335 q 217 107 156 180 q 417 33 278 33 q 616 107 555 33 q 678 335 678 180 l 678 1028 l 700 1028 q 790 1054 756 1028 q 824 1135 824 1081 q 819 1184 824 1162 q 807 1233 815 1206 l 853 1233 q 866 1186 862 1208 q 869 1133 869 1163 q 829 1026 869 1065 q 724 985 789 988 l 724 342 q 692 142 724 220 q 592 26 660 64 q 417 -12 525 -12 m 397 1122 l 486 1311 l 536 1311 l 436 1122 l 397 1122 z "},"Ự":{"ha":832,"x_min":108,"x_max":869,"o":"m 417 -12 q 182 74 256 -12 q 108 342 108 160 l 108 1028 l 156 1028 l 156 335 q 217 107 156 180 q 417 33 278 33 q 616 107 555 33 q 678 335 678 180 l 678 1028 l 700 1028 q 790 1054 756 1028 q 824 1135 824 1081 q 819 1184 824 1162 q 807 1233 815 1206 l 853 1233 q 866 1186 862 1208 q 869 1133 869 1163 q 829 1026 869 1065 q 724 985 789 988 l 724 342 q 692 142 724 220 q 592 26 660 64 q 417 -12 525 -12 m 417 -215 q 386 -203 398 -215 q 374 -172 374 -192 q 386 -140 374 -153 q 417 -128 398 -128 q 448 -140 435 -128 q 460 -172 460 -153 q 448 -203 460 -192 q 417 -215 435 -215 z "},"Ừ":{"ha":832,"x_min":108,"x_max":869,"o":"m 417 -12 q 182 74 256 -12 q 108 342 108 160 l 108 1028 l 156 1028 l 156 335 q 217 107 156 180 q 417 33 278 33 q 616 107 555 33 q 678 335 678 180 l 678 1028 l 700 1028 q 790 1054 756 1028 q 824 1135 824 1081 q 819 1184 824 1162 q 807 1233 815 1206 l 853 1233 q 866 1186 862 1208 q 869 1133 869 1163 q 829 1026 869 1065 q 724 985 789 988 l 724 342 q 692 142 724 220 q 592 26 660 64 q 417 -12 525 -12 m 397 1122 l 297 1311 l 347 1311 l 436 1122 l 397 1122 z "},"Ử":{"ha":832,"x_min":108,"x_max":869,"o":"m 417 -12 q 182 74 256 -12 q 108 342 108 160 l 108 1028 l 156 1028 l 156 335 q 217 107 156 180 q 417 33 278 33 q 616 107 555 33 q 678 335 678 180 l 678 1028 l 700 1028 q 790 1054 756 1028 q 824 1135 824 1081 q 819 1184 824 1162 q 807 1233 815 1206 l 853 1233 q 866 1186 862 1208 q 869 1133 869 1163 q 829 1026 869 1065 q 724 985 789 988 l 724 342 q 692 142 724 220 q 592 26 660 64 q 417 -12 525 -12 m 396 1122 q 413 1165 397 1150 q 458 1193 429 1179 q 491 1213 480 1203 q 501 1238 501 1222 q 484 1264 501 1255 q 424 1274 467 1274 q 300 1247 359 1274 l 300 1286 q 357 1305 324 1298 q 424 1311 390 1311 q 513 1291 482 1311 q 543 1239 543 1271 q 528 1198 543 1212 q 485 1169 514 1184 q 451 1148 463 1158 q 438 1122 440 1138 l 396 1122 z "},"Ữ":{"ha":832,"x_min":108,"x_max":869,"o":"m 417 -12 q 182 74 256 -12 q 108 342 108 160 l 108 1028 l 156 1028 l 156 335 q 217 107 156 180 q 417 33 278 33 q 616 107 555 33 q 678 335 678 180 l 678 1028 l 700 1028 q 790 1054 756 1028 q 824 1135 824 1081 q 819 1184 824 1162 q 807 1233 815 1206 l 853 1233 q 866 1186 862 1208 q 869 1133 869 1163 q 829 1026 869 1065 q 724 985 789 988 l 724 342 q 692 142 724 220 q 592 26 660 64 q 417 -12 525 -12 m 506 1178 q 459 1185 481 1178 q 408 1207 436 1193 q 363 1226 379 1220 q 328 1232 346 1232 q 277 1220 299 1232 q 235 1182 255 1208 l 235 1228 q 275 1259 251 1248 q 328 1271 299 1271 q 375 1263 352 1271 q 426 1242 397 1256 q 471 1223 454 1228 q 506 1217 488 1217 q 556 1229 534 1217 q 599 1267 578 1241 l 599 1221 q 559 1189 583 1201 q 506 1178 535 1178 z "},"Ű":{"ha":832,"x_min":108,"x_max":724,"o":"m 417 -12 q 182 74 256 -12 q 108 342 108 160 l 108 1028 l 156 1028 l 156 335 q 217 107 156 180 q 417 33 278 33 q 616 107 555 33 q 678 335 678 180 l 678 1028 l 724 1028 l 724 342 q 692 142 724 220 q 592 26 660 64 q 417 -12 525 -12 m 310 1122 l 369 1311 l 414 1311 l 347 1122 l 310 1122 m 486 1122 l 546 1311 l 590 1311 l 524 1122 l 486 1122 z "},"Ȗ":{"ha":832,"x_min":108,"x_max":724,"o":"m 417 -12 q 182 74 256 -12 q 108 342 108 160 l 108 1028 l 156 1028 l 156 335 q 217 107 156 180 q 417 33 278 33 q 616 107 555 33 q 678 335 678 180 l 678 1028 l 724 1028 l 724 342 q 692 142 724 220 q 592 26 660 64 q 417 -12 525 -12 m 249 1142 q 296 1263 253 1222 q 415 1303 338 1303 q 536 1262 492 1303 q 585 1142 580 1221 l 546 1142 q 508 1234 538 1206 q 415 1263 478 1263 q 323 1234 353 1263 q 288 1142 292 1206 l 249 1142 z "},"Ū":{"ha":832,"x_min":108,"x_max":724,"o":"m 417 -12 q 182 74 256 -12 q 108 342 108 160 l 108 1028 l 156 1028 l 156 335 q 217 107 156 180 q 417 33 278 33 q 616 107 555 33 q 678 335 678 180 l 678 1028 l 724 1028 l 724 342 q 692 142 724 220 q 592 26 660 64 q 417 -12 525 -12 m 250 1197 l 250 1238 l 583 1238 l 583 1197 l 250 1197 z "},"Ṻ":{"ha":832,"x_min":108,"x_max":724,"o":"m 417 -12 q 182 74 256 -12 q 108 342 108 160 l 108 1028 l 156 1028 l 156 335 q 217 107 156 180 q 417 33 278 33 q 616 107 555 33 q 678 335 678 180 l 678 1028 l 724 1028 l 724 342 q 692 142 724 220 q 592 26 660 64 q 417 -12 525 -12 m 250 1197 l 250 1238 l 583 1238 l 583 1197 l 250 1197 m 292 1332 q 261 1344 273 1332 q 249 1375 249 1356 q 261 1407 249 1394 q 292 1419 273 1419 q 323 1407 310 1419 q 335 1375 335 1394 q 323 1344 335 1356 q 292 1332 310 1332 m 542 1332 q 511 1344 523 1332 q 499 1375 499 1356 q 511 1407 499 1394 q 542 1419 523 1419 q 573 1407 560 1419 q 585 1375 585 1394 q 573 1344 585 1356 q 542 1332 560 1332 z "},"Ų":{"ha":832,"x_min":108,"x_max":724,"o":"m 724 1028 l 724 342 q 682 122 724 207 q 542 4 641 37 q 376 -158 376 -51 q 474 -242 376 -242 q 521 -235 497 -242 q 576 -214 545 -229 l 576 -251 q 475 -278 526 -278 q 373 -248 409 -278 q 338 -161 338 -218 q 424 -12 338 -72 l 417 -12 q 182 74 256 -12 q 108 342 108 160 l 108 1028 l 156 1028 l 156 335 q 217 107 156 180 q 417 33 278 33 q 616 107 555 33 q 678 335 678 180 l 678 1028 l 724 1028 z "},"Ů":{"ha":832,"x_min":108,"x_max":724,"o":"m 417 -12 q 182 74 256 -12 q 108 342 108 160 l 108 1028 l 156 1028 l 156 335 q 217 107 156 180 q 417 33 278 33 q 616 107 555 33 q 678 335 678 180 l 678 1028 l 724 1028 l 724 342 q 692 142 724 220 q 592 26 660 64 q 417 -12 525 -12 m 417 1118 q 351 1135 381 1118 q 306 1181 322 1151 q 289 1246 289 1210 q 306 1311 289 1282 q 351 1357 322 1340 q 417 1374 381 1374 q 482 1357 453 1374 q 528 1311 511 1340 q 544 1246 544 1282 q 528 1181 544 1210 q 482 1135 511 1151 q 417 1118 453 1118 m 417 1154 q 482 1179 457 1154 q 507 1246 507 1203 q 482 1313 507 1288 q 417 1338 457 1338 q 351 1313 376 1338 q 326 1246 326 1288 q 351 1179 326 1203 q 417 1154 376 1154 z "},"Ũ":{"ha":832,"x_min":108,"x_max":724,"o":"m 417 -12 q 182 74 256 -12 q 108 342 108 160 l 108 1028 l 156 1028 l 156 335 q 217 107 156 180 q 417 33 278 33 q 616 107 555 33 q 678 335 678 180 l 678 1028 l 724 1028 l 724 342 q 692 142 724 220 q 592 26 660 64 q 417 -12 525 -12 m 506 1178 q 459 1185 481 1178 q 408 1207 436 1193 q 363 1226 379 1220 q 328 1232 346 1232 q 277 1220 299 1232 q 235 1182 255 1208 l 235 1228 q 275 1259 251 1248 q 328 1271 299 1271 q 375 1263 352 1271 q 426 1242 397 1256 q 471 1223 454 1228 q 506 1217 488 1217 q 556 1229 534 1217 q 599 1267 578 1241 l 599 1221 q 559 1189 583 1201 q 506 1178 535 1178 z "},"Ṹ":{"ha":832,"x_min":108,"x_max":724,"o":"m 417 -12 q 182 74 256 -12 q 108 342 108 160 l 108 1028 l 156 1028 l 156 335 q 217 107 156 180 q 417 33 278 33 q 616 107 555 33 q 678 335 678 180 l 678 1028 l 724 1028 l 724 342 q 692 142 724 220 q 592 26 660 64 q 417 -12 525 -12 m 397 1308 l 486 1469 l 536 1469 l 436 1308 l 397 1308 m 506 1178 q 459 1185 481 1178 q 408 1207 436 1193 q 363 1226 379 1220 q 328 1232 346 1232 q 277 1220 299 1232 q 235 1182 255 1208 l 235 1228 q 275 1259 251 1248 q 328 1271 299 1271 q 375 1263 352 1271 q 426 1242 397 1256 q 471 1223 454 1228 q 506 1217 488 1217 q 556 1229 534 1217 q 599 1267 578 1241 l 599 1221 q 559 1189 583 1201 q 506 1178 535 1178 z "},"V":{"ha":763,"x_min":7,"x_max":756,"o":"m 707 1028 l 756 1028 l 414 0 l 349 0 l 7 1028 l 58 1028 l 382 44 l 707 1028 z "},"W":{"ha":1231,"x_min":39,"x_max":1192,"o":"m 1144 1028 l 1192 1028 l 929 0 l 864 0 l 616 974 l 367 0 l 301 0 l 39 1028 l 89 1028 l 335 50 l 583 1028 l 649 1028 l 897 50 l 1144 1028 z "},"Ẃ":{"ha":1231,"x_min":39,"x_max":1192,"o":"m 1144 1028 l 1192 1028 l 929 0 l 864 0 l 616 974 l 367 0 l 301 0 l 39 1028 l 89 1028 l 335 50 l 583 1028 l 649 1028 l 897 50 l 1144 1028 m 597 1122 l 686 1311 l 736 1311 l 636 1122 l 597 1122 z "},"Ŵ":{"ha":1231,"x_min":39,"x_max":1192,"o":"m 1144 1028 l 1192 1028 l 929 0 l 864 0 l 616 974 l 367 0 l 301 0 l 39 1028 l 89 1028 l 335 50 l 583 1028 l 649 1028 l 897 50 l 1144 1028 m 779 1122 l 731 1122 l 617 1283 l 503 1122 l 454 1122 l 590 1311 l 643 1311 l 779 1122 z "},"Ẅ":{"ha":1231,"x_min":39,"x_max":1192,"o":"m 1144 1028 l 1192 1028 l 929 0 l 864 0 l 616 974 l 367 0 l 301 0 l 39 1028 l 89 1028 l 335 50 l 583 1028 l 649 1028 l 897 50 l 1144 1028 m 492 1174 q 461 1185 473 1174 q 449 1217 449 1197 q 461 1249 449 1236 q 492 1261 473 1261 q 523 1249 510 1261 q 535 1217 535 1236 q 523 1185 535 1197 q 492 1174 510 1174 m 742 1174 q 711 1185 723 1174 q 699 1217 699 1197 q 711 1249 699 1236 q 742 1261 723 1261 q 773 1249 760 1261 q 785 1217 785 1236 q 773 1185 785 1197 q 742 1174 760 1174 z "},"Ẁ":{"ha":1231,"x_min":39,"x_max":1192,"o":"m 1144 1028 l 1192 1028 l 929 0 l 864 0 l 616 974 l 367 0 l 301 0 l 39 1028 l 89 1028 l 335 50 l 583 1028 l 649 1028 l 897 50 l 1144 1028 m 597 1122 l 497 1311 l 547 1311 l 636 1122 l 597 1122 z "},"X":{"ha":747,"x_min":22,"x_max":725,"o":"m 401 519 l 725 0 l 668 0 l 374 475 l 78 0 l 22 0 l 346 519 l 29 1028 l 85 1028 l 374 563 l 663 1028 l 718 1028 l 401 519 z "},"Y":{"ha":681,"x_min":-15,"x_max":690,"o":"m 690 1028 l 364 472 l 364 0 l 317 0 l 317 472 l -15 1028 l 39 1028 l 340 519 l 638 1028 l 690 1028 z "},"Ý":{"ha":681,"x_min":-15,"x_max":690,"o":"m 690 1028 l 364 472 l 364 0 l 317 0 l 317 472 l -15 1028 l 39 1028 l 340 519 l 638 1028 l 690 1028 m 321 1122 l 410 1311 l 460 1311 l 360 1122 l 321 1122 z "},"Ŷ":{"ha":681,"x_min":-15,"x_max":690,"o":"m 690 1028 l 364 472 l 364 0 l 317 0 l 317 472 l -15 1028 l 39 1028 l 340 519 l 638 1028 l 690 1028 m 503 1122 l 454 1122 l 340 1283 l 226 1122 l 178 1122 l 314 1311 l 367 1311 l 503 1122 z "},"Ÿ":{"ha":681,"x_min":-15,"x_max":690,"o":"m 690 1028 l 364 472 l 364 0 l 317 0 l 317 472 l -15 1028 l 39 1028 l 340 519 l 638 1028 l 690 1028 m 215 1174 q 184 1185 197 1174 q 172 1217 172 1197 q 184 1249 172 1236 q 215 1261 197 1261 q 246 1249 234 1261 q 258 1217 258 1236 q 246 1185 258 1197 q 215 1174 234 1174 m 465 1174 q 434 1185 447 1174 q 422 1217 422 1197 q 434 1249 422 1236 q 465 1261 447 1261 q 496 1249 484 1261 q 508 1217 508 1236 q 496 1185 508 1197 q 465 1174 484 1174 z "},"Ẏ":{"ha":681,"x_min":-15,"x_max":690,"o":"m 690 1028 l 364 472 l 364 0 l 317 0 l 317 472 l -15 1028 l 39 1028 l 340 519 l 638 1028 l 690 1028 m 340 1174 q 309 1185 322 1174 q 297 1217 297 1197 q 309 1249 297 1236 q 340 1261 322 1261 q 371 1249 359 1261 q 383 1217 383 1236 q 371 1185 383 1197 q 340 1174 359 1174 z "},"Ỵ":{"ha":681,"x_min":-15,"x_max":690,"o":"m 690 1028 l 364 472 l 364 0 l 317 0 l 317 472 l -15 1028 l 39 1028 l 340 519 l 638 1028 l 690 1028 m 340 -215 q 309 -203 322 -215 q 297 -172 297 -192 q 309 -140 297 -153 q 340 -128 322 -128 q 371 -140 359 -128 q 383 -172 383 -153 q 371 -203 383 -192 q 340 -215 359 -215 z "},"Ỳ":{"ha":681,"x_min":-15,"x_max":690,"o":"m 690 1028 l 364 472 l 364 0 l 317 0 l 317 472 l -15 1028 l 39 1028 l 340 519 l 638 1028 l 690 1028 m 321 1122 l 221 1311 l 271 1311 l 360 1122 l 321 1122 z "},"Ỷ":{"ha":681,"x_min":-15,"x_max":690,"o":"m 690 1028 l 364 472 l 364 0 l 317 0 l 317 472 l -15 1028 l 39 1028 l 340 519 l 638 1028 l 690 1028 m 319 1122 q 337 1165 321 1150 q 381 1193 353 1179 q 414 1213 403 1203 q 425 1238 425 1222 q 408 1264 425 1255 q 347 1274 391 1274 q 224 1247 283 1274 l 224 1286 q 281 1305 248 1298 q 347 1311 314 1311 q 436 1291 406 1311 q 467 1239 467 1271 q 452 1198 467 1212 q 409 1169 438 1184 q 375 1148 386 1158 q 361 1122 363 1138 l 319 1122 z "},"Ȳ":{"ha":681,"x_min":-15,"x_max":690,"o":"m 690 1028 l 364 472 l 364 0 l 317 0 l 317 472 l -15 1028 l 39 1028 l 340 519 l 638 1028 l 690 1028 m 174 1197 l 174 1238 l 507 1238 l 507 1197 l 174 1197 z "},"Ỹ":{"ha":681,"x_min":-15,"x_max":690,"o":"m 690 1028 l 364 472 l 364 0 l 317 0 l 317 472 l -15 1028 l 39 1028 l 340 519 l 638 1028 l 690 1028 m 429 1178 q 382 1185 405 1178 q 331 1207 360 1193 q 286 1226 303 1220 q 251 1232 269 1232 q 201 1220 223 1232 q 158 1182 178 1208 l 158 1228 q 198 1259 174 1248 q 251 1271 222 1271 q 298 1263 276 1271 q 349 1242 321 1256 q 394 1223 378 1228 q 429 1217 411 1217 q 480 1229 458 1217 q 522 1267 502 1241 l 522 1221 q 482 1189 506 1201 q 429 1178 458 1178 z "},"Z":{"ha":660,"x_min":39,"x_max":621,"o":"m 100 44 l 621 44 l 621 0 l 39 0 l 39 28 l 553 983 l 46 983 l 46 1028 l 614 1028 l 614 1000 l 100 44 z "},"Ź":{"ha":660,"x_min":39,"x_max":621,"o":"m 100 44 l 621 44 l 621 0 l 39 0 l 39 28 l 553 983 l 46 983 l 46 1028 l 614 1028 l 614 1000 l 100 44 m 311 1122 l 400 1311 l 450 1311 l 350 1122 l 311 1122 z "},"Ž":{"ha":660,"x_min":39,"x_max":621,"o":"m 100 44 l 621 44 l 621 0 l 39 0 l 39 28 l 553 983 l 46 983 l 46 1028 l 614 1028 l 614 1000 l 100 44 m 444 1311 l 493 1311 l 357 1122 l 304 1122 l 168 1311 l 217 1311 l 331 1151 l 444 1311 z "},"Ż":{"ha":660,"x_min":39,"x_max":621,"o":"m 100 44 l 621 44 l 621 0 l 39 0 l 39 28 l 553 983 l 46 983 l 46 1028 l 614 1028 l 614 1000 l 100 44 m 331 1174 q 300 1185 312 1174 q 288 1217 288 1197 q 300 1249 288 1236 q 331 1261 312 1261 q 361 1249 349 1261 q 374 1217 374 1236 q 361 1185 374 1197 q 331 1174 349 1174 z "},"Ẓ":{"ha":660,"x_min":39,"x_max":621,"o":"m 100 44 l 621 44 l 621 0 l 39 0 l 39 28 l 553 983 l 46 983 l 46 1028 l 614 1028 l 614 1000 l 100 44 m 331 -215 q 300 -203 312 -215 q 288 -172 288 -192 q 300 -140 288 -153 q 331 -128 312 -128 q 361 -140 349 -128 q 374 -172 374 -153 q 361 -203 374 -192 q 331 -215 349 -215 z "},"a":{"ha":592,"x_min":57,"x_max":499,"o":"m 271 761 q 397 739 347 761 q 473 664 447 716 q 499 524 499 611 l 499 0 l 457 0 l 453 85 l 447 85 q 364 13 413 38 q 254 -11 315 -11 q 151 11 195 -11 q 82 78 106 34 q 57 185 57 122 q 113 334 57 281 q 285 400 169 388 l 451 419 l 451 525 q 431 640 451 598 q 370 698 410 681 q 269 715 331 715 q 185 707 231 715 q 94 683 140 699 l 94 731 q 180 753 131 744 q 271 761 228 761 m 258 35 q 363 63 313 35 q 451 154 414 90 l 451 373 l 283 354 q 151 305 194 345 q 108 190 108 264 q 147 73 108 112 q 258 35 185 35 z "},"á":{"ha":592,"x_min":57,"x_max":499,"o":"m 271 761 q 397 739 347 761 q 473 664 447 716 q 499 524 499 611 l 499 0 l 457 0 l 453 85 l 447 85 q 364 13 413 38 q 254 -11 315 -11 q 151 11 195 -11 q 82 78 106 34 q 57 185 57 122 q 113 334 57 281 q 285 400 169 388 l 451 419 l 451 525 q 431 640 451 598 q 370 698 410 681 q 269 715 331 715 q 185 707 231 715 q 94 683 140 699 l 94 731 q 180 753 131 744 q 271 761 228 761 m 258 35 q 363 63 313 35 q 451 154 414 90 l 451 373 l 283 354 q 151 305 194 345 q 108 190 108 264 q 147 73 108 112 q 258 35 185 35 m 272 878 l 375 1122 l 425 1122 l 311 878 l 272 878 z "},"ă":{"ha":592,"x_min":57,"x_max":499,"o":"m 271 761 q 397 739 347 761 q 473 664 447 716 q 499 524 499 611 l 499 0 l 457 0 l 453 85 l 447 85 q 364 13 413 38 q 254 -11 315 -11 q 151 11 195 -11 q 82 78 106 34 q 57 185 57 122 q 113 334 57 281 q 285 400 169 388 l 451 419 l 451 525 q 431 640 451 598 q 370 698 410 681 q 269 715 331 715 q 185 707 231 715 q 94 683 140 699 l 94 731 q 180 753 131 744 q 271 761 228 761 m 258 35 q 363 63 313 35 q 451 154 414 90 l 451 373 l 283 354 q 151 305 194 345 q 108 190 108 264 q 147 73 108 112 q 258 35 185 35 m 293 886 q 182 941 223 886 q 138 1103 140 995 l 176 1103 q 210 967 181 1009 q 293 925 240 925 q 375 967 347 925 q 407 1103 404 1010 l 446 1103 q 403 940 443 994 q 293 886 363 886 z "},"ắ":{"ha":592,"x_min":57,"x_max":499,"o":"m 271 761 q 397 739 347 761 q 473 664 447 716 q 499 524 499 611 l 499 0 l 457 0 l 453 85 l 447 85 q 364 13 413 38 q 254 -11 315 -11 q 151 11 195 -11 q 82 78 106 34 q 57 185 57 122 q 113 334 57 281 q 285 400 169 388 l 451 419 l 451 525 q 431 640 451 598 q 370 698 410 681 q 269 715 331 715 q 185 707 231 715 q 94 683 140 699 l 94 731 q 180 753 131 744 q 271 761 228 761 m 258 35 q 363 63 313 35 q 451 154 414 90 l 451 373 l 283 354 q 151 305 194 345 q 108 190 108 264 q 147 73 108 112 q 258 35 185 35 m 272 1108 l 361 1297 l 411 1297 l 311 1108 l 272 1108 m 293 886 q 182 941 223 886 q 138 1103 140 995 l 176 1103 q 210 967 181 1009 q 293 925 240 925 q 375 967 347 925 q 407 1103 404 1010 l 446 1103 q 403 940 443 994 q 293 886 363 886 z "},"ặ":{"ha":592,"x_min":57,"x_max":499,"o":"m 271 761 q 397 739 347 761 q 473 664 447 716 q 499 524 499 611 l 499 0 l 457 0 l 453 85 l 447 85 q 364 13 413 38 q 254 -11 315 -11 q 151 11 195 -11 q 82 78 106 34 q 57 185 57 122 q 113 334 57 281 q 285 400 169 388 l 451 419 l 451 525 q 431 640 451 598 q 370 698 410 681 q 269 715 331 715 q 185 707 231 715 q 94 683 140 699 l 94 731 q 180 753 131 744 q 271 761 228 761 m 258 35 q 363 63 313 35 q 451 154 414 90 l 451 373 l 283 354 q 151 305 194 345 q 108 190 108 264 q 147 73 108 112 q 258 35 185 35 m 294 -215 q 264 -203 276 -215 q 251 -172 251 -192 q 264 -140 251 -153 q 294 -128 276 -128 q 325 -140 313 -128 q 338 -172 338 -153 q 325 -203 338 -192 q 294 -215 313 -215 m 293 886 q 182 941 223 886 q 138 1103 140 995 l 176 1103 q 210 967 181 1009 q 293 925 240 925 q 375 967 347 925 q 407 1103 404 1010 l 446 1103 q 403 940 443 994 q 293 886 363 886 z "},"ằ":{"ha":592,"x_min":57,"x_max":499,"o":"m 271 761 q 397 739 347 761 q 473 664 447 716 q 499 524 499 611 l 499 0 l 457 0 l 453 85 l 447 85 q 364 13 413 38 q 254 -11 315 -11 q 151 11 195 -11 q 82 78 106 34 q 57 185 57 122 q 113 334 57 281 q 285 400 169 388 l 451 419 l 451 525 q 431 640 451 598 q 370 698 410 681 q 269 715 331 715 q 185 707 231 715 q 94 683 140 699 l 94 731 q 180 753 131 744 q 271 761 228 761 m 258 35 q 363 63 313 35 q 451 154 414 90 l 451 373 l 283 354 q 151 305 194 345 q 108 190 108 264 q 147 73 108 112 q 258 35 185 35 m 272 1108 l 172 1297 l 222 1297 l 311 1108 l 272 1108 m 293 886 q 182 941 223 886 q 138 1103 140 995 l 176 1103 q 210 967 181 1009 q 293 925 240 925 q 375 967 347 925 q 407 1103 404 1010 l 446 1103 q 403 940 443 994 q 293 886 363 886 z "},"ẳ":{"ha":592,"x_min":57,"x_max":499,"o":"m 271 761 q 397 739 347 761 q 473 664 447 716 q 499 524 499 611 l 499 0 l 457 0 l 453 85 l 447 85 q 364 13 413 38 q 254 -11 315 -11 q 151 11 195 -11 q 82 78 106 34 q 57 185 57 122 q 113 334 57 281 q 285 400 169 388 l 451 419 l 451 525 q 431 640 451 598 q 370 698 410 681 q 269 715 331 715 q 185 707 231 715 q 94 683 140 699 l 94 731 q 180 753 131 744 q 271 761 228 761 m 258 35 q 363 63 313 35 q 451 154 414 90 l 451 373 l 283 354 q 151 305 194 345 q 108 190 108 264 q 147 73 108 112 q 258 35 185 35 m 271 1108 q 288 1151 272 1136 q 333 1179 304 1165 q 366 1199 355 1190 q 376 1224 376 1208 q 359 1250 376 1241 q 299 1260 342 1260 q 175 1233 234 1260 l 175 1272 q 232 1291 199 1284 q 299 1297 265 1297 q 388 1277 357 1297 q 418 1225 418 1257 q 403 1184 418 1198 q 360 1156 389 1170 q 326 1134 338 1144 q 313 1108 315 1124 l 271 1108 m 293 886 q 182 941 223 886 q 138 1103 140 995 l 176 1103 q 210 967 181 1009 q 293 925 240 925 q 375 967 347 925 q 407 1103 404 1010 l 446 1103 q 403 940 443 994 q 293 886 363 886 z "},"ẵ":{"ha":592,"x_min":57,"x_max":499,"o":"m 271 761 q 397 739 347 761 q 473 664 447 716 q 499 524 499 611 l 499 0 l 457 0 l 453 85 l 447 85 q 364 13 413 38 q 254 -11 315 -11 q 151 11 195 -11 q 82 78 106 34 q 57 185 57 122 q 113 334 57 281 q 285 400 169 388 l 451 419 l 451 525 q 431 640 451 598 q 370 698 410 681 q 269 715 331 715 q 185 707 231 715 q 94 683 140 699 l 94 731 q 180 753 131 744 q 271 761 228 761 m 258 35 q 363 63 313 35 q 451 154 414 90 l 451 373 l 283 354 q 151 305 194 345 q 108 190 108 264 q 147 73 108 112 q 258 35 185 35 m 374 1164 q 332 1171 351 1164 q 283 1193 312 1178 q 242 1212 258 1206 q 210 1218 226 1218 q 160 1206 182 1218 q 118 1168 138 1194 l 118 1214 q 158 1245 134 1234 q 210 1257 181 1257 q 252 1250 232 1257 q 301 1228 272 1242 q 341 1209 325 1215 q 374 1203 358 1203 q 423 1215 401 1203 q 465 1253 445 1227 l 465 1207 q 426 1175 449 1187 q 374 1164 402 1164 m 293 886 q 182 941 223 886 q 138 1103 140 995 l 176 1103 q 210 967 181 1009 q 293 925 240 925 q 375 967 347 925 q 407 1103 404 1010 l 446 1103 q 403 940 443 994 q 293 886 363 886 z "},"â":{"ha":592,"x_min":57,"x_max":499,"o":"m 271 761 q 397 739 347 761 q 473 664 447 716 q 499 524 499 611 l 499 0 l 457 0 l 453 85 l 447 85 q 364 13 413 38 q 254 -11 315 -11 q 151 11 195 -11 q 82 78 106 34 q 57 185 57 122 q 113 334 57 281 q 285 400 169 388 l 451 419 l 451 525 q 431 640 451 598 q 370 698 410 681 q 269 715 331 715 q 185 707 231 715 q 94 683 140 699 l 94 731 q 180 753 131 744 q 271 761 228 761 m 258 35 q 363 63 313 35 q 451 154 414 90 l 451 373 l 283 354 q 151 305 194 345 q 108 190 108 264 q 147 73 108 112 q 258 35 185 35 m 440 878 l 396 878 l 292 1092 l 188 878 l 143 878 l 265 1122 l 318 1122 l 440 878 z "},"ấ":{"ha":592,"x_min":57,"x_max":554,"o":"m 271 761 q 397 739 347 761 q 473 664 447 716 q 499 524 499 611 l 499 0 l 457 0 l 453 85 l 447 85 q 364 13 413 38 q 254 -11 315 -11 q 151 11 195 -11 q 82 78 106 34 q 57 185 57 122 q 113 334 57 281 q 285 400 169 388 l 451 419 l 451 525 q 431 640 451 598 q 370 698 410 681 q 269 715 331 715 q 185 707 231 715 q 94 683 140 699 l 94 731 q 180 753 131 744 q 271 761 228 761 m 258 35 q 363 63 313 35 q 451 154 414 90 l 451 373 l 283 354 q 151 305 194 345 q 108 190 108 264 q 147 73 108 112 q 258 35 185 35 m 504 1297 l 554 1297 l 454 1108 l 415 1108 l 504 1297 m 265 1122 l 318 1122 l 440 878 l 396 878 l 292 1092 l 188 878 l 143 878 l 265 1122 z "},"ậ":{"ha":592,"x_min":57,"x_max":499,"o":"m 271 761 q 397 739 347 761 q 473 664 447 716 q 499 524 499 611 l 499 0 l 457 0 l 453 85 l 447 85 q 364 13 413 38 q 254 -11 315 -11 q 151 11 195 -11 q 82 78 106 34 q 57 185 57 122 q 113 334 57 281 q 285 400 169 388 l 451 419 l 451 525 q 431 640 451 598 q 370 698 410 681 q 269 715 331 715 q 185 707 231 715 q 94 683 140 699 l 94 731 q 180 753 131 744 q 271 761 228 761 m 258 35 q 363 63 313 35 q 451 154 414 90 l 451 373 l 283 354 q 151 305 194 345 q 108 190 108 264 q 147 73 108 112 q 258 35 185 35 m 294 -215 q 264 -203 276 -215 q 251 -172 251 -192 q 264 -140 251 -153 q 294 -128 276 -128 q 325 -140 313 -128 q 338 -172 338 -153 q 325 -203 338 -192 q 294 -215 313 -215 m 440 878 l 396 878 l 292 1092 l 188 878 l 143 878 l 265 1122 l 318 1122 l 440 878 z "},"ầ":{"ha":592,"x_min":57,"x_max":499,"o":"m 271 761 q 397 739 347 761 q 473 664 447 716 q 499 524 499 611 l 499 0 l 457 0 l 453 85 l 447 85 q 364 13 413 38 q 254 -11 315 -11 q 151 11 195 -11 q 82 78 106 34 q 57 185 57 122 q 113 334 57 281 q 285 400 169 388 l 451 419 l 451 525 q 431 640 451 598 q 370 698 410 681 q 269 715 331 715 q 185 707 231 715 q 94 683 140 699 l 94 731 q 180 753 131 744 q 271 761 228 761 m 258 35 q 363 63 313 35 q 451 154 414 90 l 451 373 l 283 354 q 151 305 194 345 q 108 190 108 264 q 147 73 108 112 q 258 35 185 35 m 454 1108 l 415 1108 l 315 1297 l 365 1297 l 454 1108 m 265 1122 l 318 1122 l 440 878 l 396 878 l 292 1092 l 188 878 l 143 878 l 265 1122 z "},"ẩ":{"ha":592,"x_min":57,"x_max":546,"o":"m 271 761 q 397 739 347 761 q 473 664 447 716 q 499 524 499 611 l 499 0 l 457 0 l 453 85 l 447 85 q 364 13 413 38 q 254 -11 315 -11 q 151 11 195 -11 q 82 78 106 34 q 57 185 57 122 q 113 334 57 281 q 285 400 169 388 l 451 419 l 451 525 q 431 640 451 598 q 370 698 410 681 q 269 715 331 715 q 185 707 231 715 q 94 683 140 699 l 94 731 q 180 753 131 744 q 271 761 228 761 m 258 35 q 363 63 313 35 q 451 154 414 90 l 451 373 l 283 354 q 151 305 194 345 q 108 190 108 264 q 147 73 108 112 q 258 35 185 35 m 426 1297 q 515 1277 485 1297 q 546 1225 546 1257 q 531 1184 546 1198 q 488 1156 517 1170 q 454 1134 465 1144 q 440 1108 442 1124 l 399 1108 q 416 1151 400 1136 q 460 1179 432 1165 q 493 1199 483 1190 q 504 1224 504 1208 q 487 1250 504 1241 q 426 1260 470 1260 q 303 1233 362 1260 l 303 1272 q 360 1291 327 1284 q 426 1297 393 1297 m 265 1122 l 318 1122 l 440 878 l 396 878 l 292 1092 l 188 878 l 143 878 l 265 1122 z "},"ẫ":{"ha":592,"x_min":57,"x_max":499,"o":"m 271 761 q 397 739 347 761 q 473 664 447 716 q 499 524 499 611 l 499 0 l 457 0 l 453 85 l 447 85 q 364 13 413 38 q 254 -11 315 -11 q 151 11 195 -11 q 82 78 106 34 q 57 185 57 122 q 113 334 57 281 q 285 400 169 388 l 451 419 l 451 525 q 431 640 451 598 q 370 698 410 681 q 269 715 331 715 q 185 707 231 715 q 94 683 140 699 l 94 731 q 180 753 131 744 q 271 761 228 761 m 258 35 q 363 63 313 35 q 451 154 414 90 l 451 373 l 283 354 q 151 305 194 345 q 108 190 108 264 q 147 73 108 112 q 258 35 185 35 m 374 1203 q 423 1215 401 1203 q 465 1253 445 1227 l 465 1207 q 426 1175 449 1187 q 374 1164 402 1164 q 332 1171 351 1164 q 283 1193 312 1178 q 242 1212 258 1206 q 210 1218 226 1218 q 160 1206 182 1218 q 118 1168 138 1194 l 118 1214 q 158 1245 134 1234 q 210 1257 181 1257 q 252 1250 232 1257 q 301 1228 272 1242 q 341 1209 325 1215 q 374 1203 358 1203 m 265 1122 l 318 1122 l 440 878 l 396 878 l 292 1092 l 188 878 l 143 878 l 265 1122 z "},"ȁ":{"ha":592,"x_min":57,"x_max":499,"o":"m 271 761 q 397 739 347 761 q 473 664 447 716 q 499 524 499 611 l 499 0 l 457 0 l 453 85 l 447 85 q 364 13 413 38 q 254 -11 315 -11 q 151 11 195 -11 q 82 78 106 34 q 57 185 57 122 q 113 334 57 281 q 285 400 169 388 l 451 419 l 451 525 q 431 640 451 598 q 370 698 410 681 q 269 715 331 715 q 185 707 231 715 q 94 683 140 699 l 94 731 q 180 753 131 744 q 271 761 228 761 m 258 35 q 363 63 313 35 q 451 154 414 90 l 451 373 l 283 354 q 151 305 194 345 q 108 190 108 264 q 147 73 108 112 q 258 35 185 35 m 185 878 l 118 1122 l 164 1122 l 222 878 l 185 878 m 361 878 l 294 1122 l 340 1122 l 399 878 l 361 878 z "},"ä":{"ha":592,"x_min":57,"x_max":499,"o":"m 271 761 q 397 739 347 761 q 473 664 447 716 q 499 524 499 611 l 499 0 l 457 0 l 453 85 l 447 85 q 364 13 413 38 q 254 -11 315 -11 q 151 11 195 -11 q 82 78 106 34 q 57 185 57 122 q 113 334 57 281 q 285 400 169 388 l 451 419 l 451 525 q 431 640 451 598 q 370 698 410 681 q 269 715 331 715 q 185 707 231 715 q 94 683 140 699 l 94 731 q 180 753 131 744 q 271 761 228 761 m 258 35 q 363 63 313 35 q 451 154 414 90 l 451 373 l 283 354 q 151 305 194 345 q 108 190 108 264 q 147 73 108 112 q 258 35 185 35 m 181 944 q 150 956 162 944 q 138 988 138 968 q 150 1019 138 1007 q 181 1032 162 1032 q 211 1019 199 1032 q 224 988 224 1007 q 211 956 224 968 q 181 944 199 944 m 403 944 q 372 956 384 944 q 360 988 360 968 q 372 1019 360 1007 q 403 1032 384 1032 q 434 1019 422 1032 q 446 988 446 1007 q 434 956 446 968 q 403 944 422 944 z "},"ạ":{"ha":592,"x_min":57,"x_max":499,"o":"m 271 761 q 397 739 347 761 q 473 664 447 716 q 499 524 499 611 l 499 0 l 457 0 l 453 85 l 447 85 q 364 13 413 38 q 254 -11 315 -11 q 151 11 195 -11 q 82 78 106 34 q 57 185 57 122 q 113 334 57 281 q 285 400 169 388 l 451 419 l 451 525 q 431 640 451 598 q 370 698 410 681 q 269 715 331 715 q 185 707 231 715 q 94 683 140 699 l 94 731 q 180 753 131 744 q 271 761 228 761 m 258 35 q 363 63 313 35 q 451 154 414 90 l 451 373 l 283 354 q 151 305 194 345 q 108 190 108 264 q 147 73 108 112 q 258 35 185 35 m 294 -215 q 264 -203 276 -215 q 251 -172 251 -192 q 264 -140 251 -153 q 294 -128 276 -128 q 325 -140 313 -128 q 338 -172 338 -153 q 325 -203 338 -192 q 294 -215 313 -215 z "},"à":{"ha":592,"x_min":57,"x_max":499,"o":"m 271 761 q 397 739 347 761 q 473 664 447 716 q 499 524 499 611 l 499 0 l 457 0 l 453 85 l 447 85 q 364 13 413 38 q 254 -11 315 -11 q 151 11 195 -11 q 82 78 106 34 q 57 185 57 122 q 113 334 57 281 q 285 400 169 388 l 451 419 l 451 525 q 431 640 451 598 q 370 698 410 681 q 269 715 331 715 q 185 707 231 715 q 94 683 140 699 l 94 731 q 180 753 131 744 q 271 761 228 761 m 258 35 q 363 63 313 35 q 451 154 414 90 l 451 373 l 283 354 q 151 305 194 345 q 108 190 108 264 q 147 73 108 112 q 258 35 185 35 m 272 878 l 158 1122 l 208 1122 l 311 878 l 272 878 z "},"ả":{"ha":592,"x_min":57,"x_max":499,"o":"m 271 761 q 397 739 347 761 q 473 664 447 716 q 499 524 499 611 l 499 0 l 457 0 l 453 85 l 447 85 q 364 13 413 38 q 254 -11 315 -11 q 151 11 195 -11 q 82 78 106 34 q 57 185 57 122 q 113 334 57 281 q 285 400 169 388 l 451 419 l 451 525 q 431 640 451 598 q 370 698 410 681 q 269 715 331 715 q 185 707 231 715 q 94 683 140 699 l 94 731 q 180 753 131 744 q 271 761 228 761 m 258 35 q 363 63 313 35 q 451 154 414 90 l 451 373 l 283 354 q 151 305 194 345 q 108 190 108 264 q 147 73 108 112 q 258 35 185 35 m 269 878 q 285 936 269 914 q 329 981 301 958 q 360 1009 350 997 q 369 1039 369 1022 q 352 1079 369 1066 q 292 1092 334 1092 q 242 1087 269 1092 q 196 1075 216 1083 l 196 1114 q 241 1126 215 1122 q 290 1131 266 1131 q 381 1107 351 1131 q 411 1040 411 1083 q 398 993 411 1010 q 360 954 385 975 q 324 919 336 935 q 313 878 313 903 l 269 878 z "},"ȃ":{"ha":592,"x_min":57,"x_max":499,"o":"m 271 761 q 397 739 347 761 q 473 664 447 716 q 499 524 499 611 l 499 0 l 457 0 l 453 85 l 447 85 q 364 13 413 38 q 254 -11 315 -11 q 151 11 195 -11 q 82 78 106 34 q 57 185 57 122 q 113 334 57 281 q 285 400 169 388 l 451 419 l 451 525 q 431 640 451 598 q 370 698 410 681 q 269 715 331 715 q 185 707 231 715 q 94 683 140 699 l 94 731 q 180 753 131 744 q 271 761 228 761 m 258 35 q 363 63 313 35 q 451 154 414 90 l 451 373 l 283 354 q 151 305 194 345 q 108 190 108 264 q 147 73 108 112 q 258 35 185 35 m 138 897 q 180 1061 140 1008 q 290 1114 220 1114 q 402 1060 360 1114 q 446 897 443 1006 l 407 897 q 373 1032 402 990 q 290 1074 344 1074 q 208 1032 236 1074 q 176 897 179 990 l 138 897 z "},"ā":{"ha":592,"x_min":57,"x_max":499,"o":"m 271 761 q 397 739 347 761 q 473 664 447 716 q 499 524 499 611 l 499 0 l 457 0 l 453 85 l 447 85 q 364 13 413 38 q 254 -11 315 -11 q 151 11 195 -11 q 82 78 106 34 q 57 185 57 122 q 113 334 57 281 q 285 400 169 388 l 451 419 l 451 525 q 431 640 451 598 q 370 698 410 681 q 269 715 331 715 q 185 707 231 715 q 94 683 140 699 l 94 731 q 180 753 131 744 q 271 761 228 761 m 258 35 q 363 63 313 35 q 451 154 414 90 l 451 373 l 283 354 q 151 305 194 345 q 108 190 108 264 q 147 73 108 112 q 258 35 185 35 m 118 968 l 118 1008 l 465 1008 l 465 968 l 118 968 z "},"ą":{"ha":592,"x_min":57,"x_max":567,"o":"m 474 -242 q 567 -211 523 -242 l 567 -250 q 524 -270 548 -263 q 475 -278 499 -278 q 384 -247 417 -278 q 351 -161 351 -216 q 377 -71 351 -113 q 456 15 402 -28 l 453 85 l 447 85 q 364 13 413 38 q 254 -11 315 -11 q 151 11 195 -11 q 82 78 106 34 q 57 185 57 122 q 113 334 57 281 q 285 400 169 388 l 451 419 l 451 525 q 431 640 451 598 q 370 698 410 681 q 269 715 331 715 q 185 707 231 715 q 94 683 140 699 l 94 731 q 180 753 131 744 q 271 761 228 761 q 397 739 347 761 q 473 664 447 716 q 499 524 499 611 l 499 0 q 416 -79 442 -42 q 390 -158 390 -117 q 412 -220 390 -199 q 474 -242 434 -242 m 258 35 q 363 63 313 35 q 451 154 414 90 l 451 373 l 283 354 q 151 305 194 345 q 108 190 108 264 q 147 73 108 112 q 258 35 185 35 z "},"å":{"ha":592,"x_min":57,"x_max":499,"o":"m 271 761 q 397 739 347 761 q 473 664 447 716 q 499 524 499 611 l 499 0 l 457 0 l 453 85 l 447 85 q 364 13 413 38 q 254 -11 315 -11 q 151 11 195 -11 q 82 78 106 34 q 57 185 57 122 q 113 334 57 281 q 285 400 169 388 l 451 419 l 451 525 q 431 640 451 598 q 370 698 410 681 q 269 715 331 715 q 185 707 231 715 q 94 683 140 699 l 94 731 q 180 753 131 744 q 271 761 228 761 m 258 35 q 363 63 313 35 q 451 154 414 90 l 451 373 l 283 354 q 151 305 194 345 q 108 190 108 264 q 147 73 108 112 q 258 35 185 35 m 292 875 q 226 892 256 875 q 181 938 197 908 q 164 1003 164 967 q 181 1068 164 1039 q 226 1114 197 1097 q 292 1131 256 1131 q 357 1114 328 1131 q 403 1068 386 1097 q 419 1003 419 1039 q 403 938 419 967 q 357 892 386 908 q 292 875 328 875 m 292 911 q 357 936 332 911 q 382 1003 382 960 q 357 1070 382 1045 q 292 1094 332 1094 q 226 1070 251 1094 q 201 1003 201 1045 q 226 936 201 960 q 292 911 251 911 z "},"ǻ":{"ha":592,"x_min":57,"x_max":503,"o":"m 271 761 q 397 739 347 761 q 473 664 447 716 q 499 524 499 611 l 499 0 l 457 0 l 453 85 l 447 85 q 364 13 413 38 q 254 -11 315 -11 q 151 11 195 -11 q 82 78 106 34 q 57 185 57 122 q 113 334 57 281 q 285 400 169 388 l 451 419 l 451 525 q 431 640 451 598 q 370 698 410 681 q 269 715 331 715 q 185 707 231 715 q 94 683 140 699 l 94 731 q 180 753 131 744 q 271 761 228 761 m 258 35 q 363 63 313 35 q 451 154 414 90 l 451 373 l 283 354 q 151 305 194 345 q 108 190 108 264 q 147 73 108 112 q 258 35 185 35 m 383 1094 q 410 1053 401 1077 q 419 1003 419 1030 q 403 938 419 967 q 357 892 386 908 q 292 875 328 875 q 226 892 256 875 q 181 938 197 908 q 164 1003 164 967 q 181 1068 164 1039 q 226 1114 197 1097 q 292 1131 256 1131 q 354 1116 325 1131 l 450 1236 l 503 1236 l 383 1094 m 292 911 q 357 936 332 911 q 382 1003 382 960 q 357 1070 382 1045 q 292 1094 332 1094 q 226 1070 251 1094 q 201 1003 201 1045 q 226 936 201 960 q 292 911 251 911 z "},"ã":{"ha":592,"x_min":57,"x_max":499,"o":"m 271 761 q 397 739 347 761 q 473 664 447 716 q 499 524 499 611 l 499 0 l 457 0 l 453 85 l 447 85 q 364 13 413 38 q 254 -11 315 -11 q 151 11 195 -11 q 82 78 106 34 q 57 185 57 122 q 113 334 57 281 q 285 400 169 388 l 451 419 l 451 525 q 431 640 451 598 q 370 698 410 681 q 269 715 331 715 q 185 707 231 715 q 94 683 140 699 l 94 731 q 180 753 131 744 q 271 761 228 761 m 258 35 q 363 63 313 35 q 451 154 414 90 l 451 373 l 283 354 q 151 305 194 345 q 108 190 108 264 q 147 73 108 112 q 258 35 185 35 m 374 958 q 332 966 351 958 q 283 988 312 973 q 242 1006 258 1000 q 210 1013 226 1013 q 160 1000 182 1013 q 118 963 138 988 l 118 1008 q 158 1040 134 1028 q 210 1051 181 1051 q 252 1044 232 1051 q 301 1022 272 1037 q 341 1003 325 1010 q 374 997 358 997 q 423 1009 401 997 q 465 1047 445 1022 l 465 1001 q 426 970 449 981 q 374 958 402 958 z "},"æ":{"ha":971,"x_min":57,"x_max":918,"o":"m 918 354 l 499 354 q 527 164 500 235 q 604 64 553 94 q 732 33 654 33 q 885 63 793 33 l 885 15 q 729 -12 805 -12 q 581 22 640 -12 q 489 133 521 56 q 385 22 444 55 q 256 -11 326 -11 q 152 11 197 -11 q 82 77 108 33 q 57 182 57 120 q 117 342 57 284 q 307 400 177 400 l 451 400 l 451 529 q 431 641 451 601 q 370 699 410 682 q 269 715 331 715 q 185 707 231 715 q 94 683 140 699 l 94 731 q 180 753 131 744 q 271 761 228 761 q 417 726 363 761 q 487 612 470 692 q 686 763 540 763 q 858 673 799 763 q 918 375 918 584 l 918 354 m 686 717 q 551 645 600 717 q 499 400 501 574 l 868 400 q 843 591 866 522 q 781 689 819 661 q 686 717 742 717 m 260 35 q 380 71 325 35 q 470 190 435 107 q 451 354 453 258 l 306 354 q 155 310 201 354 q 108 188 108 265 q 148 73 108 111 q 260 35 188 35 z "},"ǽ":{"ha":971,"x_min":57,"x_max":918,"o":"m 918 354 l 499 354 q 527 164 500 235 q 604 64 553 94 q 732 33 654 33 q 885 63 793 33 l 885 15 q 729 -12 805 -12 q 581 22 640 -12 q 489 133 521 56 q 385 22 444 55 q 256 -11 326 -11 q 152 11 197 -11 q 82 77 108 33 q 57 182 57 120 q 117 342 57 284 q 307 400 177 400 l 451 400 l 451 529 q 431 641 451 601 q 370 699 410 682 q 269 715 331 715 q 185 707 231 715 q 94 683 140 699 l 94 731 q 180 753 131 744 q 271 761 228 761 q 417 726 363 761 q 487 612 470 692 q 686 763 540 763 q 858 673 799 763 q 918 375 918 584 l 918 354 m 686 717 q 551 645 600 717 q 499 400 501 574 l 868 400 q 843 591 866 522 q 781 689 819 661 q 686 717 742 717 m 260 35 q 380 71 325 35 q 470 190 435 107 q 451 354 453 258 l 306 354 q 155 310 201 354 q 108 188 108 265 q 148 73 108 111 q 260 35 188 35 m 456 878 l 558 1122 l 608 1122 l 494 878 l 456 878 z "},"b":{"ha":635,"x_min":100,"x_max":574,"o":"m 258 -12 q 175 -6 218 -12 q 100 13 131 1 l 100 1122 l 147 1122 l 147 679 l 151 679 q 225 738 179 714 q 328 761 271 761 q 506 676 438 761 q 574 389 574 590 q 492 85 574 183 q 258 -12 411 -12 m 258 33 q 457 116 390 33 q 524 383 524 199 q 498 586 524 513 q 429 687 472 659 q 325 715 385 715 q 222 687 271 715 q 147 607 174 658 l 147 49 q 200 38 169 42 q 258 33 231 33 z "},"c":{"ha":488,"x_min":61,"x_max":476,"o":"m 325 -12 q 180 25 238 -12 q 91 149 122 63 q 61 375 61 234 q 94 601 61 517 q 192 724 128 686 q 357 761 257 761 q 476 746 421 761 l 476 699 q 414 711 444 707 q 360 715 383 715 q 218 685 272 715 q 138 581 165 654 q 111 378 111 508 q 135 172 111 247 q 208 65 160 97 q 331 33 256 33 q 476 63 394 33 l 476 15 q 325 -12 399 -12 z "},"ć":{"ha":488,"x_min":61,"x_max":476,"o":"m 325 -12 q 180 25 238 -12 q 91 149 122 63 q 61 375 61 234 q 94 601 61 517 q 192 724 128 686 q 357 761 257 761 q 476 746 421 761 l 476 699 q 414 711 444 707 q 360 715 383 715 q 218 685 272 715 q 138 581 165 654 q 111 378 111 508 q 135 172 111 247 q 208 65 160 97 q 331 33 256 33 q 476 63 394 33 l 476 15 q 325 -12 399 -12 m 276 878 l 379 1122 l 429 1122 l 315 878 l 276 878 z "},"č":{"ha":488,"x_min":61,"x_max":476,"o":"m 325 -12 q 180 25 238 -12 q 91 149 122 63 q 61 375 61 234 q 94 601 61 517 q 192 724 128 686 q 357 761 257 761 q 476 746 421 761 l 476 699 q 414 711 444 707 q 360 715 383 715 q 218 685 272 715 q 138 581 165 654 q 111 378 111 508 q 135 172 111 247 q 208 65 160 97 q 331 33 256 33 q 476 63 394 33 l 476 15 q 325 -12 399 -12 m 400 1122 l 444 1122 l 322 878 l 269 878 l 147 1122 l 192 1122 l 296 908 l 400 1122 z "},"ç":{"ha":488,"x_min":61,"x_max":476,"o":"m 360 715 q 218 685 272 715 q 138 581 165 654 q 111 378 111 508 q 135 172 111 247 q 208 65 160 97 q 331 33 256 33 q 476 63 394 33 l 476 15 q 325 -12 399 -12 l 317 -12 l 317 -81 q 385 -111 362 -85 q 408 -179 408 -137 q 378 -251 408 -224 q 293 -278 347 -278 q 240 -272 267 -278 q 193 -254 213 -265 l 193 -215 q 297 -242 240 -242 q 371 -179 371 -242 q 296 -114 371 -114 l 278 -114 l 278 -10 q 115 95 169 5 q 61 375 61 186 q 94 601 61 517 q 192 724 128 686 q 357 761 257 761 q 476 746 421 761 l 476 699 q 414 711 444 707 q 360 715 383 715 z "},"ḉ":{"ha":488,"x_min":61,"x_max":476,"o":"m 429 1122 l 315 878 l 276 878 l 379 1122 l 429 1122 m 360 715 q 218 685 272 715 q 138 581 165 654 q 111 378 111 508 q 135 172 111 247 q 208 65 160 97 q 331 33 256 33 q 476 63 394 33 l 476 15 q 325 -12 399 -12 l 317 -12 l 317 -81 q 385 -111 362 -85 q 408 -179 408 -137 q 378 -251 408 -224 q 293 -278 347 -278 q 240 -272 267 -278 q 193 -254 213 -265 l 193 -215 q 297 -242 240 -242 q 371 -179 371 -242 q 296 -114 371 -114 l 278 -114 l 278 -10 q 115 95 169 5 q 61 375 61 186 q 94 601 61 517 q 192 724 128 686 q 357 761 257 761 q 476 746 421 761 l 476 699 q 414 711 444 707 q 360 715 383 715 z "},"ĉ":{"ha":488,"x_min":61,"x_max":476,"o":"m 325 -12 q 180 25 238 -12 q 91 149 122 63 q 61 375 61 234 q 94 601 61 517 q 192 724 128 686 q 357 761 257 761 q 476 746 421 761 l 476 699 q 414 711 444 707 q 360 715 383 715 q 218 685 272 715 q 138 581 165 654 q 111 378 111 508 q 135 172 111 247 q 208 65 160 97 q 331 33 256 33 q 476 63 394 33 l 476 15 q 325 -12 399 -12 m 444 878 l 400 878 l 296 1092 l 192 878 l 147 878 l 269 1122 l 322 1122 l 444 878 z "},"ċ":{"ha":488,"x_min":61,"x_max":476,"o":"m 325 -12 q 180 25 238 -12 q 91 149 122 63 q 61 375 61 234 q 94 601 61 517 q 192 724 128 686 q 357 761 257 761 q 476 746 421 761 l 476 699 q 414 711 444 707 q 360 715 383 715 q 218 685 272 715 q 138 581 165 654 q 111 378 111 508 q 135 172 111 247 q 208 65 160 97 q 331 33 256 33 q 476 63 394 33 l 476 15 q 325 -12 399 -12 m 296 944 q 265 956 277 944 q 253 988 253 968 q 265 1019 253 1007 q 296 1032 277 1032 q 327 1019 315 1032 q 339 988 339 1007 q 327 956 339 968 q 296 944 315 944 z "},"d":{"ha":635,"x_min":61,"x_max":535,"o":"m 310 -12 q 129 73 197 -12 q 61 360 61 158 q 143 664 61 566 q 381 761 224 761 q 488 754 432 761 l 488 1122 l 535 1122 l 535 0 l 493 0 l 489 74 l 483 74 q 411 12 456 36 q 310 -12 366 -12 m 311 33 q 413 62 365 33 q 488 144 461 91 l 488 706 q 436 713 467 710 q 379 715 405 715 q 178 633 246 715 q 111 365 111 551 q 137 163 111 236 q 206 61 163 90 q 311 33 250 33 z "},"ð":{"ha":633,"x_min":61,"x_max":571,"o":"m 422 924 q 531 668 490 807 q 571 396 571 529 q 505 86 571 185 q 318 -12 439 -12 q 61 375 61 -12 q 127 670 61 579 q 317 761 194 761 q 402 747 363 761 q 473 698 440 733 q 376 917 438 815 l 128 875 l 121 915 l 352 954 q 200 1122 288 1048 l 261 1122 q 399 962 336 1061 l 550 988 l 557 947 l 422 924 m 318 33 q 468 114 414 33 q 522 372 522 195 q 498 577 522 501 q 428 684 473 653 q 317 715 383 715 q 206 684 251 715 q 136 579 160 653 q 111 378 111 504 q 136 173 111 249 q 206 65 160 97 q 318 33 251 33 z "},"ď":{"ha":635,"x_min":61,"x_max":649,"o":"m 310 -12 q 129 73 197 -12 q 61 360 61 158 q 143 664 61 566 q 381 761 224 761 q 488 754 432 761 l 488 1122 l 535 1122 l 535 0 l 493 0 l 489 74 l 483 74 q 411 12 456 36 q 310 -12 366 -12 m 311 33 q 413 62 365 33 q 488 144 461 91 l 488 706 q 436 713 467 710 q 379 715 405 715 q 178 633 246 715 q 111 365 111 551 q 137 163 111 236 q 206 61 163 90 q 311 33 250 33 m 592 819 q 604 1122 604 929 l 649 1122 q 624 819 649 947 l 592 819 z "},"đ":{"ha":635,"x_min":61,"x_max":631,"o":"m 631 921 l 535 921 l 535 0 l 493 0 l 489 74 l 483 74 q 411 12 456 36 q 310 -12 366 -12 q 129 73 197 -12 q 61 360 61 158 q 143 664 61 566 q 381 761 224 761 q 488 754 432 761 l 488 921 l 279 921 l 279 963 l 488 963 l 488 1122 l 535 1122 l 535 963 l 631 963 l 631 921 m 488 706 q 436 713 467 710 q 379 715 405 715 q 178 633 246 715 q 111 365 111 551 q 137 163 111 236 q 206 61 163 90 q 311 33 250 33 q 413 62 365 33 q 488 144 461 91 l 488 706 z "},"ḍ":{"ha":635,"x_min":61,"x_max":535,"o":"m 310 -12 q 129 73 197 -12 q 61 360 61 158 q 143 664 61 566 q 381 761 224 761 q 488 754 432 761 l 488 1122 l 535 1122 l 535 0 l 493 0 l 489 74 l 483 74 q 411 12 456 36 q 310 -12 366 -12 m 311 33 q 413 62 365 33 q 488 144 461 91 l 488 706 q 436 713 467 710 q 379 715 405 715 q 178 633 246 715 q 111 365 111 551 q 137 163 111 236 q 206 61 163 90 q 311 33 250 33 m 315 -215 q 284 -203 297 -215 q 272 -172 272 -192 q 284 -140 272 -153 q 315 -128 297 -128 q 346 -140 334 -128 q 358 -172 358 -153 q 346 -203 358 -192 q 315 -215 334 -215 z "},"ḏ":{"ha":635,"x_min":61,"x_max":535,"o":"m 310 -12 q 129 73 197 -12 q 61 360 61 158 q 143 664 61 566 q 381 761 224 761 q 488 754 432 761 l 488 1122 l 535 1122 l 535 0 l 493 0 l 489 74 l 483 74 q 411 12 456 36 q 310 -12 366 -12 m 311 33 q 413 62 365 33 q 488 144 461 91 l 488 706 q 436 713 467 710 q 379 715 405 715 q 178 633 246 715 q 111 365 111 551 q 137 163 111 236 q 206 61 163 90 q 311 33 250 33 m 163 -192 l 163 -151 l 468 -151 l 468 -192 l 163 -192 z "},"ǳ":{"ha":1150,"x_min":61,"x_max":1115,"o":"m 310 -12 q 129 73 197 -12 q 61 360 61 158 q 143 664 61 566 q 381 761 224 761 q 488 754 432 761 l 488 1122 l 535 1122 l 535 0 l 493 0 l 489 74 l 483 74 q 411 12 456 36 q 310 -12 366 -12 m 311 33 q 413 62 365 33 q 488 144 461 91 l 488 706 q 436 713 467 710 q 379 715 405 715 q 178 633 246 715 q 111 365 111 551 q 137 163 111 236 q 206 61 163 90 q 311 33 250 33 m 732 44 l 1115 44 l 1115 0 l 672 0 l 672 28 l 1049 706 l 679 706 l 679 750 l 1108 750 l 1108 722 l 732 44 z "},"ǆ":{"ha":1150,"x_min":61,"x_max":1115,"o":"m 310 -12 q 129 73 197 -12 q 61 360 61 158 q 143 664 61 566 q 381 761 224 761 q 488 754 432 761 l 488 1122 l 535 1122 l 535 0 l 493 0 l 489 74 l 483 74 q 411 12 456 36 q 310 -12 366 -12 m 311 33 q 413 62 365 33 q 488 144 461 91 l 488 706 q 436 713 467 710 q 379 715 405 715 q 178 633 246 715 q 111 365 111 551 q 137 163 111 236 q 206 61 163 90 q 311 33 250 33 m 732 44 l 1115 44 l 1115 0 l 672 0 l 672 28 l 1049 706 l 679 706 l 679 750 l 1108 750 l 1108 722 l 732 44 m 999 1122 l 1043 1122 l 921 878 l 868 878 l 746 1122 l 790 1122 l 894 908 l 999 1122 z "},"e":{"ha":589,"x_min":61,"x_max":536,"o":"m 536 354 l 111 354 q 140 164 113 234 q 217 64 167 94 q 347 33 268 33 q 503 63 411 33 l 503 15 q 344 -12 423 -12 q 188 25 250 -12 q 93 149 126 63 q 61 375 61 234 q 126 670 61 579 q 304 761 192 761 q 476 672 416 761 q 536 375 536 583 l 536 354 m 304 715 q 165 644 216 715 q 111 400 114 574 l 486 400 q 462 589 485 519 q 400 687 439 658 q 304 715 360 715 z "},"é":{"ha":589,"x_min":61,"x_max":536,"o":"m 536 354 l 111 354 q 140 164 113 234 q 217 64 167 94 q 347 33 268 33 q 503 63 411 33 l 503 15 q 344 -12 423 -12 q 188 25 250 -12 q 93 149 126 63 q 61 375 61 234 q 126 670 61 579 q 304 761 192 761 q 476 672 416 761 q 536 375 536 583 l 536 354 m 304 715 q 165 644 216 715 q 111 400 114 574 l 486 400 q 462 589 485 519 q 400 687 439 658 q 304 715 360 715 m 282 878 l 385 1122 l 435 1122 l 321 878 l 282 878 z "},"ĕ":{"ha":589,"x_min":61,"x_max":536,"o":"m 536 354 l 111 354 q 140 164 113 234 q 217 64 167 94 q 347 33 268 33 q 503 63 411 33 l 503 15 q 344 -12 423 -12 q 188 25 250 -12 q 93 149 126 63 q 61 375 61 234 q 126 670 61 579 q 304 761 192 761 q 476 672 416 761 q 536 375 536 583 l 536 354 m 304 715 q 165 644 216 715 q 111 400 114 574 l 486 400 q 462 589 485 519 q 400 687 439 658 q 304 715 360 715 m 303 886 q 191 941 233 886 q 147 1103 150 995 l 186 1103 q 220 967 191 1009 q 303 925 249 925 q 385 967 356 925 q 417 1103 414 1010 l 456 1103 q 413 940 453 994 q 303 886 372 886 z "},"ě":{"ha":589,"x_min":61,"x_max":536,"o":"m 536 354 l 111 354 q 140 164 113 234 q 217 64 167 94 q 347 33 268 33 q 503 63 411 33 l 503 15 q 344 -12 423 -12 q 188 25 250 -12 q 93 149 126 63 q 61 375 61 234 q 126 670 61 579 q 304 761 192 761 q 476 672 416 761 q 536 375 536 583 l 536 354 m 304 715 q 165 644 216 715 q 111 400 114 574 l 486 400 q 462 589 485 519 q 400 687 439 658 q 304 715 360 715 m 406 1122 l 450 1122 l 328 878 l 275 878 l 153 1122 l 197 1122 l 301 908 l 406 1122 z "},"ḝ":{"ha":589,"x_min":61,"x_max":536,"o":"m 303 886 q 191 941 233 886 q 147 1103 150 995 l 186 1103 q 220 967 191 1009 q 303 925 249 925 q 385 967 356 925 q 417 1103 414 1010 l 456 1103 q 413 940 453 994 q 303 886 372 886 m 536 354 l 111 354 q 140 164 113 234 q 217 64 167 94 q 347 33 268 33 q 503 63 411 33 l 503 15 q 344 -12 423 -12 q 322 -12 329 -12 l 322 -81 q 391 -111 367 -85 q 414 -179 414 -137 q 383 -251 414 -224 q 299 -278 353 -278 q 245 -272 273 -278 q 199 -254 218 -265 l 199 -215 q 303 -242 246 -242 q 376 -179 376 -242 q 301 -114 376 -114 l 283 -114 l 283 -8 q 116 99 172 9 q 61 375 61 190 q 126 670 61 579 q 304 761 192 761 q 476 672 416 761 q 536 375 536 583 l 536 354 m 304 715 q 165 644 216 715 q 111 400 114 574 l 486 400 q 462 589 485 519 q 400 687 439 658 q 304 715 360 715 z "},"ê":{"ha":589,"x_min":61,"x_max":536,"o":"m 536 354 l 111 354 q 140 164 113 234 q 217 64 167 94 q 347 33 268 33 q 503 63 411 33 l 503 15 q 344 -12 423 -12 q 188 25 250 -12 q 93 149 126 63 q 61 375 61 234 q 126 670 61 579 q 304 761 192 761 q 476 672 416 761 q 536 375 536 583 l 536 354 m 304 715 q 165 644 216 715 q 111 400 114 574 l 486 400 q 462 589 485 519 q 400 687 439 658 q 304 715 360 715 m 450 878 l 406 878 l 301 1092 l 197 878 l 153 878 l 275 1122 l 328 1122 l 450 878 z "},"ế":{"ha":589,"x_min":61,"x_max":564,"o":"m 536 354 l 111 354 q 140 164 113 234 q 217 64 167 94 q 347 33 268 33 q 503 63 411 33 l 503 15 q 344 -12 423 -12 q 188 25 250 -12 q 93 149 126 63 q 61 375 61 234 q 126 670 61 579 q 304 761 192 761 q 476 672 416 761 q 536 375 536 583 l 536 354 m 304 715 q 165 644 216 715 q 111 400 114 574 l 486 400 q 462 589 485 519 q 400 687 439 658 q 304 715 360 715 m 514 1297 l 564 1297 l 464 1108 l 425 1108 l 514 1297 m 275 1122 l 328 1122 l 450 878 l 406 878 l 301 1092 l 197 878 l 153 878 l 275 1122 z "},"ệ":{"ha":589,"x_min":61,"x_max":536,"o":"m 536 354 l 111 354 q 140 164 113 234 q 217 64 167 94 q 347 33 268 33 q 503 63 411 33 l 503 15 q 344 -12 423 -12 q 188 25 250 -12 q 93 149 126 63 q 61 375 61 234 q 126 670 61 579 q 304 761 192 761 q 476 672 416 761 q 536 375 536 583 l 536 354 m 304 715 q 165 644 216 715 q 111 400 114 574 l 486 400 q 462 589 485 519 q 400 687 439 658 q 304 715 360 715 m 301 -215 q 270 -203 283 -215 q 258 -172 258 -192 q 270 -140 258 -153 q 301 -128 283 -128 q 332 -140 320 -128 q 344 -172 344 -153 q 332 -203 344 -192 q 301 -215 320 -215 m 450 878 l 406 878 l 301 1092 l 197 878 l 153 878 l 275 1122 l 328 1122 l 450 878 z "},"ề":{"ha":589,"x_min":61,"x_max":536,"o":"m 536 354 l 111 354 q 140 164 113 234 q 217 64 167 94 q 347 33 268 33 q 503 63 411 33 l 503 15 q 344 -12 423 -12 q 188 25 250 -12 q 93 149 126 63 q 61 375 61 234 q 126 670 61 579 q 304 761 192 761 q 476 672 416 761 q 536 375 536 583 l 536 354 m 304 715 q 165 644 216 715 q 111 400 114 574 l 486 400 q 462 589 485 519 q 400 687 439 658 q 304 715 360 715 m 464 1108 l 425 1108 l 325 1297 l 375 1297 l 464 1108 m 275 1122 l 328 1122 l 450 878 l 406 878 l 301 1092 l 197 878 l 153 878 l 275 1122 z "},"ể":{"ha":589,"x_min":61,"x_max":556,"o":"m 536 354 l 111 354 q 140 164 113 234 q 217 64 167 94 q 347 33 268 33 q 503 63 411 33 l 503 15 q 344 -12 423 -12 q 188 25 250 -12 q 93 149 126 63 q 61 375 61 234 q 126 670 61 579 q 304 761 192 761 q 476 672 416 761 q 536 375 536 583 l 536 354 m 304 715 q 165 644 216 715 q 111 400 114 574 l 486 400 q 462 589 485 519 q 400 687 439 658 q 304 715 360 715 m 436 1297 q 525 1277 494 1297 q 556 1225 556 1257 q 541 1184 556 1198 q 498 1156 526 1170 q 464 1134 475 1144 q 450 1108 452 1124 l 408 1108 q 426 1151 410 1136 q 470 1179 442 1165 q 503 1199 492 1190 q 514 1224 514 1208 q 497 1250 514 1241 q 436 1260 480 1260 q 313 1233 372 1260 l 313 1272 q 370 1291 337 1284 q 436 1297 403 1297 m 275 1122 l 328 1122 l 450 878 l 406 878 l 301 1092 l 197 878 l 153 878 l 275 1122 z "},"ễ":{"ha":589,"x_min":61,"x_max":536,"o":"m 536 354 l 111 354 q 140 164 113 234 q 217 64 167 94 q 347 33 268 33 q 503 63 411 33 l 503 15 q 344 -12 423 -12 q 188 25 250 -12 q 93 149 126 63 q 61 375 61 234 q 126 670 61 579 q 304 761 192 761 q 476 672 416 761 q 536 375 536 583 l 536 354 m 304 715 q 165 644 216 715 q 111 400 114 574 l 486 400 q 462 589 485 519 q 400 687 439 658 q 304 715 360 715 m 383 1203 q 433 1215 411 1203 q 475 1253 455 1227 l 475 1207 q 435 1175 459 1187 q 383 1164 412 1164 q 341 1171 361 1164 q 292 1193 322 1178 q 252 1212 268 1206 q 219 1218 235 1218 q 170 1206 192 1218 q 128 1168 148 1194 l 128 1214 q 167 1245 144 1234 q 219 1257 191 1257 q 261 1250 242 1257 q 310 1228 281 1242 q 351 1209 335 1215 q 383 1203 367 1203 m 275 1122 l 328 1122 l 450 878 l 406 878 l 301 1092 l 197 878 l 153 878 l 275 1122 z "},"ȅ":{"ha":589,"x_min":61,"x_max":536,"o":"m 536 354 l 111 354 q 140 164 113 234 q 217 64 167 94 q 347 33 268 33 q 503 63 411 33 l 503 15 q 344 -12 423 -12 q 188 25 250 -12 q 93 149 126 63 q 61 375 61 234 q 126 670 61 579 q 304 761 192 761 q 476 672 416 761 q 536 375 536 583 l 536 354 m 304 715 q 165 644 216 715 q 111 400 114 574 l 486 400 q 462 589 485 519 q 400 687 439 658 q 304 715 360 715 m 194 878 l 128 1122 l 174 1122 l 232 878 l 194 878 m 371 878 l 304 1122 l 350 1122 l 408 878 l 371 878 z "},"ë":{"ha":589,"x_min":61,"x_max":536,"o":"m 536 354 l 111 354 q 140 164 113 234 q 217 64 167 94 q 347 33 268 33 q 503 63 411 33 l 503 15 q 344 -12 423 -12 q 188 25 250 -12 q 93 149 126 63 q 61 375 61 234 q 126 670 61 579 q 304 761 192 761 q 476 672 416 761 q 536 375 536 583 l 536 354 m 304 715 q 165 644 216 715 q 111 400 114 574 l 486 400 q 462 589 485 519 q 400 687 439 658 q 304 715 360 715 m 190 944 q 159 956 172 944 q 147 988 147 968 q 159 1019 147 1007 q 190 1032 172 1032 q 221 1019 209 1032 q 233 988 233 1007 q 221 956 233 968 q 190 944 209 944 m 413 944 q 382 956 394 944 q 369 988 369 968 q 382 1019 369 1007 q 413 1032 394 1032 q 443 1019 431 1032 q 456 988 456 1007 q 443 956 456 968 q 413 944 431 944 z "},"ė":{"ha":589,"x_min":61,"x_max":536,"o":"m 536 354 l 111 354 q 140 164 113 234 q 217 64 167 94 q 347 33 268 33 q 503 63 411 33 l 503 15 q 344 -12 423 -12 q 188 25 250 -12 q 93 149 126 63 q 61 375 61 234 q 126 670 61 579 q 304 761 192 761 q 476 672 416 761 q 536 375 536 583 l 536 354 m 304 715 q 165 644 216 715 q 111 400 114 574 l 486 400 q 462 589 485 519 q 400 687 439 658 q 304 715 360 715 m 301 944 q 270 956 283 944 q 258 988 258 968 q 270 1019 258 1007 q 301 1032 283 1032 q 332 1019 320 1032 q 344 988 344 1007 q 332 956 344 968 q 301 944 320 944 z "},"ẹ":{"ha":589,"x_min":61,"x_max":536,"o":"m 536 354 l 111 354 q 140 164 113 234 q 217 64 167 94 q 347 33 268 33 q 503 63 411 33 l 503 15 q 344 -12 423 -12 q 188 25 250 -12 q 93 149 126 63 q 61 375 61 234 q 126 670 61 579 q 304 761 192 761 q 476 672 416 761 q 536 375 536 583 l 536 354 m 304 715 q 165 644 216 715 q 111 400 114 574 l 486 400 q 462 589 485 519 q 400 687 439 658 q 304 715 360 715 m 301 -215 q 270 -203 283 -215 q 258 -172 258 -192 q 270 -140 258 -153 q 301 -128 283 -128 q 332 -140 320 -128 q 344 -172 344 -153 q 332 -203 344 -192 q 301 -215 320 -215 z "},"è":{"ha":589,"x_min":61,"x_max":536,"o":"m 536 354 l 111 354 q 140 164 113 234 q 217 64 167 94 q 347 33 268 33 q 503 63 411 33 l 503 15 q 344 -12 423 -12 q 188 25 250 -12 q 93 149 126 63 q 61 375 61 234 q 126 670 61 579 q 304 761 192 761 q 476 672 416 761 q 536 375 536 583 l 536 354 m 304 715 q 165 644 216 715 q 111 400 114 574 l 486 400 q 462 589 485 519 q 400 687 439 658 q 304 715 360 715 m 282 878 l 168 1122 l 218 1122 l 321 878 l 282 878 z "},"ẻ":{"ha":589,"x_min":61,"x_max":536,"o":"m 536 354 l 111 354 q 140 164 113 234 q 217 64 167 94 q 347 33 268 33 q 503 63 411 33 l 503 15 q 344 -12 423 -12 q 188 25 250 -12 q 93 149 126 63 q 61 375 61 234 q 126 670 61 579 q 304 761 192 761 q 476 672 416 761 q 536 375 536 583 l 536 354 m 304 715 q 165 644 216 715 q 111 400 114 574 l 486 400 q 462 589 485 519 q 400 687 439 658 q 304 715 360 715 m 279 878 q 295 936 279 914 q 339 981 310 958 q 369 1009 360 997 q 379 1039 379 1022 q 361 1079 379 1066 q 301 1092 344 1092 q 252 1087 278 1092 q 206 1075 226 1083 l 206 1114 q 250 1126 225 1122 q 300 1131 276 1131 q 391 1107 361 1131 q 421 1040 421 1083 q 408 993 421 1010 q 369 954 395 975 q 334 919 346 935 q 322 878 322 903 l 279 878 z "},"ȇ":{"ha":589,"x_min":61,"x_max":536,"o":"m 536 354 l 111 354 q 140 164 113 234 q 217 64 167 94 q 347 33 268 33 q 503 63 411 33 l 503 15 q 344 -12 423 -12 q 188 25 250 -12 q 93 149 126 63 q 61 375 61 234 q 126 670 61 579 q 304 761 192 761 q 476 672 416 761 q 536 375 536 583 l 536 354 m 304 715 q 165 644 216 715 q 111 400 114 574 l 486 400 q 462 589 485 519 q 400 687 439 658 q 304 715 360 715 m 147 897 q 190 1061 150 1008 q 300 1114 230 1114 q 411 1060 370 1114 q 456 897 453 1006 l 417 897 q 383 1032 412 990 q 300 1074 353 1074 q 217 1032 246 1074 q 186 897 189 990 l 147 897 z "},"ē":{"ha":589,"x_min":61,"x_max":536,"o":"m 536 354 l 111 354 q 140 164 113 234 q 217 64 167 94 q 347 33 268 33 q 503 63 411 33 l 503 15 q 344 -12 423 -12 q 188 25 250 -12 q 93 149 126 63 q 61 375 61 234 q 126 670 61 579 q 304 761 192 761 q 476 672 416 761 q 536 375 536 583 l 536 354 m 304 715 q 165 644 216 715 q 111 400 114 574 l 486 400 q 462 589 485 519 q 400 687 439 658 q 304 715 360 715 m 128 968 l 128 1008 l 475 1008 l 475 968 l 128 968 z "},"ḗ":{"ha":589,"x_min":61,"x_max":536,"o":"m 536 354 l 111 354 q 140 164 113 234 q 217 64 167 94 q 347 33 268 33 q 503 63 411 33 l 503 15 q 344 -12 423 -12 q 188 25 250 -12 q 93 149 126 63 q 61 375 61 234 q 126 670 61 579 q 304 761 192 761 q 476 672 416 761 q 536 375 536 583 l 536 354 m 304 715 q 165 644 216 715 q 111 400 114 574 l 486 400 q 462 589 485 519 q 400 687 439 658 q 304 715 360 715 m 128 968 l 128 1008 l 475 1008 l 475 968 l 128 968 m 282 1108 l 371 1297 l 421 1297 l 321 1108 l 282 1108 z "},"ḕ":{"ha":589,"x_min":61,"x_max":536,"o":"m 536 354 l 111 354 q 140 164 113 234 q 217 64 167 94 q 347 33 268 33 q 503 63 411 33 l 503 15 q 344 -12 423 -12 q 188 25 250 -12 q 93 149 126 63 q 61 375 61 234 q 126 670 61 579 q 304 761 192 761 q 476 672 416 761 q 536 375 536 583 l 536 354 m 304 715 q 165 644 216 715 q 111 400 114 574 l 486 400 q 462 589 485 519 q 400 687 439 658 q 304 715 360 715 m 128 968 l 128 1008 l 475 1008 l 475 968 l 128 968 m 282 1108 l 182 1297 l 232 1297 l 321 1108 l 282 1108 z "},"ę":{"ha":589,"x_min":61,"x_max":536,"o":"m 536 354 l 111 354 q 140 164 113 234 q 217 64 167 94 q 347 33 268 33 q 503 63 411 33 l 503 15 q 364 -64 402 -20 q 326 -158 326 -108 q 348 -220 326 -199 q 410 -242 370 -242 q 503 -211 459 -242 l 503 -250 q 460 -270 484 -263 q 411 -278 435 -278 q 320 -247 353 -278 q 288 -161 288 -216 q 308 -78 288 -117 q 373 -11 329 -40 q 344 -12 353 -12 q 188 25 250 -12 q 93 149 126 63 q 61 375 61 234 q 126 670 61 579 q 304 761 192 761 q 476 672 416 761 q 536 375 536 583 l 536 354 m 304 715 q 165 644 216 715 q 111 400 114 574 l 486 400 q 462 589 485 519 q 400 687 439 658 q 304 715 360 715 z "},"ẽ":{"ha":589,"x_min":61,"x_max":536,"o":"m 536 354 l 111 354 q 140 164 113 234 q 217 64 167 94 q 347 33 268 33 q 503 63 411 33 l 503 15 q 344 -12 423 -12 q 188 25 250 -12 q 93 149 126 63 q 61 375 61 234 q 126 670 61 579 q 304 761 192 761 q 476 672 416 761 q 536 375 536 583 l 536 354 m 304 715 q 165 644 216 715 q 111 400 114 574 l 486 400 q 462 589 485 519 q 400 687 439 658 q 304 715 360 715 m 383 958 q 341 966 361 958 q 292 988 322 973 q 252 1006 268 1000 q 219 1013 235 1013 q 170 1000 192 1013 q 128 963 148 988 l 128 1008 q 167 1040 144 1028 q 219 1051 191 1051 q 261 1044 242 1051 q 310 1022 281 1037 q 351 1003 335 1010 q 383 997 367 997 q 433 1009 411 997 q 475 1047 455 1022 l 475 1001 q 435 970 459 981 q 383 958 412 958 z "},"ə":{"ha":589,"x_min":53,"x_max":528,"o":"m 244 763 q 401 725 339 763 q 495 601 463 687 q 528 375 528 516 q 463 80 528 171 q 285 -11 397 -11 q 113 78 173 -11 q 53 375 53 167 l 53 396 l 478 396 q 449 586 476 516 q 372 686 422 656 q 242 717 321 717 q 86 688 178 717 l 86 735 q 244 763 166 763 m 285 35 q 424 106 373 35 q 478 350 475 176 l 103 350 q 127 161 104 231 q 189 63 150 92 q 285 35 228 35 z "},"f":{"ha":390,"x_min":6,"x_max":424,"o":"m 338 1090 q 228 1054 265 1090 q 192 938 192 1018 l 192 750 l 400 750 l 400 706 l 192 706 l 192 0 l 144 0 l 144 706 l 6 706 l 6 750 l 144 750 l 144 939 q 194 1086 144 1037 q 340 1136 243 1136 q 424 1129 389 1136 l 424 1082 q 338 1090 380 1090 z "},"g":{"ha":635,"x_min":61,"x_max":535,"o":"m 272 -319 q 184 -311 230 -319 q 103 -289 138 -303 l 103 -242 q 272 -274 191 -274 q 392 -250 345 -274 q 464 -174 440 -227 q 488 -32 488 -121 l 488 69 l 483 69 q 410 11 456 35 q 307 -12 364 -12 q 129 73 197 -12 q 61 360 61 158 q 142 663 61 565 q 376 761 224 761 q 460 754 415 761 q 535 736 505 747 l 535 -29 q 469 -251 535 -183 q 272 -319 404 -319 m 310 33 q 413 62 364 33 q 488 142 461 90 l 488 701 q 434 711 465 707 q 376 715 403 715 q 178 633 244 715 q 111 365 111 550 q 137 163 111 236 q 206 61 163 90 q 310 33 249 33 z "},"ǵ":{"ha":635,"x_min":61,"x_max":535,"o":"m 272 -319 q 184 -311 230 -319 q 103 -289 138 -303 l 103 -242 q 272 -274 191 -274 q 392 -250 345 -274 q 464 -174 440 -227 q 488 -32 488 -121 l 488 69 l 483 69 q 410 11 456 35 q 307 -12 364 -12 q 129 73 197 -12 q 61 360 61 158 q 142 663 61 565 q 376 761 224 761 q 460 754 415 761 q 535 736 505 747 l 535 -29 q 469 -251 535 -183 q 272 -319 404 -319 m 310 33 q 413 62 364 33 q 488 142 461 90 l 488 701 q 434 711 465 707 q 376 715 403 715 q 178 633 244 715 q 111 365 111 550 q 137 163 111 236 q 206 61 163 90 q 310 33 249 33 m 311 878 l 414 1122 l 464 1122 l 350 878 l 311 878 z "},"ğ":{"ha":635,"x_min":61,"x_max":535,"o":"m 272 -319 q 184 -311 230 -319 q 103 -289 138 -303 l 103 -242 q 272 -274 191 -274 q 392 -250 345 -274 q 464 -174 440 -227 q 488 -32 488 -121 l 488 69 l 483 69 q 410 11 456 35 q 307 -12 364 -12 q 129 73 197 -12 q 61 360 61 158 q 142 663 61 565 q 376 761 224 761 q 460 754 415 761 q 535 736 505 747 l 535 -29 q 469 -251 535 -183 q 272 -319 404 -319 m 310 33 q 413 62 364 33 q 488 142 461 90 l 488 701 q 434 711 465 707 q 376 715 403 715 q 178 633 244 715 q 111 365 111 550 q 137 163 111 236 q 206 61 163 90 q 310 33 249 33 m 332 886 q 220 941 262 886 q 176 1103 179 995 l 215 1103 q 249 967 220 1009 q 332 925 278 925 q 414 967 385 925 q 446 1103 443 1010 l 485 1103 q 442 940 482 994 q 332 886 401 886 z "},"ǧ":{"ha":635,"x_min":61,"x_max":535,"o":"m 272 -319 q 184 -311 230 -319 q 103 -289 138 -303 l 103 -242 q 272 -274 191 -274 q 392 -250 345 -274 q 464 -174 440 -227 q 488 -32 488 -121 l 488 69 l 483 69 q 410 11 456 35 q 307 -12 364 -12 q 129 73 197 -12 q 61 360 61 158 q 142 663 61 565 q 376 761 224 761 q 460 754 415 761 q 535 736 505 747 l 535 -29 q 469 -251 535 -183 q 272 -319 404 -319 m 310 33 q 413 62 364 33 q 488 142 461 90 l 488 701 q 434 711 465 707 q 376 715 403 715 q 178 633 244 715 q 111 365 111 550 q 137 163 111 236 q 206 61 163 90 q 310 33 249 33 m 435 1122 l 479 1122 l 357 878 l 304 878 l 182 1122 l 226 1122 l 331 908 l 435 1122 z "},"ĝ":{"ha":635,"x_min":61,"x_max":535,"o":"m 272 -319 q 184 -311 230 -319 q 103 -289 138 -303 l 103 -242 q 272 -274 191 -274 q 392 -250 345 -274 q 464 -174 440 -227 q 488 -32 488 -121 l 488 69 l 483 69 q 410 11 456 35 q 307 -12 364 -12 q 129 73 197 -12 q 61 360 61 158 q 142 663 61 565 q 376 761 224 761 q 460 754 415 761 q 535 736 505 747 l 535 -29 q 469 -251 535 -183 q 272 -319 404 -319 m 310 33 q 413 62 364 33 q 488 142 461 90 l 488 701 q 434 711 465 707 q 376 715 403 715 q 178 633 244 715 q 111 365 111 550 q 137 163 111 236 q 206 61 163 90 q 310 33 249 33 m 479 878 l 435 878 l 331 1092 l 226 878 l 182 878 l 304 1122 l 357 1122 l 479 878 z "},"ģ":{"ha":635,"x_min":61,"x_max":535,"o":"m 272 -319 q 184 -311 230 -319 q 103 -289 138 -303 l 103 -242 q 272 -274 191 -274 q 392 -250 345 -274 q 464 -174 440 -227 q 488 -32 488 -121 l 488 69 l 483 69 q 410 11 456 35 q 307 -12 364 -12 q 129 73 197 -12 q 61 360 61 158 q 142 663 61 565 q 376 761 224 761 q 460 754 415 761 q 535 736 505 747 l 535 -29 q 469 -251 535 -183 q 272 -319 404 -319 m 310 33 q 413 62 364 33 q 488 142 461 90 l 488 701 q 434 711 465 707 q 376 715 403 715 q 178 633 244 715 q 111 365 111 550 q 137 163 111 236 q 206 61 163 90 q 310 33 249 33 m 331 1032 q 361 1019 349 1032 q 374 988 374 1007 q 362 957 374 969 q 333 944 351 944 q 300 960 312 944 q 288 1004 288 975 q 295 1064 288 1031 q 318 1128 303 1097 l 349 1128 q 326 1032 329 1078 l 331 1032 z "},"ġ":{"ha":635,"x_min":61,"x_max":535,"o":"m 272 -319 q 184 -311 230 -319 q 103 -289 138 -303 l 103 -242 q 272 -274 191 -274 q 392 -250 345 -274 q 464 -174 440 -227 q 488 -32 488 -121 l 488 69 l 483 69 q 410 11 456 35 q 307 -12 364 -12 q 129 73 197 -12 q 61 360 61 158 q 142 663 61 565 q 376 761 224 761 q 460 754 415 761 q 535 736 505 747 l 535 -29 q 469 -251 535 -183 q 272 -319 404 -319 m 310 33 q 413 62 364 33 q 488 142 461 90 l 488 701 q 434 711 465 707 q 376 715 403 715 q 178 633 244 715 q 111 365 111 550 q 137 163 111 236 q 206 61 163 90 q 310 33 249 33 m 331 944 q 300 956 312 944 q 288 988 288 968 q 300 1019 288 1007 q 331 1032 312 1032 q 361 1019 349 1032 q 374 988 374 1007 q 361 956 374 968 q 331 944 349 944 z "},"ḡ":{"ha":635,"x_min":61,"x_max":535,"o":"m 272 -319 q 184 -311 230 -319 q 103 -289 138 -303 l 103 -242 q 272 -274 191 -274 q 392 -250 345 -274 q 464 -174 440 -227 q 488 -32 488 -121 l 488 69 l 483 69 q 410 11 456 35 q 307 -12 364 -12 q 129 73 197 -12 q 61 360 61 158 q 142 663 61 565 q 376 761 224 761 q 460 754 415 761 q 535 736 505 747 l 535 -29 q 469 -251 535 -183 q 272 -319 404 -319 m 310 33 q 413 62 364 33 q 488 142 461 90 l 488 701 q 434 711 465 707 q 376 715 403 715 q 178 633 244 715 q 111 365 111 550 q 137 163 111 236 q 206 61 163 90 q 310 33 249 33 m 157 968 l 157 1008 l 504 1008 l 504 968 l 157 968 z "},"h":{"ha":646,"x_min":100,"x_max":553,"o":"m 100 1122 l 147 1122 l 147 664 l 151 664 q 245 737 192 713 q 357 761 298 761 q 500 709 448 761 q 553 535 553 657 l 553 0 l 506 0 l 506 538 q 466 674 506 633 q 354 714 427 714 q 240 684 298 714 q 147 590 183 655 l 147 0 l 100 0 l 100 1122 z "},"ħ":{"ha":646,"x_min":4,"x_max":553,"o":"m 357 761 q 500 709 448 761 q 553 535 553 657 l 553 0 l 506 0 l 506 538 q 466 674 506 633 q 354 714 427 714 q 240 684 298 714 q 147 590 183 655 l 147 0 l 100 0 l 100 921 l 4 921 l 4 963 l 100 963 l 100 1122 l 147 1122 l 147 963 l 356 963 l 356 921 l 147 921 l 147 664 l 151 664 q 245 737 192 713 q 357 761 298 761 z "},"ḫ":{"ha":646,"x_min":100,"x_max":553,"o":"m 100 1122 l 147 1122 l 147 664 l 151 664 q 245 737 192 713 q 357 761 298 761 q 500 709 448 761 q 553 535 553 657 l 553 0 l 506 0 l 506 538 q 466 674 506 633 q 354 714 427 714 q 240 684 298 714 q 147 590 183 655 l 147 0 l 100 0 l 100 1122 m 328 -278 q 216 -234 258 -278 q 172 -111 173 -190 l 211 -111 q 244 -206 214 -174 q 328 -237 274 -237 q 411 -206 381 -237 q 442 -111 441 -174 l 481 -111 q 439 -235 480 -192 q 328 -278 397 -278 z "},"ĥ":{"ha":646,"x_min":100,"x_max":553,"o":"m 100 1122 l 147 1122 l 147 664 l 151 664 q 245 737 192 713 q 357 761 298 761 q 500 709 448 761 q 553 535 553 657 l 553 0 l 506 0 l 506 538 q 466 674 506 633 q 354 714 427 714 q 240 684 298 714 q 147 590 183 655 l 147 0 l 100 0 l 100 1122 m 489 1189 l 440 1189 l 326 1349 l 213 1189 l 164 1189 l 300 1378 l 353 1378 l 489 1189 z "},"ḥ":{"ha":646,"x_min":100,"x_max":553,"o":"m 100 1122 l 147 1122 l 147 664 l 151 664 q 245 737 192 713 q 357 761 298 761 q 500 709 448 761 q 553 535 553 657 l 553 0 l 506 0 l 506 538 q 466 674 506 633 q 354 714 427 714 q 240 684 298 714 q 147 590 183 655 l 147 0 l 100 0 l 100 1122 m 326 -215 q 295 -203 308 -215 q 283 -172 283 -192 q 295 -140 283 -153 q 326 -128 308 -128 q 357 -140 345 -128 q 369 -172 369 -153 q 357 -203 369 -192 q 326 -215 345 -215 z "},"i":{"ha":247,"x_min":81,"x_max":167,"o":"m 100 0 l 100 750 l 147 750 l 147 0 l 100 0 m 124 944 q 93 956 105 944 q 81 988 81 968 q 93 1019 81 1007 q 124 1032 105 1032 q 155 1019 142 1032 q 167 988 167 1007 q 155 956 167 968 q 124 944 142 944 z "},"ı":{"ha":247,"x_min":100,"x_max":147,"o":"m 100 0 l 100 750 l 147 750 l 147 0 l 100 0 z "},"í":{"ha":247,"x_min":100,"x_max":257,"o":"m 100 0 l 100 750 l 147 750 l 147 0 l 100 0 m 104 878 l 207 1122 l 257 1122 l 143 878 l 104 878 z "},"ĭ":{"ha":247,"x_min":-31,"x_max":278,"o":"m 100 0 l 100 750 l 147 750 l 147 0 l 100 0 m 125 886 q 14 941 55 886 q -31 1103 -28 995 l 8 1103 q 42 967 13 1009 q 125 925 72 925 q 207 967 178 925 q 239 1103 236 1010 l 278 1103 q 235 940 275 994 q 125 886 194 886 z "},"î":{"ha":247,"x_min":-25,"x_max":272,"o":"m 100 0 l 100 750 l 147 750 l 147 0 l 100 0 m 272 878 l 228 878 l 124 1092 l 19 878 l -25 878 l 97 1122 l 150 1122 l 272 878 z "},"ȉ":{"ha":247,"x_min":-50,"x_max":231,"o":"m 100 0 l 100 750 l 147 750 l 147 0 l 100 0 m 17 878 l -50 1122 l -4 1122 l 54 878 l 17 878 m 193 878 l 126 1122 l 172 1122 l 231 878 l 193 878 z "},"ï":{"ha":247,"x_min":-31,"x_max":278,"o":"m 100 0 l 100 750 l 147 750 l 147 0 l 100 0 m 13 944 q -18 956 -6 944 q -31 988 -31 968 q -18 1019 -31 1007 q 13 1032 -6 1032 q 43 1019 31 1032 q 56 988 56 1007 q 43 956 56 968 q 13 944 31 944 m 235 944 q 204 956 216 944 q 192 988 192 968 q 204 1019 192 1007 q 235 1032 216 1032 q 266 1019 253 1032 q 278 988 278 1007 q 266 956 278 968 q 235 944 253 944 z "},"ḯ":{"ha":247,"x_min":-31,"x_max":278,"o":"m 100 0 l 100 750 l 147 750 l 147 0 l 100 0 m 13 944 q -18 956 -6 944 q -31 988 -31 968 q -18 1019 -31 1007 q 13 1032 -6 1032 q 43 1019 31 1032 q 56 988 56 1007 q 43 956 56 968 q 13 944 31 944 m 235 944 q 204 956 216 944 q 192 988 192 968 q 204 1019 192 1007 q 235 1032 216 1032 q 266 1019 253 1032 q 278 988 278 1007 q 266 956 278 968 q 235 944 253 944 m 104 1108 l 193 1297 l 243 1297 l 143 1108 l 104 1108 z "},"ị":{"ha":247,"x_min":81,"x_max":167,"o":"m 100 0 l 100 750 l 147 750 l 147 0 l 100 0 m 124 944 q 93 956 105 944 q 81 988 81 968 q 93 1019 81 1007 q 124 1032 105 1032 q 155 1019 142 1032 q 167 988 167 1007 q 155 956 167 968 q 124 944 142 944 m 124 -215 q 93 -203 105 -215 q 81 -172 81 -192 q 93 -140 81 -153 q 124 -128 105 -128 q 155 -140 142 -128 q 167 -172 167 -153 q 155 -203 167 -192 q 124 -215 142 -215 z "},"ì":{"ha":247,"x_min":-10,"x_max":147,"o":"m 100 0 l 100 750 l 147 750 l 147 0 l 100 0 m 104 878 l -10 1122 l 40 1122 l 143 878 l 104 878 z "},"ỉ":{"ha":247,"x_min":28,"x_max":243,"o":"m 100 0 l 100 750 l 147 750 l 147 0 l 100 0 m 101 878 q 117 936 101 914 q 161 981 133 958 q 192 1009 182 997 q 201 1039 201 1022 q 184 1079 201 1066 q 124 1092 166 1092 q 74 1087 101 1092 q 28 1075 48 1083 l 28 1114 q 73 1126 47 1122 q 122 1131 98 1131 q 213 1107 183 1131 q 243 1040 243 1083 q 230 993 243 1010 q 192 954 217 975 q 156 919 168 935 q 144 878 144 903 l 101 878 z "},"ȋ":{"ha":247,"x_min":-31,"x_max":278,"o":"m 100 0 l 100 750 l 147 750 l 147 0 l 100 0 m -31 897 q 12 1061 -28 1008 q 122 1114 52 1114 q 234 1060 192 1114 q 278 897 275 1006 l 239 897 q 205 1032 234 990 q 122 1074 176 1074 q 40 1032 68 1074 q 8 897 11 990 l -31 897 z "},"ī":{"ha":247,"x_min":-50,"x_max":297,"o":"m 100 0 l 100 750 l 147 750 l 147 0 l 100 0 m -50 968 l -50 1008 l 297 1008 l 297 968 l -50 968 z "},"į":{"ha":247,"x_min":0,"x_max":215,"o":"m 124 944 q 93 956 105 944 q 81 988 81 968 q 93 1019 81 1007 q 124 1032 105 1032 q 155 1019 142 1032 q 167 988 167 1007 q 155 956 167 968 q 124 944 142 944 m 122 -242 q 215 -211 172 -242 l 215 -250 q 172 -270 197 -263 q 124 -278 148 -278 q 33 -247 65 -278 q 0 -161 0 -216 q 24 -73 0 -115 q 100 11 48 -31 l 100 750 l 147 750 l 147 0 q 65 -79 90 -42 q 39 -158 39 -117 q 61 -220 39 -199 q 122 -242 83 -242 z "},"ĩ":{"ha":247,"x_min":-50,"x_max":297,"o":"m 100 0 l 100 750 l 147 750 l 147 0 l 100 0 m 206 958 q 164 966 183 958 q 115 988 144 973 q 74 1006 90 1000 q 42 1013 58 1013 q -8 1000 14 1013 q -50 963 -30 988 l -50 1008 q -10 1040 -34 1028 q 42 1051 13 1051 q 84 1044 64 1051 q 133 1022 103 1037 q 173 1003 157 1010 q 206 997 190 997 q 255 1009 233 997 q 297 1047 277 1022 l 297 1001 q 258 970 281 981 q 206 958 234 958 z "},"j":{"ha":247,"x_min":-18,"x_max":167,"o":"m -18 -296 q 50 -167 25 -228 q 88 -39 76 -106 q 100 115 100 28 l 100 750 l 147 750 l 147 122 q 134 -44 147 28 q 92 -181 120 -117 q 17 -319 64 -245 l -18 -296 m 124 944 q 93 956 105 944 q 81 988 81 968 q 93 1019 81 1007 q 124 1032 105 1032 q 155 1019 142 1032 q 167 988 167 1007 q 155 956 167 968 q 124 944 142 944 z "},"ȷ":{"ha":247,"x_min":-18,"x_max":147,"o":"m -18 -296 q 50 -167 25 -228 q 88 -39 76 -106 q 100 115 100 28 l 100 750 l 147 750 l 147 122 q 134 -44 147 28 q 92 -181 120 -117 q 17 -319 64 -245 l -18 -296 z "},"ĵ":{"ha":247,"x_min":-25,"x_max":272,"o":"m -18 -296 q 50 -167 25 -228 q 88 -39 76 -106 q 100 115 100 28 l 100 750 l 147 750 l 147 122 q 134 -44 147 28 q 92 -181 120 -117 q 17 -319 64 -245 l -18 -296 m 272 878 l 228 878 l 124 1092 l 19 878 l -25 878 l 97 1122 l 150 1122 l 272 878 z "},"k":{"ha":578,"x_min":100,"x_max":594,"o":"m 536 0 l 267 361 l 147 361 l 147 0 l 100 0 l 100 1122 l 147 1122 l 147 406 l 266 406 l 515 750 l 572 750 l 308 383 l 594 0 l 536 0 z "},"ķ":{"ha":578,"x_min":100,"x_max":594,"o":"m 536 0 l 267 361 l 147 361 l 147 0 l 100 0 l 100 1122 l 147 1122 l 147 406 l 266 406 l 515 750 l 572 750 l 308 383 l 594 0 l 536 0 m 318 -128 q 352 -143 340 -128 q 364 -187 364 -158 q 356 -247 364 -214 q 333 -311 349 -281 l 303 -311 q 326 -215 322 -262 l 321 -215 q 290 -203 302 -215 q 278 -171 278 -190 q 289 -140 278 -152 q 318 -128 301 -128 z "},"ĸ":{"ha":578,"x_min":100,"x_max":594,"o":"m 536 0 l 267 361 l 147 361 l 147 0 l 100 0 l 100 750 l 147 750 l 147 406 l 266 406 l 515 750 l 572 750 l 308 383 l 594 0 l 536 0 z "},"l":{"ha":247,"x_min":100,"x_max":147,"o":"m 100 0 l 100 1122 l 147 1122 l 147 0 l 100 0 z "},"ĺ":{"ha":247,"x_min":100,"x_max":243,"o":"m 100 0 l 100 1122 l 147 1122 l 147 0 l 100 0 m 104 1189 l 193 1378 l 243 1378 l 143 1189 l 104 1189 z "},"ľ":{"ha":247,"x_min":100,"x_max":261,"o":"m 100 0 l 100 1122 l 147 1122 l 147 0 l 100 0 m 204 819 q 217 1122 217 929 l 261 1122 q 236 819 261 947 l 204 819 z "},"ļ":{"ha":247,"x_min":81,"x_max":167,"o":"m 100 0 l 100 1122 l 147 1122 l 147 0 l 100 0 m 121 -128 q 155 -143 142 -128 q 167 -187 167 -158 q 159 -247 167 -214 q 136 -311 151 -281 l 106 -311 q 128 -215 125 -262 l 124 -215 q 93 -203 105 -215 q 81 -171 81 -190 q 92 -140 81 -152 q 121 -128 103 -128 z "},"ŀ":{"ha":247,"x_min":100,"x_max":286,"o":"m 100 0 l 100 1122 l 147 1122 l 147 0 l 100 0 m 243 507 q 212 519 224 507 q 200 550 200 531 q 212 582 200 569 q 243 594 224 594 q 274 582 262 594 q 286 550 286 569 q 274 519 286 531 q 243 507 262 507 z "},"ḷ":{"ha":247,"x_min":81,"x_max":167,"o":"m 100 0 l 100 1122 l 147 1122 l 147 0 l 100 0 m 124 -215 q 93 -203 105 -215 q 81 -172 81 -192 q 93 -140 81 -153 q 124 -128 105 -128 q 155 -140 142 -128 q 167 -172 167 -153 q 155 -203 167 -192 q 124 -215 142 -215 z "},"ǉ":{"ha":494,"x_min":100,"x_max":414,"o":"m 100 0 l 100 1122 l 147 1122 l 147 0 l 100 0 m 229 -296 q 298 -167 272 -228 q 335 -39 323 -106 q 347 115 347 28 l 347 750 l 394 750 l 394 122 q 381 -44 394 28 q 339 -181 367 -117 q 264 -319 311 -245 l 229 -296 m 371 944 q 340 956 352 944 q 328 988 328 968 q 340 1019 328 1007 q 371 1032 352 1032 q 402 1019 390 1032 q 414 988 414 1007 q 402 956 414 968 q 371 944 390 944 z "},"ḻ":{"ha":247,"x_min":-29,"x_max":276,"o":"m 100 0 l 100 1122 l 147 1122 l 147 0 l 100 0 m -29 -192 l -29 -151 l 276 -151 l 276 -192 l -29 -192 z "},"ł":{"ha":247,"x_min":4,"x_max":243,"o":"m 243 588 l 147 492 l 147 0 l 100 0 l 100 444 l 32 376 l 4 404 l 100 500 l 100 1122 l 147 1122 l 147 547 l 215 615 l 243 588 z "},"m":{"ha":1007,"x_min":100,"x_max":914,"o":"m 726 761 q 863 709 812 761 q 914 535 914 656 l 914 0 l 867 0 l 867 535 q 722 715 867 715 q 617 685 671 715 q 529 587 564 656 q 532 535 532 565 l 532 0 l 485 0 l 485 535 q 447 674 485 632 q 343 715 410 715 q 236 684 291 715 q 147 586 181 653 l 147 0 l 100 0 l 100 750 l 142 750 l 146 663 l 151 663 q 242 736 191 712 q 349 761 292 761 q 516 649 478 761 q 615 735 560 709 q 726 761 670 761 z "},"ṃ":{"ha":1007,"x_min":100,"x_max":914,"o":"m 726 761 q 863 709 812 761 q 914 535 914 656 l 914 0 l 867 0 l 867 535 q 722 715 867 715 q 617 685 671 715 q 529 587 564 656 q 532 535 532 565 l 532 0 l 485 0 l 485 535 q 447 674 485 632 q 343 715 410 715 q 236 684 291 715 q 147 586 181 653 l 147 0 l 100 0 l 100 750 l 142 750 l 146 663 l 151 663 q 242 736 191 712 q 349 761 292 761 q 516 649 478 761 q 615 735 560 709 q 726 761 670 761 m 508 -215 q 477 -203 490 -215 q 465 -172 465 -192 q 477 -140 465 -153 q 508 -128 490 -128 q 539 -140 527 -128 q 551 -172 551 -153 q 539 -203 551 -192 q 508 -215 527 -215 z "},"n":{"ha":646,"x_min":100,"x_max":553,"o":"m 100 750 l 142 750 l 146 664 l 151 664 q 243 736 190 710 q 357 761 297 761 q 553 539 553 761 l 553 0 l 506 0 l 506 538 q 466 674 506 633 q 354 715 427 715 q 240 685 298 715 q 147 590 183 655 l 147 0 l 100 0 l 100 750 z "},"ń":{"ha":646,"x_min":100,"x_max":553,"o":"m 100 750 l 142 750 l 146 664 l 151 664 q 243 736 190 710 q 357 761 297 761 q 553 539 553 761 l 553 0 l 506 0 l 506 538 q 466 674 506 633 q 354 715 427 715 q 240 685 298 715 q 147 590 183 655 l 147 0 l 100 0 l 100 750 m 307 878 l 410 1122 l 460 1122 l 346 878 l 307 878 z "},"ŉ":{"ha":646,"x_min":7,"x_max":553,"o":"m 100 750 l 142 750 l 146 664 l 151 664 q 243 736 190 710 q 357 761 297 761 q 553 539 553 761 l 553 0 l 506 0 l 506 538 q 466 674 506 633 q 354 715 427 715 q 240 685 298 715 q 147 590 183 655 l 147 0 l 100 0 l 100 750 m 47 1128 q 81 1113 69 1128 q 93 1068 93 1097 q 85 1008 93 1042 q 63 944 78 975 l 32 944 q 55 1040 51 994 l 50 1040 q 19 1053 31 1040 q 7 1085 7 1065 q 18 1116 7 1103 q 47 1128 30 1128 z "},"ň":{"ha":646,"x_min":100,"x_max":553,"o":"m 100 750 l 142 750 l 146 664 l 151 664 q 243 736 190 710 q 357 761 297 761 q 553 539 553 761 l 553 0 l 506 0 l 506 538 q 466 674 506 633 q 354 715 427 715 q 240 685 298 715 q 147 590 183 655 l 147 0 l 100 0 l 100 750 m 431 1122 l 475 1122 l 353 878 l 300 878 l 178 1122 l 222 1122 l 326 908 l 431 1122 z "},"ņ":{"ha":646,"x_min":100,"x_max":553,"o":"m 100 750 l 142 750 l 146 664 l 151 664 q 243 736 190 710 q 357 761 297 761 q 553 539 553 761 l 553 0 l 506 0 l 506 538 q 466 674 506 633 q 354 715 427 715 q 240 685 298 715 q 147 590 183 655 l 147 0 l 100 0 l 100 750 m 324 -128 q 357 -143 345 -128 q 369 -187 369 -158 q 362 -247 369 -214 q 339 -311 354 -281 l 308 -311 q 331 -215 328 -262 l 326 -215 q 295 -203 308 -215 q 283 -171 283 -190 q 295 -140 283 -152 q 324 -128 306 -128 z "},"ṅ":{"ha":646,"x_min":100,"x_max":553,"o":"m 100 750 l 142 750 l 146 664 l 151 664 q 243 736 190 710 q 357 761 297 761 q 553 539 553 761 l 553 0 l 506 0 l 506 538 q 466 674 506 633 q 354 715 427 715 q 240 685 298 715 q 147 590 183 655 l 147 0 l 100 0 l 100 750 m 326 944 q 295 956 308 944 q 283 988 283 968 q 295 1019 283 1007 q 326 1032 308 1032 q 357 1019 345 1032 q 369 988 369 1007 q 357 956 369 968 q 326 944 345 944 z "},"ṇ":{"ha":646,"x_min":100,"x_max":553,"o":"m 100 750 l 142 750 l 146 664 l 151 664 q 243 736 190 710 q 357 761 297 761 q 553 539 553 761 l 553 0 l 506 0 l 506 538 q 466 674 506 633 q 354 715 427 715 q 240 685 298 715 q 147 590 183 655 l 147 0 l 100 0 l 100 750 m 326 -215 q 295 -203 308 -215 q 283 -172 283 -192 q 295 -140 283 -153 q 326 -128 308 -128 q 357 -140 345 -128 q 369 -172 369 -153 q 357 -203 369 -192 q 326 -215 345 -215 z "},"ŋ":{"ha":646,"x_min":100,"x_max":553,"o":"m 388 -296 q 456 -167 431 -228 q 493 -39 481 -106 q 506 115 506 28 l 506 538 q 466 674 506 633 q 354 715 427 715 q 240 685 298 715 q 147 590 183 655 l 147 0 l 100 0 l 100 750 l 142 750 l 146 664 l 151 664 q 245 737 192 713 q 357 761 298 761 q 500 709 448 761 q 553 535 553 657 l 553 94 q 519 -120 549 -27 q 422 -319 490 -213 l 388 -296 z "},"ǌ":{"ha":893,"x_min":100,"x_max":813,"o":"m 100 750 l 142 750 l 146 664 l 151 664 q 243 736 190 710 q 357 761 297 761 q 553 539 553 761 l 553 0 l 506 0 l 506 538 q 466 674 506 633 q 354 715 427 715 q 240 685 298 715 q 147 590 183 655 l 147 0 l 100 0 l 100 750 m 628 -296 q 696 -167 671 -228 q 734 -39 722 -106 q 746 115 746 28 l 746 750 l 793 750 l 793 122 q 780 -44 793 28 q 738 -181 766 -117 q 663 -319 710 -245 l 628 -296 m 769 944 q 739 956 751 944 q 726 988 726 968 q 739 1019 726 1007 q 769 1032 751 1032 q 800 1019 788 1032 q 813 988 813 1007 q 800 956 813 968 q 769 944 788 944 z "},"ṉ":{"ha":646,"x_min":100,"x_max":553,"o":"m 100 750 l 142 750 l 146 664 l 151 664 q 243 736 190 710 q 357 761 297 761 q 553 539 553 761 l 553 0 l 506 0 l 506 538 q 466 674 506 633 q 354 715 427 715 q 240 685 298 715 q 147 590 183 655 l 147 0 l 100 0 l 100 750 m 174 -192 l 174 -151 l 479 -151 l 479 -192 l 174 -192 z "},"ñ":{"ha":646,"x_min":100,"x_max":553,"o":"m 100 750 l 142 750 l 146 664 l 151 664 q 243 736 190 710 q 357 761 297 761 q 553 539 553 761 l 553 0 l 506 0 l 506 538 q 466 674 506 633 q 354 715 427 715 q 240 685 298 715 q 147 590 183 655 l 147 0 l 100 0 l 100 750 m 408 958 q 366 966 386 958 q 317 988 347 973 q 277 1006 293 1000 q 244 1013 260 1013 q 195 1000 217 1013 q 153 963 173 988 l 153 1008 q 192 1040 169 1028 q 244 1051 216 1051 q 286 1044 267 1051 q 335 1022 306 1037 q 376 1003 360 1010 q 408 997 392 997 q 458 1009 436 997 q 500 1047 480 1022 l 500 1001 q 460 970 484 981 q 408 958 437 958 z "},"o":{"ha":633,"x_min":61,"x_max":572,"o":"m 317 -12 q 61 375 61 -12 q 127 670 61 579 q 317 761 194 761 q 572 375 572 761 q 506 79 572 171 q 317 -12 440 -12 m 317 33 q 428 65 383 33 q 498 171 473 96 q 522 372 522 246 q 498 577 522 501 q 428 684 473 653 q 317 715 383 715 q 206 684 251 715 q 136 579 160 653 q 111 378 111 504 q 136 173 111 249 q 206 65 160 97 q 317 33 251 33 z "},"ó":{"ha":633,"x_min":61,"x_max":572,"o":"m 317 -12 q 61 375 61 -12 q 127 670 61 579 q 317 761 194 761 q 572 375 572 761 q 506 79 572 171 q 317 -12 440 -12 m 317 33 q 428 65 383 33 q 498 171 473 96 q 522 372 522 246 q 498 577 522 501 q 428 684 473 653 q 317 715 383 715 q 206 684 251 715 q 136 579 160 653 q 111 378 111 504 q 136 173 111 249 q 206 65 160 97 q 317 33 251 33 m 297 878 l 400 1122 l 450 1122 l 336 878 l 297 878 z "},"ŏ":{"ha":633,"x_min":61,"x_max":572,"o":"m 317 -12 q 61 375 61 -12 q 127 670 61 579 q 317 761 194 761 q 572 375 572 761 q 506 79 572 171 q 317 -12 440 -12 m 317 33 q 428 65 383 33 q 498 171 473 96 q 522 372 522 246 q 498 577 522 501 q 428 684 473 653 q 317 715 383 715 q 206 684 251 715 q 136 579 160 653 q 111 378 111 504 q 136 173 111 249 q 206 65 160 97 q 317 33 251 33 m 318 886 q 207 941 248 886 q 163 1103 165 995 l 201 1103 q 235 967 206 1009 q 318 925 265 925 q 400 967 372 925 q 432 1103 429 1010 l 471 1103 q 428 940 468 994 q 318 886 388 886 z "},"ô":{"ha":633,"x_min":61,"x_max":572,"o":"m 317 -12 q 61 375 61 -12 q 127 670 61 579 q 317 761 194 761 q 572 375 572 761 q 506 79 572 171 q 317 -12 440 -12 m 317 33 q 428 65 383 33 q 498 171 473 96 q 522 372 522 246 q 498 577 522 501 q 428 684 473 653 q 317 715 383 715 q 206 684 251 715 q 136 579 160 653 q 111 378 111 504 q 136 173 111 249 q 206 65 160 97 q 317 33 251 33 m 465 878 l 421 878 l 317 1092 l 213 878 l 168 878 l 290 1122 l 343 1122 l 465 878 z "},"ố":{"ha":633,"x_min":61,"x_max":579,"o":"m 317 -12 q 61 375 61 -12 q 127 670 61 579 q 317 761 194 761 q 572 375 572 761 q 506 79 572 171 q 317 -12 440 -12 m 317 33 q 428 65 383 33 q 498 171 473 96 q 522 372 522 246 q 498 577 522 501 q 428 684 473 653 q 317 715 383 715 q 206 684 251 715 q 136 579 160 653 q 111 378 111 504 q 136 173 111 249 q 206 65 160 97 q 317 33 251 33 m 529 1297 l 579 1297 l 479 1108 l 440 1108 l 529 1297 m 290 1122 l 343 1122 l 465 878 l 421 878 l 317 1092 l 213 878 l 168 878 l 290 1122 z "},"ộ":{"ha":633,"x_min":61,"x_max":572,"o":"m 317 -12 q 61 375 61 -12 q 127 670 61 579 q 317 761 194 761 q 572 375 572 761 q 506 79 572 171 q 317 -12 440 -12 m 317 33 q 428 65 383 33 q 498 171 473 96 q 522 372 522 246 q 498 577 522 501 q 428 684 473 653 q 317 715 383 715 q 206 684 251 715 q 136 579 160 653 q 111 378 111 504 q 136 173 111 249 q 206 65 160 97 q 317 33 251 33 m 317 -215 q 286 -203 298 -215 q 274 -172 274 -192 q 286 -140 274 -153 q 317 -128 298 -128 q 348 -140 335 -128 q 360 -172 360 -153 q 348 -203 360 -192 q 317 -215 335 -215 m 465 878 l 421 878 l 317 1092 l 213 878 l 168 878 l 290 1122 l 343 1122 l 465 878 z "},"ồ":{"ha":633,"x_min":61,"x_max":572,"o":"m 317 -12 q 61 375 61 -12 q 127 670 61 579 q 317 761 194 761 q 572 375 572 761 q 506 79 572 171 q 317 -12 440 -12 m 317 33 q 428 65 383 33 q 498 171 473 96 q 522 372 522 246 q 498 577 522 501 q 428 684 473 653 q 317 715 383 715 q 206 684 251 715 q 136 579 160 653 q 111 378 111 504 q 136 173 111 249 q 206 65 160 97 q 317 33 251 33 m 479 1108 l 440 1108 l 340 1297 l 390 1297 l 479 1108 m 290 1122 l 343 1122 l 465 878 l 421 878 l 317 1092 l 213 878 l 168 878 l 290 1122 z "},"ổ":{"ha":633,"x_min":61,"x_max":572,"o":"m 317 -12 q 61 375 61 -12 q 127 670 61 579 q 317 761 194 761 q 572 375 572 761 q 506 79 572 171 q 317 -12 440 -12 m 317 33 q 428 65 383 33 q 498 171 473 96 q 522 372 522 246 q 498 577 522 501 q 428 684 473 653 q 317 715 383 715 q 206 684 251 715 q 136 579 160 653 q 111 378 111 504 q 136 173 111 249 q 206 65 160 97 q 317 33 251 33 m 451 1297 q 540 1277 510 1297 q 571 1225 571 1257 q 556 1184 571 1198 q 513 1156 542 1170 q 479 1134 490 1144 q 465 1108 467 1124 l 424 1108 q 441 1151 425 1136 q 485 1179 457 1165 q 518 1199 508 1190 q 529 1224 529 1208 q 512 1250 529 1241 q 451 1260 495 1260 q 328 1233 387 1260 l 328 1272 q 385 1291 352 1284 q 451 1297 418 1297 m 290 1122 l 343 1122 l 465 878 l 421 878 l 317 1092 l 213 878 l 168 878 l 290 1122 z "},"ỗ":{"ha":633,"x_min":61,"x_max":572,"o":"m 317 -12 q 61 375 61 -12 q 127 670 61 579 q 317 761 194 761 q 572 375 572 761 q 506 79 572 171 q 317 -12 440 -12 m 317 33 q 428 65 383 33 q 498 171 473 96 q 522 372 522 246 q 498 577 522 501 q 428 684 473 653 q 317 715 383 715 q 206 684 251 715 q 136 579 160 653 q 111 378 111 504 q 136 173 111 249 q 206 65 160 97 q 317 33 251 33 m 399 1203 q 448 1215 426 1203 q 490 1253 470 1227 l 490 1207 q 451 1175 474 1187 q 399 1164 427 1164 q 357 1171 376 1164 q 308 1193 337 1178 q 267 1212 283 1206 q 235 1218 251 1218 q 185 1206 207 1218 q 143 1168 163 1194 l 143 1214 q 183 1245 159 1234 q 235 1257 206 1257 q 277 1250 257 1257 q 326 1228 297 1242 q 366 1209 350 1215 q 399 1203 383 1203 m 290 1122 l 343 1122 l 465 878 l 421 878 l 317 1092 l 213 878 l 168 878 l 290 1122 z "},"ȍ":{"ha":633,"x_min":61,"x_max":572,"o":"m 317 -12 q 61 375 61 -12 q 127 670 61 579 q 317 761 194 761 q 572 375 572 761 q 506 79 572 171 q 317 -12 440 -12 m 317 33 q 428 65 383 33 q 498 171 473 96 q 522 372 522 246 q 498 577 522 501 q 428 684 473 653 q 317 715 383 715 q 206 684 251 715 q 136 579 160 653 q 111 378 111 504 q 136 173 111 249 q 206 65 160 97 q 317 33 251 33 m 210 878 l 143 1122 l 189 1122 l 247 878 l 210 878 m 386 878 l 319 1122 l 365 1122 l 424 878 l 386 878 z "},"ö":{"ha":633,"x_min":61,"x_max":572,"o":"m 317 -12 q 61 375 61 -12 q 127 670 61 579 q 317 761 194 761 q 572 375 572 761 q 506 79 572 171 q 317 -12 440 -12 m 317 33 q 428 65 383 33 q 498 171 473 96 q 522 372 522 246 q 498 577 522 501 q 428 684 473 653 q 317 715 383 715 q 206 684 251 715 q 136 579 160 653 q 111 378 111 504 q 136 173 111 249 q 206 65 160 97 q 317 33 251 33 m 206 944 q 175 956 187 944 q 163 988 163 968 q 175 1019 163 1007 q 206 1032 187 1032 q 236 1019 224 1032 q 249 988 249 1007 q 236 956 249 968 q 206 944 224 944 m 428 944 q 397 956 409 944 q 385 988 385 968 q 397 1019 385 1007 q 428 1032 409 1032 q 459 1019 447 1032 q 471 988 471 1007 q 459 956 471 968 q 428 944 447 944 z "},"ȫ":{"ha":633,"x_min":61,"x_max":572,"o":"m 317 -12 q 61 375 61 -12 q 127 670 61 579 q 317 761 194 761 q 572 375 572 761 q 506 79 572 171 q 317 -12 440 -12 m 317 33 q 428 65 383 33 q 498 171 473 96 q 522 372 522 246 q 498 577 522 501 q 428 684 473 653 q 317 715 383 715 q 206 684 251 715 q 136 579 160 653 q 111 378 111 504 q 136 173 111 249 q 206 65 160 97 q 317 33 251 33 m 206 944 q 175 956 187 944 q 163 988 163 968 q 175 1019 163 1007 q 206 1032 187 1032 q 236 1019 224 1032 q 249 988 249 1007 q 236 956 249 968 q 206 944 224 944 m 428 944 q 397 956 409 944 q 385 988 385 968 q 397 1019 385 1007 q 428 1032 409 1032 q 459 1019 447 1032 q 471 988 471 1007 q 459 956 471 968 q 428 944 447 944 m 143 1151 l 143 1192 l 490 1192 l 490 1151 l 143 1151 z "},"ȱ":{"ha":633,"x_min":61,"x_max":572,"o":"m 317 -12 q 61 375 61 -12 q 127 670 61 579 q 317 761 194 761 q 572 375 572 761 q 506 79 572 171 q 317 -12 440 -12 m 317 33 q 428 65 383 33 q 498 171 473 96 q 522 372 522 246 q 498 577 522 501 q 428 684 473 653 q 317 715 383 715 q 206 684 251 715 q 136 579 160 653 q 111 378 111 504 q 136 173 111 249 q 206 65 160 97 q 317 33 251 33 m 317 944 q 286 956 298 944 q 274 988 274 968 q 286 1019 274 1007 q 317 1032 298 1032 q 348 1019 335 1032 q 360 988 360 1007 q 348 956 360 968 q 317 944 335 944 m 143 1151 l 143 1192 l 490 1192 l 490 1151 l 143 1151 z "},"ọ":{"ha":633,"x_min":61,"x_max":572,"o":"m 317 -12 q 61 375 61 -12 q 127 670 61 579 q 317 761 194 761 q 572 375 572 761 q 506 79 572 171 q 317 -12 440 -12 m 317 33 q 428 65 383 33 q 498 171 473 96 q 522 372 522 246 q 498 577 522 501 q 428 684 473 653 q 317 715 383 715 q 206 684 251 715 q 136 579 160 653 q 111 378 111 504 q 136 173 111 249 q 206 65 160 97 q 317 33 251 33 m 317 -215 q 286 -203 298 -215 q 274 -172 274 -192 q 286 -140 274 -153 q 317 -128 298 -128 q 348 -140 335 -128 q 360 -172 360 -153 q 348 -203 360 -192 q 317 -215 335 -215 z "},"ò":{"ha":633,"x_min":61,"x_max":572,"o":"m 317 -12 q 61 375 61 -12 q 127 670 61 579 q 317 761 194 761 q 572 375 572 761 q 506 79 572 171 q 317 -12 440 -12 m 317 33 q 428 65 383 33 q 498 171 473 96 q 522 372 522 246 q 498 577 522 501 q 428 684 473 653 q 317 715 383 715 q 206 684 251 715 q 136 579 160 653 q 111 378 111 504 q 136 173 111 249 q 206 65 160 97 q 317 33 251 33 m 297 878 l 183 1122 l 233 1122 l 336 878 l 297 878 z "},"ỏ":{"ha":633,"x_min":61,"x_max":572,"o":"m 317 -12 q 61 375 61 -12 q 127 670 61 579 q 317 761 194 761 q 572 375 572 761 q 506 79 572 171 q 317 -12 440 -12 m 317 33 q 428 65 383 33 q 498 171 473 96 q 522 372 522 246 q 498 577 522 501 q 428 684 473 653 q 317 715 383 715 q 206 684 251 715 q 136 579 160 653 q 111 378 111 504 q 136 173 111 249 q 206 65 160 97 q 317 33 251 33 m 294 878 q 310 936 294 914 q 354 981 326 958 q 385 1009 375 997 q 394 1039 394 1022 q 377 1079 394 1066 q 317 1092 359 1092 q 267 1087 294 1092 q 221 1075 241 1083 l 221 1114 q 266 1126 240 1122 q 315 1131 291 1131 q 406 1107 376 1131 q 436 1040 436 1083 q 423 993 436 1010 q 385 954 410 975 q 349 919 361 935 q 338 878 338 903 l 294 878 z "},"ơ":{"ha":633,"x_min":61,"x_max":588,"o":"m 464 714 q 545 586 519 669 q 572 375 572 502 q 506 79 572 171 q 317 -12 440 -12 q 61 375 61 -12 q 127 670 61 579 q 317 761 194 761 q 350 760 332 761 q 377 759 369 759 q 418 757 400 757 q 508 785 474 757 q 542 871 542 813 q 538 920 542 898 q 525 969 533 942 l 571 969 q 584 922 580 944 q 588 869 588 899 q 553 765 588 805 q 464 714 519 724 m 317 33 q 428 65 383 33 q 498 171 473 96 q 522 372 522 246 q 498 577 522 501 q 428 684 473 653 q 317 715 383 715 q 206 684 251 715 q 136 579 160 653 q 111 378 111 504 q 136 173 111 249 q 206 65 160 97 q 317 33 251 33 z "},"ớ":{"ha":633,"x_min":61,"x_max":588,"o":"m 464 714 q 545 586 519 669 q 572 375 572 502 q 506 79 572 171 q 317 -12 440 -12 q 61 375 61 -12 q 127 670 61 579 q 317 761 194 761 q 350 760 332 761 q 377 759 369 759 q 418 757 400 757 q 508 785 474 757 q 542 871 542 813 q 538 920 542 898 q 525 969 533 942 l 571 969 q 584 922 580 944 q 588 869 588 899 q 553 765 588 805 q 464 714 519 724 m 317 33 q 428 65 383 33 q 498 171 473 96 q 522 372 522 246 q 498 577 522 501 q 428 684 473 653 q 317 715 383 715 q 206 684 251 715 q 136 579 160 653 q 111 378 111 504 q 136 173 111 249 q 206 65 160 97 q 317 33 251 33 m 297 878 l 400 1122 l 450 1122 l 336 878 l 297 878 z "},"ợ":{"ha":633,"x_min":61,"x_max":588,"o":"m 464 714 q 545 586 519 669 q 572 375 572 502 q 506 79 572 171 q 317 -12 440 -12 q 61 375 61 -12 q 127 670 61 579 q 317 761 194 761 q 350 760 332 761 q 377 759 369 759 q 418 757 400 757 q 508 785 474 757 q 542 871 542 813 q 538 920 542 898 q 525 969 533 942 l 571 969 q 584 922 580 944 q 588 869 588 899 q 553 765 588 805 q 464 714 519 724 m 317 33 q 428 65 383 33 q 498 171 473 96 q 522 372 522 246 q 498 577 522 501 q 428 684 473 653 q 317 715 383 715 q 206 684 251 715 q 136 579 160 653 q 111 378 111 504 q 136 173 111 249 q 206 65 160 97 q 317 33 251 33 m 317 -215 q 286 -203 298 -215 q 274 -172 274 -192 q 286 -140 274 -153 q 317 -128 298 -128 q 348 -140 335 -128 q 360 -172 360 -153 q 348 -203 360 -192 q 317 -215 335 -215 z "},"ờ":{"ha":633,"x_min":61,"x_max":588,"o":"m 464 714 q 545 586 519 669 q 572 375 572 502 q 506 79 572 171 q 317 -12 440 -12 q 61 375 61 -12 q 127 670 61 579 q 317 761 194 761 q 350 760 332 761 q 377 759 369 759 q 418 757 400 757 q 508 785 474 757 q 542 871 542 813 q 538 920 542 898 q 525 969 533 942 l 571 969 q 584 922 580 944 q 588 869 588 899 q 553 765 588 805 q 464 714 519 724 m 317 33 q 428 65 383 33 q 498 171 473 96 q 522 372 522 246 q 498 577 522 501 q 428 684 473 653 q 317 715 383 715 q 206 684 251 715 q 136 579 160 653 q 111 378 111 504 q 136 173 111 249 q 206 65 160 97 q 317 33 251 33 m 297 878 l 183 1122 l 233 1122 l 336 878 l 297 878 z "},"ở":{"ha":633,"x_min":61,"x_max":588,"o":"m 464 714 q 545 586 519 669 q 572 375 572 502 q 506 79 572 171 q 317 -12 440 -12 q 61 375 61 -12 q 127 670 61 579 q 317 761 194 761 q 350 760 332 761 q 377 759 369 759 q 418 757 400 757 q 508 785 474 757 q 542 871 542 813 q 538 920 542 898 q 525 969 533 942 l 571 969 q 584 922 580 944 q 588 869 588 899 q 553 765 588 805 q 464 714 519 724 m 317 33 q 428 65 383 33 q 498 171 473 96 q 522 372 522 246 q 498 577 522 501 q 428 684 473 653 q 317 715 383 715 q 206 684 251 715 q 136 579 160 653 q 111 378 111 504 q 136 173 111 249 q 206 65 160 97 q 317 33 251 33 m 294 878 q 310 936 294 914 q 354 981 326 958 q 385 1009 375 997 q 394 1039 394 1022 q 377 1079 394 1066 q 317 1092 359 1092 q 267 1087 294 1092 q 221 1075 241 1083 l 221 1114 q 266 1126 240 1122 q 315 1131 291 1131 q 406 1107 376 1131 q 436 1040 436 1083 q 423 993 436 1010 q 385 954 410 975 q 349 919 361 935 q 338 878 338 903 l 294 878 z "},"ỡ":{"ha":633,"x_min":61,"x_max":588,"o":"m 235 1013 q 185 1000 207 1013 q 143 963 163 988 l 143 1008 q 183 1040 159 1028 q 235 1051 206 1051 q 277 1044 257 1051 q 326 1022 297 1037 q 366 1003 350 1010 q 399 997 383 997 q 448 1009 426 997 q 490 1047 470 1022 l 490 1001 q 451 970 474 981 q 399 958 427 958 q 357 966 376 958 q 308 988 337 973 q 267 1006 283 1000 q 235 1013 251 1013 m 464 714 q 545 586 519 669 q 572 375 572 502 q 506 79 572 171 q 317 -12 440 -12 q 61 375 61 -12 q 127 670 61 579 q 317 761 194 761 q 350 760 332 761 q 377 759 369 759 q 418 757 400 757 q 508 785 474 757 q 542 871 542 813 q 538 920 542 898 q 525 969 533 942 l 571 969 q 584 922 580 944 q 588 869 588 899 q 553 765 588 805 q 464 714 519 724 m 317 33 q 428 65 383 33 q 498 171 473 96 q 522 372 522 246 q 498 577 522 501 q 428 684 473 653 q 317 715 383 715 q 206 684 251 715 q 136 579 160 653 q 111 378 111 504 q 136 173 111 249 q 206 65 160 97 q 317 33 251 33 z "},"ő":{"ha":633,"x_min":61,"x_max":572,"o":"m 317 -12 q 61 375 61 -12 q 127 670 61 579 q 317 761 194 761 q 572 375 572 761 q 506 79 572 171 q 317 -12 440 -12 m 317 33 q 428 65 383 33 q 498 171 473 96 q 522 372 522 246 q 498 577 522 501 q 428 684 473 653 q 317 715 383 715 q 206 684 251 715 q 136 579 160 653 q 111 378 111 504 q 136 173 111 249 q 206 65 160 97 q 317 33 251 33 m 211 878 l 271 1122 l 314 1122 l 247 878 l 211 878 m 386 878 l 446 1122 l 489 1122 l 422 878 l 386 878 z "},"ȏ":{"ha":633,"x_min":61,"x_max":572,"o":"m 317 -12 q 61 375 61 -12 q 127 670 61 579 q 317 761 194 761 q 572 375 572 761 q 506 79 572 171 q 317 -12 440 -12 m 317 33 q 428 65 383 33 q 498 171 473 96 q 522 372 522 246 q 498 577 522 501 q 428 684 473 653 q 317 715 383 715 q 206 684 251 715 q 136 579 160 653 q 111 378 111 504 q 136 173 111 249 q 206 65 160 97 q 317 33 251 33 m 163 897 q 205 1061 165 1008 q 315 1114 245 1114 q 427 1060 385 1114 q 471 897 468 1006 l 432 897 q 398 1032 427 990 q 315 1074 369 1074 q 233 1032 261 1074 q 201 897 204 990 l 163 897 z "},"ō":{"ha":633,"x_min":61,"x_max":572,"o":"m 317 -12 q 61 375 61 -12 q 127 670 61 579 q 317 761 194 761 q 572 375 572 761 q 506 79 572 171 q 317 -12 440 -12 m 317 33 q 428 65 383 33 q 498 171 473 96 q 522 372 522 246 q 498 577 522 501 q 428 684 473 653 q 317 715 383 715 q 206 684 251 715 q 136 579 160 653 q 111 378 111 504 q 136 173 111 249 q 206 65 160 97 q 317 33 251 33 m 143 968 l 143 1008 l 490 1008 l 490 968 l 143 968 z "},"ṓ":{"ha":633,"x_min":61,"x_max":572,"o":"m 317 -12 q 61 375 61 -12 q 127 670 61 579 q 317 761 194 761 q 572 375 572 761 q 506 79 572 171 q 317 -12 440 -12 m 317 33 q 428 65 383 33 q 498 171 473 96 q 522 372 522 246 q 498 577 522 501 q 428 684 473 653 q 317 715 383 715 q 206 684 251 715 q 136 579 160 653 q 111 378 111 504 q 136 173 111 249 q 206 65 160 97 q 317 33 251 33 m 143 968 l 143 1008 l 490 1008 l 490 968 l 143 968 m 297 1108 l 386 1297 l 436 1297 l 336 1108 l 297 1108 z "},"ṑ":{"ha":633,"x_min":61,"x_max":572,"o":"m 317 -12 q 61 375 61 -12 q 127 670 61 579 q 317 761 194 761 q 572 375 572 761 q 506 79 572 171 q 317 -12 440 -12 m 317 33 q 428 65 383 33 q 498 171 473 96 q 522 372 522 246 q 498 577 522 501 q 428 684 473 653 q 317 715 383 715 q 206 684 251 715 q 136 579 160 653 q 111 378 111 504 q 136 173 111 249 q 206 65 160 97 q 317 33 251 33 m 143 968 l 143 1008 l 490 1008 l 490 968 l 143 968 m 297 1108 l 197 1297 l 247 1297 l 336 1108 l 297 1108 z "},"ǫ":{"ha":633,"x_min":61,"x_max":572,"o":"m 403 0 q 301 -68 334 -25 q 268 -157 268 -112 q 290 -220 268 -199 q 351 -242 313 -242 q 432 -219 394 -242 l 444 -251 q 353 -278 404 -278 q 263 -248 297 -278 q 229 -161 229 -217 q 250 -79 229 -118 q 309 -12 270 -40 q 126 84 190 -8 q 61 375 61 176 q 127 670 61 579 q 317 761 194 761 q 572 375 572 761 q 529 120 572 210 q 403 0 486 31 m 111 378 q 136 173 111 249 q 206 65 160 97 q 317 33 251 33 q 428 65 383 33 q 498 171 473 96 q 522 372 522 246 q 498 577 522 501 q 428 684 473 653 q 317 715 383 715 q 206 684 251 715 q 136 579 160 653 q 111 378 111 504 z "},"ø":{"ha":633,"x_min":61,"x_max":572,"o":"m 517 651 q 572 375 572 554 q 506 79 572 171 q 317 -12 440 -12 q 144 60 206 -12 l 99 -11 l 61 11 l 117 99 q 61 375 61 196 q 127 670 61 579 q 317 761 194 761 q 490 690 427 761 l 535 761 l 572 739 l 517 651 m 317 715 q 206 684 251 715 q 136 579 160 653 q 111 378 111 504 q 146 145 111 228 l 463 648 q 401 699 438 683 q 317 715 364 715 m 317 33 q 428 65 383 33 q 498 171 473 96 q 522 372 522 246 q 488 605 522 522 l 170 101 q 232 50 196 66 q 317 33 269 33 z "},"ǿ":{"ha":633,"x_min":61,"x_max":572,"o":"m 517 651 q 572 375 572 554 q 506 79 572 171 q 317 -12 440 -12 q 144 60 206 -12 l 99 -11 l 61 11 l 117 99 q 61 375 61 196 q 127 670 61 579 q 317 761 194 761 q 490 690 427 761 l 535 761 l 572 739 l 517 651 m 317 715 q 206 684 251 715 q 136 579 160 653 q 111 378 111 504 q 146 145 111 228 l 463 648 q 401 699 438 683 q 317 715 364 715 m 317 33 q 428 65 383 33 q 498 171 473 96 q 522 372 522 246 q 488 605 522 522 l 170 101 q 232 50 196 66 q 317 33 269 33 m 297 878 l 400 1122 l 450 1122 l 336 878 l 297 878 z "},"õ":{"ha":633,"x_min":61,"x_max":572,"o":"m 317 -12 q 61 375 61 -12 q 127 670 61 579 q 317 761 194 761 q 572 375 572 761 q 506 79 572 171 q 317 -12 440 -12 m 317 33 q 428 65 383 33 q 498 171 473 96 q 522 372 522 246 q 498 577 522 501 q 428 684 473 653 q 317 715 383 715 q 206 684 251 715 q 136 579 160 653 q 111 378 111 504 q 136 173 111 249 q 206 65 160 97 q 317 33 251 33 m 399 958 q 357 966 376 958 q 308 988 337 973 q 267 1006 283 1000 q 235 1013 251 1013 q 185 1000 207 1013 q 143 963 163 988 l 143 1008 q 183 1040 159 1028 q 235 1051 206 1051 q 277 1044 257 1051 q 326 1022 297 1037 q 366 1003 350 1010 q 399 997 383 997 q 448 1009 426 997 q 490 1047 470 1022 l 490 1001 q 451 970 474 981 q 399 958 427 958 z "},"ṍ":{"ha":633,"x_min":61,"x_max":572,"o":"m 317 -12 q 61 375 61 -12 q 127 670 61 579 q 317 761 194 761 q 572 375 572 761 q 506 79 572 171 q 317 -12 440 -12 m 317 33 q 428 65 383 33 q 498 171 473 96 q 522 372 522 246 q 498 577 522 501 q 428 684 473 653 q 317 715 383 715 q 206 684 251 715 q 136 579 160 653 q 111 378 111 504 q 136 173 111 249 q 206 65 160 97 q 317 33 251 33 m 399 958 q 357 966 376 958 q 308 988 337 973 q 267 1006 283 1000 q 235 1013 251 1013 q 185 1000 207 1013 q 143 963 163 988 l 143 1008 q 183 1040 159 1028 q 235 1051 206 1051 q 277 1044 257 1051 q 326 1022 297 1037 q 366 1003 350 1010 q 399 997 383 997 q 448 1009 426 997 q 490 1047 470 1022 l 490 1001 q 451 970 474 981 q 399 958 427 958 m 297 1108 l 386 1297 l 436 1297 l 336 1108 l 297 1108 z "},"ṏ":{"ha":633,"x_min":61,"x_max":572,"o":"m 317 -12 q 61 375 61 -12 q 127 670 61 579 q 317 761 194 761 q 572 375 572 761 q 506 79 572 171 q 317 -12 440 -12 m 317 33 q 428 65 383 33 q 498 171 473 96 q 522 372 522 246 q 498 577 522 501 q 428 684 473 653 q 317 715 383 715 q 206 684 251 715 q 136 579 160 653 q 111 378 111 504 q 136 173 111 249 q 206 65 160 97 q 317 33 251 33 m 399 958 q 357 966 376 958 q 308 988 337 973 q 267 1006 283 1000 q 235 1013 251 1013 q 185 1000 207 1013 q 143 963 163 988 l 143 1008 q 183 1040 159 1028 q 235 1051 206 1051 q 277 1044 257 1051 q 326 1022 297 1037 q 366 1003 350 1010 q 399 997 383 997 q 448 1009 426 997 q 490 1047 470 1022 l 490 1001 q 451 970 474 981 q 399 958 427 958 m 206 1128 q 175 1140 187 1128 q 163 1171 163 1151 q 175 1203 163 1190 q 206 1215 187 1215 q 236 1203 224 1215 q 249 1171 249 1190 q 236 1140 249 1151 q 206 1128 224 1128 m 428 1128 q 397 1140 409 1128 q 385 1171 385 1151 q 397 1203 385 1190 q 428 1215 409 1215 q 459 1203 447 1215 q 471 1171 471 1190 q 459 1140 471 1151 q 428 1128 447 1128 z "},"ȭ":{"ha":633,"x_min":61,"x_max":572,"o":"m 317 -12 q 61 375 61 -12 q 127 670 61 579 q 317 761 194 761 q 572 375 572 761 q 506 79 572 171 q 317 -12 440 -12 m 317 33 q 428 65 383 33 q 498 171 473 96 q 522 372 522 246 q 498 577 522 501 q 428 684 473 653 q 317 715 383 715 q 206 684 251 715 q 136 579 160 653 q 111 378 111 504 q 136 173 111 249 q 206 65 160 97 q 317 33 251 33 m 399 958 q 357 966 376 958 q 308 988 337 973 q 267 1006 283 1000 q 235 1013 251 1013 q 185 1000 207 1013 q 143 963 163 988 l 143 1008 q 183 1040 159 1028 q 235 1051 206 1051 q 277 1044 257 1051 q 326 1022 297 1037 q 366 1003 350 1010 q 399 997 383 997 q 448 1009 426 997 q 490 1047 470 1022 l 490 1001 q 451 970 474 981 q 399 958 427 958 m 143 1151 l 143 1192 l 490 1192 l 490 1151 l 143 1151 z "},"œ":{"ha":1039,"x_min":61,"x_max":986,"o":"m 986 354 l 567 354 q 595 164 568 235 q 672 64 622 94 q 800 33 722 33 q 953 63 861 33 l 953 15 q 797 -12 873 -12 q 632 33 696 -12 q 541 179 569 78 q 457 33 515 79 q 314 -12 399 -12 q 128 80 194 -12 q 61 375 61 172 q 127 670 61 578 q 314 761 193 761 q 542 567 490 761 q 754 763 588 763 q 926 673 867 763 q 986 375 986 584 l 986 354 m 754 717 q 619 645 668 717 q 567 400 569 574 l 936 400 q 911 591 934 522 q 849 689 888 661 q 754 717 810 717 m 314 33 q 423 65 378 33 q 492 171 467 97 q 517 372 517 246 q 492 577 517 501 q 423 684 467 653 q 314 715 378 715 q 205 684 249 715 q 136 578 160 653 q 111 378 111 504 q 136 173 111 249 q 205 65 160 97 q 314 33 249 33 z "},"p":{"ha":635,"x_min":100,"x_max":574,"o":"m 100 750 l 142 750 l 146 675 l 151 675 q 224 737 178 713 q 325 761 269 761 q 506 676 438 761 q 574 389 574 590 q 492 85 574 183 q 254 -12 410 -12 q 147 -6 203 -12 l 147 -306 l 100 -306 l 100 750 m 256 33 q 456 116 389 33 q 524 383 524 198 q 498 586 524 513 q 428 687 472 659 q 324 715 385 715 q 222 686 270 715 q 147 604 174 658 l 147 43 q 199 36 168 39 q 256 33 230 33 z "},"þ":{"ha":635,"x_min":100,"x_max":574,"o":"m 100 1122 l 147 1122 l 147 679 l 151 679 q 226 738 181 715 q 332 761 272 761 q 507 675 440 761 q 574 389 574 590 q 492 85 574 183 q 254 -12 410 -12 q 147 -6 203 -12 l 147 -306 l 100 -306 l 100 1122 m 256 33 q 456 116 389 33 q 524 383 524 198 q 498 586 524 513 q 430 687 472 659 q 328 715 387 715 q 223 687 272 715 q 147 607 174 658 l 147 43 q 199 36 168 39 q 256 33 230 33 z "},"q":{"ha":635,"x_min":61,"x_max":535,"o":"m 488 69 l 483 69 q 410 11 456 35 q 307 -12 364 -12 q 129 73 197 -12 q 61 360 61 158 q 142 663 61 565 q 376 761 224 761 q 460 754 415 761 q 535 736 505 747 l 535 -306 l 488 -306 l 488 69 m 310 33 q 413 62 364 33 q 488 142 461 90 l 488 701 q 434 711 465 707 q 376 715 403 715 q 178 633 244 715 q 111 365 111 550 q 137 163 111 236 q 206 61 163 90 q 310 33 249 33 z "},"r":{"ha":393,"x_min":100,"x_max":386,"o":"m 100 750 l 142 750 l 146 649 l 151 649 q 239 728 187 701 q 349 756 291 756 q 386 753 369 756 l 386 706 q 347 707 372 707 q 233 672 288 707 q 147 575 178 638 l 147 0 l 100 0 l 100 750 z "},"ŕ":{"ha":393,"x_min":100,"x_max":386,"o":"m 100 750 l 142 750 l 146 649 l 151 649 q 239 728 187 701 q 349 756 291 756 q 386 753 369 756 l 386 706 q 347 707 372 707 q 233 672 288 707 q 147 575 178 638 l 147 0 l 100 0 l 100 750 m 206 878 l 308 1122 l 358 1122 l 244 878 l 206 878 z "},"ř":{"ha":393,"x_min":76,"x_max":386,"o":"m 100 750 l 142 750 l 146 649 l 151 649 q 239 728 187 701 q 349 756 291 756 q 386 753 369 756 l 386 706 q 347 707 372 707 q 233 672 288 707 q 147 575 178 638 l 147 0 l 100 0 l 100 750 m 329 1122 l 374 1122 l 251 878 l 199 878 l 76 1122 l 121 1122 l 225 908 l 329 1122 z "},"ŗ":{"ha":393,"x_min":81,"x_max":386,"o":"m 100 750 l 142 750 l 146 649 l 151 649 q 239 728 187 701 q 349 756 291 756 q 386 753 369 756 l 386 706 q 347 707 372 707 q 233 672 288 707 q 147 575 178 638 l 147 0 l 100 0 l 100 750 m 121 -128 q 155 -143 142 -128 q 167 -187 167 -158 q 159 -247 167 -214 q 136 -311 151 -281 l 106 -311 q 128 -215 125 -262 l 124 -215 q 93 -203 105 -215 q 81 -171 81 -190 q 92 -140 81 -152 q 121 -128 103 -128 z "},"ȑ":{"ha":393,"x_min":51,"x_max":386,"o":"m 100 750 l 142 750 l 146 649 l 151 649 q 239 728 187 701 q 349 756 291 756 q 386 753 369 756 l 386 706 q 347 707 372 707 q 233 672 288 707 q 147 575 178 638 l 147 0 l 100 0 l 100 750 m 118 878 l 51 1122 l 97 1122 l 156 878 l 118 878 m 294 878 l 228 1122 l 274 1122 l 332 878 l 294 878 z "},"ṛ":{"ha":393,"x_min":81,"x_max":386,"o":"m 100 750 l 142 750 l 146 649 l 151 649 q 239 728 187 701 q 349 756 291 756 q 386 753 369 756 l 386 706 q 347 707 372 707 q 233 672 288 707 q 147 575 178 638 l 147 0 l 100 0 l 100 750 m 124 -215 q 93 -203 105 -215 q 81 -172 81 -192 q 93 -140 81 -153 q 124 -128 105 -128 q 155 -140 142 -128 q 167 -172 167 -153 q 155 -203 167 -192 q 124 -215 142 -215 z "},"ȓ":{"ha":393,"x_min":71,"x_max":386,"o":"m 100 750 l 142 750 l 146 649 l 151 649 q 239 728 187 701 q 349 756 291 756 q 386 753 369 756 l 386 706 q 347 707 372 707 q 233 672 288 707 q 147 575 178 638 l 147 0 l 100 0 l 100 750 m 71 897 q 114 1061 74 1008 q 224 1114 153 1114 q 335 1060 294 1114 q 379 897 376 1006 l 340 897 q 306 1032 335 990 q 224 1074 277 1074 q 141 1032 169 1074 q 110 897 113 990 l 71 897 z "},"ṟ":{"ha":393,"x_min":-29,"x_max":386,"o":"m 100 750 l 142 750 l 146 649 l 151 649 q 239 728 187 701 q 349 756 291 756 q 386 753 369 756 l 386 706 q 347 707 372 707 q 233 672 288 707 q 147 575 178 638 l 147 0 l 100 0 l 100 750 m -29 -192 l -29 -151 l 276 -151 l 276 -192 l -29 -192 z "},"s":{"ha":503,"x_min":53,"x_max":458,"o":"m 222 -12 q 65 14 142 -12 l 65 61 q 148 40 111 47 q 222 33 185 33 q 361 74 312 33 q 410 190 410 115 q 379 292 410 256 q 283 346 348 327 l 219 364 q 91 438 128 390 q 53 560 53 485 q 81 664 53 618 q 162 735 108 709 q 289 761 215 761 q 424 746 358 761 l 424 699 q 356 711 387 708 q 289 715 325 715 q 185 695 227 715 q 122 641 143 675 q 101 563 101 606 q 131 467 101 503 q 224 414 160 432 l 288 396 q 420 320 383 369 q 458 193 458 271 q 397 42 458 96 q 222 -12 335 -12 z "},"ś":{"ha":503,"x_min":53,"x_max":458,"o":"m 222 -12 q 65 14 142 -12 l 65 61 q 148 40 111 47 q 222 33 185 33 q 361 74 312 33 q 410 190 410 115 q 379 292 410 256 q 283 346 348 327 l 219 364 q 91 438 128 390 q 53 560 53 485 q 81 664 53 618 q 162 735 108 709 q 289 761 215 761 q 424 746 358 761 l 424 699 q 356 711 387 708 q 289 715 325 715 q 185 695 227 715 q 122 641 143 675 q 101 563 101 606 q 131 467 101 503 q 224 414 160 432 l 288 396 q 420 320 383 369 q 458 193 458 271 q 397 42 458 96 q 222 -12 335 -12 m 238 878 l 340 1122 l 390 1122 l 276 878 l 238 878 z "},"ṥ":{"ha":503,"x_min":53,"x_max":458,"o":"m 222 -12 q 65 14 142 -12 l 65 61 q 148 40 111 47 q 222 33 185 33 q 361 74 312 33 q 410 190 410 115 q 379 292 410 256 q 283 346 348 327 l 219 364 q 91 438 128 390 q 53 560 53 485 q 81 664 53 618 q 162 735 108 709 q 289 761 215 761 q 424 746 358 761 l 424 699 q 356 711 387 708 q 289 715 325 715 q 185 695 227 715 q 122 641 143 675 q 101 563 101 606 q 131 467 101 503 q 224 414 160 432 l 288 396 q 420 320 383 369 q 458 193 458 271 q 397 42 458 96 q 222 -12 335 -12 m 229 1094 q 198 1106 210 1094 q 186 1138 186 1118 q 198 1169 186 1157 q 229 1182 210 1182 q 260 1169 248 1182 q 272 1138 272 1157 q 260 1106 272 1118 q 229 1094 248 1094 m 238 878 l 340 1122 l 390 1122 l 276 878 l 238 878 z "},"š":{"ha":503,"x_min":53,"x_max":458,"o":"m 222 -12 q 65 14 142 -12 l 65 61 q 148 40 111 47 q 222 33 185 33 q 361 74 312 33 q 410 190 410 115 q 379 292 410 256 q 283 346 348 327 l 219 364 q 91 438 128 390 q 53 560 53 485 q 81 664 53 618 q 162 735 108 709 q 289 761 215 761 q 424 746 358 761 l 424 699 q 356 711 387 708 q 289 715 325 715 q 185 695 227 715 q 122 641 143 675 q 101 563 101 606 q 131 467 101 503 q 224 414 160 432 l 288 396 q 420 320 383 369 q 458 193 458 271 q 397 42 458 96 q 222 -12 335 -12 m 361 1122 l 406 1122 l 283 878 l 231 878 l 108 1122 l 153 1122 l 257 908 l 361 1122 z "}}}
